GeoramaExtended-SemiBold.ufo
<glyph name="exclam" format="2">
  <advance width="304.38"/>
  <unicode hex="0021"/>
  <outline>
    <contour>
      <point x="88.01499999999999" y="261.25" type="line"/>
      <point x="218.73" y="261.25" type="line"/>
      <point x="229.07" y="740.0" type="line"/>
      <point x="78.16999999999999" y="740.0" type="line"/>
    </contour>
    <contour>
      <point x="66.845" y="64.96" type="curve" smooth="yes"/>
      <point x="66.845" y="16.015"/>
      <point x="89.55499999999999" y="-5.885"/>
      <point x="152.19" y="-5.885" type="curve" smooth="yes"/>
      <point x="215.275" y="-5.885"/>
      <point x="237.53500000000003" y="16.015"/>
      <point x="237.53500000000003" y="64.96" type="curve" smooth="yes"/>
      <point x="237.53500000000003" y="114.45500000000001"/>
      <point x="215.275" y="136.35500000000002"/>
      <point x="152.19" y="136.35500000000002" type="curve" smooth="yes"/>
      <point x="89.105" y="136.35500000000002"/>
      <point x="66.845" y="114.45500000000001"/>
    </contour>
  </outline>
</glyph>
<glyph name="numbersign" format="2">
  <advance width="833.01"/>
  <unicode hex="0023"/>
  <outline>
    <contour>
      <point x="107.07" y="439.945" type="line"/>
      <point x="213.51" y="439.945" type="line"/>
      <point x="174.055" y="256.32" type="line"/>
      <point x="72.19" y="256.32" type="line"/>
      <point x="72.19" y="159.345" type="line"/>
      <point x="155.945" y="159.345" type="line"/>
      <point x="124.00499999999998" y="0.0" type="line"/>
      <point x="272.97999999999996" y="0.0" type="line"/>
      <point x="304.91999999999996" y="159.345" type="line"/>
      <point x="454.60999999999996" y="159.345" type="line"/>
      <point x="422.66999999999996" y="0.0" type="line"/>
      <point x="571.645" y="0.0" type="line"/>
      <point x="603.5849999999999" y="159.345" type="line"/>
      <point x="726.325" y="159.345" type="line"/>
      <point x="726.325" y="256.32" type="line"/>
      <point x="621.6949999999999" y="256.32" type="line"/>
      <point x="661.15" y="439.945" type="line"/>
      <point x="761.2049999999999" y="439.945" type="line"/>
      <point x="761.2049999999999" y="536.48" type="line"/>
      <point x="678.6949999999999" y="536.48" type="line"/>
      <point x="712.305" y="700.0" type="line"/>
      <point x="563.3299999999999" y="700.0" type="line"/>
      <point x="529.7199999999999" y="536.48" type="line"/>
      <point x="380.03" y="536.48" type="line"/>
      <point x="413.64" y="700.0" type="line"/>
      <point x="264.66499999999996" y="700.0" type="line"/>
      <point x="231.05499999999998" y="536.48" type="line"/>
      <point x="107.07" y="536.48" type="line"/>
    </contour>
    <contour>
      <point x="362.485" y="439.945" type="line"/>
      <point x="512.175" y="439.945" type="line"/>
      <point x="472.71999999999997" y="256.32" type="line"/>
      <point x="323.03" y="256.32" type="line"/>
    </contour>
  </outline>
</glyph>
<glyph name="dollar" format="2">
  <advance width="833.01"/>
  <unicode hex="0024"/>
  <outline>
    <contour>
      <point x="390.065" y="-10.0" type="curve" smooth="yes"/>
      <point x="626.015" y="-14.549999999999999"/>
      <point x="769.7149999999999" y="46.650000000000006"/>
      <point x="769.7149999999999" y="197.59" type="curve" smooth="yes"/>
      <point x="769.7149999999999" y="327.70000000000005"/>
      <point x="659.17" y="377.025"/>
      <point x="495.865" y="408.965" type="curve" smooth="yes"/>
      <point x="343.85499999999996" y="438.05"/>
      <point x="252.89500000000004" y="448.945"/>
      <point x="252.89500000000004" y="514.295" type="curve" smooth="yes"/>
      <point x="252.89500000000004" y="567.2099999999999"/>
      <point x="315.535" y="590.8000000000001"/>
      <point x="433.325" y="590.8000000000001" type="curve" smooth="yes"/>
      <point x="520.13" y="590.8000000000001"/>
      <point x="628.9749999999999" y="575.74"/>
      <point x="701.05" y="553.6550000000001" type="curve"/>
      <point x="727.3399999999999" y="671.65" type="line"/>
      <point x="647.185" y="694.1550000000001"/>
      <point x="537.755" y="710.0"/>
      <point x="439.0299999999999" y="710.0" type="curve" smooth="yes"/>
      <point x="224.96499999999997" y="709.37"/>
      <point x="96.14" y="645.84"/>
      <point x="96.14" y="501.415" type="curve" smooth="yes"/>
      <point x="96.14" y="373.755"/>
      <point x="196.855" y="325.96999999999997"/>
      <point x="336.865" y="295.315" type="curve" smooth="yes"/>
      <point x="503.19500000000005" y="261.90000000000003"/>
      <point x="611.17" y="251.00000000000003"/>
      <point x="611.17" y="184.41" type="curve" smooth="yes"/>
      <point x="611.17" y="128.86"/>
      <point x="551.165" y="105.40500000000002"/>
      <point x="424.21" y="105.40500000000002" type="curve" smooth="yes"/>
      <point x="325.24499999999995" y="105.40500000000002"/>
      <point x="193.71499999999997" y="126.985"/>
      <point x="91.52499999999999" y="159.875" type="curve"/>
      <point x="63.99499999999999" y="42.665" type="line"/>
      <point x="156.26999999999998" y="12.57"/>
      <point x="284.215" y="-8.389999999999999"/>
    </contour>
    <contour>
      <point x="375.485" y="-105.0" type="line"/>
      <point x="488.75" y="-105.0" type="line"/>
      <point x="488.75" y="7.455" type="line"/>
      <point x="375.485" y="2.5600000000000005" type="line"/>
    </contour>
    <contour>
      <point x="375.485" y="694.06" type="line"/>
      <point x="488.75" y="697.6700000000001" type="line"/>
      <point x="488.75" y="804.67" type="line"/>
      <point x="375.485" y="804.67" type="line"/>
    </contour>
  </outline>
</glyph>
<glyph name="ampersand" format="2">
  <advance width="884.78"/>
  <unicode hex="0026"/>
  <outline>
    <contour>
      <point x="693.9899999999999" y="-4.949999999999999" type="line"/>
      <point x="880.4599999999999" y="2.249999999999999" type="line"/>
      <point x="374.8" y="422.90999999999997" type="line" smooth="yes"/>
      <point x="324.72" y="464.93"/>
      <point x="302.61" y="493.66"/>
      <point x="302.61" y="527.42" type="curve" smooth="yes"/>
      <point x="302.61" y="576.88"/>
      <point x="347.15" y="604.02"/>
      <point x="430.4" y="604.02" type="curve" smooth="yes"/>
      <point x="502.33" y="604.02"/>
      <point x="550.23" y="577.06"/>
      <point x="550.23" y="525.46" type="curve" smooth="yes"/>
      <point x="550.23" y="484.94"/>
      <point x="525.12" y="457.21"/>
      <point x="476.60999999999996" y="439.59" type="curve"/>
      <point x="550.7" y="376.66" type="line"/>
      <point x="650.7899999999998" y="412.77"/>
      <point x="691.94" y="469.64"/>
      <point x="691.94" y="544.5099999999999" type="curve" smooth="yes"/>
      <point x="691.94" y="652.52"/>
      <point x="599.95" y="710.0"/>
      <point x="425.38" y="710.0" type="curve" smooth="yes"/>
      <point x="228.03" y="710.0"/>
      <point x="146.49" y="634.0200000000001"/>
      <point x="146.49" y="526.51" type="curve" smooth="yes"/>
      <point x="146.49" y="466.77"/>
      <point x="166.34000000000003" y="420.93"/>
      <point x="224.42999999999998" y="370.66" type="curve" smooth="yes"/>
    </contour>
    <contour>
      <point x="364.78" y="-10.0" type="curve" smooth="yes"/>
      <point x="463.65999999999997" y="-10.0"/>
      <point x="554.95" y="15.140000000000004"/>
      <point x="626.06" y="65.50999999999999" type="curve"/>
      <point x="547.6399999999999" y="145.72" type="line"/>
      <point x="512.53" y="113.93000000000002"/>
      <point x="459.75" y="94.94000000000001"/>
      <point x="383.55" y="94.94000000000001" type="curve" smooth="yes"/>
      <point x="267.97" y="94.94000000000001"/>
      <point x="190.24999999999997" y="143.42000000000002"/>
      <point x="190.24999999999997" y="219.61" type="curve" smooth="yes"/>
      <point x="190.24999999999997" y="273.63000000000005"/>
      <point x="223.79" y="308.6599999999999"/>
      <point x="288.00999999999993" y="333.04" type="curve"/>
      <point x="212.68" y="402.97" type="line"/>
      <point x="98.7" y="365.39"/>
      <point x="44.48999999999999" y="298.97"/>
      <point x="44.48999999999999" y="203.26999999999998" type="curve" smooth="yes"/>
      <point x="44.48999999999999" y="72.92999999999999"/>
      <point x="159.67" y="-10.0"/>
    </contour>
    <contour>
      <point x="713.84" y="113.6" type="line"/>
      <point x="770.62" y="168.92000000000002"/>
      <point x="806.83" y="237.13000000000002"/>
      <point x="806.83" y="315.68" type="curve" smooth="yes"/>
      <point x="806.83" y="337.13"/>
      <point x="804.4799999999999" y="350.71"/>
      <point x="801.2" y="367.9" type="curve"/>
      <point x="682.9100000000001" y="365.65" type="line"/>
      <point x="686.09" y="349.1"/>
      <point x="686.95" y="334.28999999999996"/>
      <point x="685.3199999999999" y="319.56000000000006" type="curve" smooth="yes"/>
      <point x="681.16" y="272.4599999999999"/>
      <point x="666.8000000000001" y="233.51000000000002"/>
      <point x="623.73" y="194.90999999999997" type="curve"/>
    </contour>
  </outline>
</glyph>
<glyph name="quotesingle" format="2">
  <advance width="226.195"/>
  <unicode hex="0027"/>
  <outline>
    <contour>
      <point x="53.499999999999986" y="427.0" type="line"/>
      <point x="172.2" y="427.0" type="line"/>
      <point x="179.78499999999997" y="700.0" type="line"/>
      <point x="46.40999999999999" y="700.0" type="line"/>
    </contour>
  </outline>
</glyph>
<glyph name="parenleft" format="2">
  <advance width="401.81"/>
  <unicode hex="0028"/>
  <outline>
    <contour>
      <point x="73.775" y="265.0" type="curve" smooth="yes"/>
      <point x="73.775" y="16.709999999999997"/>
      <point x="161.66499999999996" y="-191.375"/>
      <point x="374.47499999999997" y="-220.135" type="curve"/>
      <point x="374.47499999999997" y="-119.71" type="line"/>
      <point x="247.57499999999996" y="-82.25999999999999"/>
      <point x="199.315" y="49.845"/>
      <point x="199.315" y="265.0" type="curve" smooth="yes"/>
      <point x="199.315" y="480.155"/>
      <point x="247.57499999999996" y="612.26"/>
      <point x="374.47499999999997" y="649.7099999999999" type="curve"/>
      <point x="374.47499999999997" y="750.135" type="line"/>
      <point x="161.66499999999996" y="721.375"/>
      <point x="73.775" y="513.2900000000001"/>
    </contour>
  </outline>
</glyph>
<glyph name="parenright" format="2">
  <advance width="401.81"/>
  <unicode hex="0029"/>
  <outline>
    <contour>
      <point x="27.334999999999997" y="-119.71" type="curve"/>
      <point x="27.334999999999997" y="-220.135" type="line"/>
      <point x="240.145" y="-191.375"/>
      <point x="328.03499999999997" y="16.709999999999997"/>
      <point x="328.03499999999997" y="265.0" type="curve" smooth="yes"/>
      <point x="328.03499999999997" y="513.2900000000001"/>
      <point x="240.145" y="721.375"/>
      <point x="27.334999999999997" y="750.135" type="curve"/>
      <point x="27.334999999999997" y="649.7099999999999" type="line"/>
      <point x="154.235" y="612.26"/>
      <point x="202.49499999999998" y="480.155"/>
      <point x="202.49499999999998" y="265.0" type="curve" smooth="yes"/>
      <point x="202.49499999999998" y="49.845"/>
      <point x="154.235" y="-82.25999999999999"/>
    </contour>
  </outline>
</glyph>
<glyph name="asterisk" format="2">
  <advance width="419.9599999999999"/>
  <unicode hex="002A"/>
  <outline>
    <contour>
      <point x="118.60500000000002" y="330.88500000000005" type="line"/>
      <point x="210.295" y="444.215" type="line"/>
      <point x="300.725" y="330.57" type="line"/>
      <point x="354.30999999999995" y="367.755" type="line"/>
      <point x="277.07000000000005" y="493.11499999999995" type="line"/>
      <point x="409.485" y="547.075" type="line"/>
      <point x="388.97999999999996" y="608.245" type="line"/>
      <point x="251.73000000000002" y="572.8399999999999" type="line"/>
      <point x="244.14000000000001" y="718.015" type="line"/>
      <point x="176.45" y="718.015" type="line"/>
      <point x="168.85999999999999" y="572.8399999999999" type="line"/>
      <point x="30.980000000000004" y="608.245" type="line"/>
      <point x="10.475" y="547.075" type="line"/>
      <point x="143.51999999999998" y="493.11499999999995" type="line"/>
      <point x="64.70499999999998" y="368.38500000000005" type="line"/>
    </contour>
  </outline>
</glyph>
<glyph name="plus" format="2">
  <advance width="596.72"/>
  <unicode hex="002B"/>
  <outline>
    <contour>
      <point x="233.305" y="92.79" type="line"/>
      <point x="363.03" y="92.79" type="line"/>
      <point x="363.03" y="250.12500000000003" type="line"/>
      <point x="541.58" y="250.12500000000003" type="line"/>
      <point x="541.58" y="364.45000000000005" type="line"/>
      <point x="363.03" y="364.45000000000005" type="line"/>
      <point x="363.03" y="521.4" type="line"/>
      <point x="233.305" y="521.4" type="line"/>
      <point x="233.305" y="364.45000000000005" type="line"/>
      <point x="55.13999999999999" y="364.45000000000005" type="line"/>
      <point x="55.13999999999999" y="250.12500000000003" type="line"/>
      <point x="233.305" y="250.12500000000003" type="line"/>
    </contour>
  </outline>
</glyph>
<glyph name="comma" format="2">
  <advance width="264.91499999999996"/>
  <unicode hex="002C"/>
  <outline>
    <contour>
      <point x="63.66999999999999" y="74.46" type="line"/>
      <point x="69.525" y="50.22500000000001"/>
      <point x="72.33999999999999" y="25.725"/>
      <point x="72.33999999999999" y="5.570000000000004" type="curve" smooth="yes"/>
      <point x="72.33999999999999" y="-57.699999999999996"/>
      <point x="50.59" y="-125.8"/>
      <point x="-0.7050000000000036" y="-174.435" type="curve"/>
      <point x="114.23500000000001" y="-196.745" type="line"/>
      <point x="183.725" y="-141.40499999999997"/>
      <point x="216.97000000000003" y="-68.475"/>
      <point x="216.97000000000003" y="4.330000000000003" type="curve" smooth="yes"/>
      <point x="216.97000000000003" y="32.555"/>
      <point x="212.145" y="57.835"/>
      <point x="203.83" y="78.79000000000002" type="curve"/>
    </contour>
  </outline>
</glyph>
<glyph name="hyphen" format="2">
  <advance width="401.895"/>
  <unicode hex="002D"/>
  <outline>
    <contour>
      <point x="46.43" y="243.45" type="line"/>
      <point x="355.465" y="243.45" type="line"/>
      <point x="355.465" y="361.23999999999995" type="line"/>
      <point x="46.43" y="361.23999999999995" type="line"/>
    </contour>
  </outline>
</glyph>
<glyph name="period" format="2">
  <advance width="271.075"/>
  <unicode hex="002E"/>
  <outline>
    <contour>
      <point x="50.349999999999994" y="65.45500000000001" type="curve" smooth="yes"/>
      <point x="50.349999999999994" y="16.51"/>
      <point x="73.05999999999999" y="-5.390000000000001"/>
      <point x="135.695" y="-5.390000000000001" type="curve" smooth="yes"/>
      <point x="198.78" y="-5.390000000000001"/>
      <point x="221.04" y="16.51"/>
      <point x="221.04" y="65.45500000000001" type="curve" smooth="yes"/>
      <point x="221.04" y="114.95000000000002"/>
      <point x="198.78" y="136.85"/>
      <point x="135.695" y="136.85" type="curve" smooth="yes"/>
      <point x="72.61" y="136.85"/>
      <point x="50.349999999999994" y="114.95000000000002"/>
    </contour>
  </outline>
</glyph>
<glyph name="slash" format="2">
  <advance width="477.55499999999995"/>
  <unicode hex="002F"/>
  <outline>
    <contour>
      <point x="5.619999999999999" y="-210.0" type="line"/>
      <point x="126.32500000000002" y="-210.0" type="line"/>
      <point x="471.935" y="740.0" type="line"/>
      <point x="351.065" y="740.0" type="line"/>
    </contour>
  </outline>
</glyph>
<glyph name="zero" format="2">
  <advance width="833.01"/>
  <unicode hex="0030"/>
  <outline>
    <contour>
      <point x="36.98" y="350.0" type="curve" smooth="yes"/>
      <point x="36.98" y="71.61"/>
      <point x="207.135" y="-10.0"/>
      <point x="416.505" y="-10.0" type="curve" smooth="yes"/>
      <point x="626.01" y="-10.0"/>
      <point x="796.03" y="72.27000000000001"/>
      <point x="796.03" y="350.0" type="curve" smooth="yes"/>
      <point x="796.03" y="628.03"/>
      <point x="628.485" y="710.0"/>
      <point x="416.505" y="710.0" type="curve" smooth="yes"/>
      <point x="206.64" y="710.0"/>
      <point x="36.98" y="629.35"/>
    </contour>
    <contour>
      <point x="196.775" y="347.855" type="curve" smooth="yes"/>
      <point x="196.775" y="548.965"/>
      <point x="297.865" y="598.9900000000001"/>
      <point x="416.505" y="598.9900000000001" type="curve" smooth="yes"/>
      <point x="535.775" y="598.9900000000001"/>
      <point x="636.865" y="549.13"/>
      <point x="636.865" y="347.855" type="curve" smooth="yes"/>
      <point x="636.865" y="152.16"/>
      <point x="536.27" y="101.01000000000002"/>
      <point x="416.505" y="101.01000000000002" type="curve" smooth="yes"/>
      <point x="297.37" y="101.01000000000002"/>
      <point x="196.775" y="151.99499999999998"/>
    </contour>
  </outline>
</glyph>
<glyph name="one" format="2">
  <advance width="833.01"/>
  <unicode hex="0031"/>
  <outline>
    <contour>
      <point x="106.94500000000001" y="0.0" type="line"/>
      <point x="780.355" y="0.0" type="line"/>
      <point x="780.355" y="116.25" type="line"/>
      <point x="545.505" y="116.25" type="line"/>
      <point x="545.505" y="703.15" type="line"/>
      <point x="466.9" y="703.15" type="line"/>
      <point x="91.725" y="552.9449999999999" type="line"/>
      <point x="127.655" y="435.935" type="line"/>
      <point x="388.88499999999993" y="543.755" type="line"/>
      <point x="388.88499999999993" y="116.25" type="line"/>
      <point x="106.94500000000001" y="116.25" type="line"/>
    </contour>
  </outline>
</glyph>
<glyph name="two" format="2">
  <advance width="833.5699999999999"/>
  <unicode hex="0032"/>
  <outline>
    <contour>
      <point x="75.06" y="93.25999999999999" type="curve"/>
      <point x="78.22999999999999" y="0.0" type="line"/>
      <point x="767.98" y="0.0" type="line"/>
      <point x="767.98" y="116.7" type="line"/>
      <point x="335.31999999999994" y="116.7" type="line"/>
      <point x="618.2399999999998" y="292.25"/>
      <point x="693.66" y="363.24"/>
      <point x="693.66" y="488.48999999999995" type="curve" smooth="yes"/>
      <point x="693.66" y="621.38"/>
      <point x="587.6500000000001" y="710.0"/>
      <point x="388.55999999999995" y="710.0" type="curve" smooth="yes"/>
      <point x="286.18000000000006" y="710.0"/>
      <point x="168.53999999999994" y="681.98"/>
      <point x="88.77" y="637.99" type="curve"/>
      <point x="132.35999999999999" y="521.78" type="line"/>
      <point x="207.23999999999995" y="558.2500000000001"/>
      <point x="287.21000000000004" y="577.3500000000001"/>
      <point x="363.03999999999996" y="577.3500000000001" type="curve" smooth="yes"/>
      <point x="481.54999999999995" y="577.3500000000001"/>
      <point x="531.52" y="533.79"/>
      <point x="531.52" y="464.84000000000003" type="curve" smooth="yes"/>
      <point x="531.52" y="370.11"/>
      <point x="452.31" y="312.02000000000004"/>
    </contour>
  </outline>
</glyph>
<glyph name="three" format="2">
  <advance width="833.55"/>
  <unicode hex="0033"/>
  <outline>
    <contour>
      <point x="40.599999999999994" y="54.550000000000004" type="line"/>
      <point x="136.29999999999995" y="10.5"/>
      <point x="236.55" y="-9.5"/>
      <point x="376.7" y="-9.5" type="curve" smooth="yes"/>
      <point x="627.9499999999999" y="-9.5"/>
      <point x="763.4" y="69.35000000000001"/>
      <point x="763.4" y="207.55" type="curve" smooth="yes"/>
      <point x="763.4" y="292.15000000000003"/>
      <point x="701.55" y="350.40000000000003"/>
      <point x="588.0500000000001" y="368.3" type="curve"/>
      <point x="677.3000000000001" y="389.34999999999997"/>
      <point x="726.9999999999999" y="444.04999999999995"/>
      <point x="726.9999999999999" y="523.3999999999999" type="curve" smooth="yes"/>
      <point x="726.9999999999999" y="641.95"/>
      <point x="618.9" y="710.0"/>
      <point x="391.7" y="710.0" type="curve" smooth="yes"/>
      <point x="265.34999999999997" y="710.0"/>
      <point x="149.74999999999997" y="691.1000000000001"/>
      <point x="78.24999999999999" y="658.55" type="curve"/>
      <point x="106.69999999999999" y="546.05" type="line"/>
      <point x="185.35" y="575.1500000000001"/>
      <point x="275.55" y="588.3500000000001"/>
      <point x="364.79999999999995" y="588.3500000000001" type="curve" smooth="yes"/>
      <point x="503.95" y="588.3500000000001"/>
      <point x="573.9499999999999" y="555.35"/>
      <point x="573.9499999999999" y="497.65000000000003" type="curve" smooth="yes"/>
      <point x="573.9499999999999" y="440.9"/>
      <point x="516.75" y="409.75000000000006"/>
      <point x="384.8999999999999" y="409.75000000000006" type="curve" smooth="yes"/>
      <point x="222.84999999999997" y="409.75000000000006" type="line"/>
      <point x="222.84999999999997" y="306.30000000000007" type="line"/>
      <point x="368.3" y="306.30000000000007" type="line" smooth="yes"/>
      <point x="525.1999999999999" y="306.30000000000007"/>
      <point x="605.5" y="278.84999999999997"/>
      <point x="605.5" y="216.35" type="curve" smooth="yes"/>
      <point x="605.5" y="146.1"/>
      <point x="530.55" y="108.8"/>
      <point x="367.45" y="108.8" type="curve" smooth="yes"/>
      <point x="255.35000000000002" y="108.8"/>
      <point x="153.55" y="126.7"/>
      <point x="74.7" y="160.1" type="curve"/>
    </contour>
  </outline>
</glyph>
<glyph name="four" format="2">
  <advance width="833.5499999999998"/>
  <unicode hex="0034"/>
  <outline>
    <contour>
      <point x="25.349999999999994" y="138.45000000000002" type="line"/>
      <point x="491.1" y="138.45000000000002" type="line"/>
      <point x="491.1" y="0.0" type="line"/>
      <point x="648.3000000000002" y="0.0" type="line"/>
      <point x="648.3000000000002" y="138.45000000000002" type="line"/>
      <point x="795.1500000000001" y="138.45000000000002" type="line"/>
      <point x="795.1500000000001" y="244.9" type="line"/>
      <point x="648.3000000000002" y="244.9" type="line"/>
      <point x="648.3000000000002" y="700.0000000000001" type="line"/>
      <point x="534.4499999999999" y="703.6" type="line"/>
      <point x="23.550000000000008" y="239.45" type="line"/>
    </contour>
    <contour>
      <point x="180.7" y="244.9" type="line"/>
      <point x="492.75" y="524.8500000000001" type="line"/>
      <point x="492.75" y="244.9" type="line"/>
    </contour>
  </outline>
</glyph>
<glyph name="five" format="2">
  <advance width="833.55"/>
  <unicode hex="0035"/>
  <outline>
    <contour>
      <point x="51.615" y="51.285" type="line"/>
      <point x="146.64" y="9.61"/>
      <point x="242.99999999999997" y="-9.775"/>
      <point x="378.17" y="-9.775" type="curve" smooth="yes"/>
      <point x="619.885" y="-9.775"/>
      <point x="765.98" y="66.025"/>
      <point x="765.98" y="226.3" type="curve" smooth="yes"/>
      <point x="765.98" y="375.135"/>
      <point x="658.8399999999999" y="425.37500000000006"/>
      <point x="448.1199999999999" y="425.58500000000004" type="curve" smooth="yes"/>
      <point x="240.2" y="425.645" type="line"/>
      <point x="263.275" y="579.49" type="line"/>
      <point x="714.295" y="579.49" type="line"/>
      <point x="714.295" y="700.0" type="line"/>
      <point x="152.67" y="700.0" type="line"/>
      <point x="98.675" y="329.555" type="line"/>
      <point x="108.91" y="319.675" type="line"/>
      <point x="388.7899999999999" y="319.675" type="line" smooth="yes"/>
      <point x="565.54" y="319.675"/>
      <point x="610.49" y="286.97"/>
      <point x="610.49" y="220.425" type="curve" smooth="yes"/>
      <point x="610.49" y="147.81000000000003"/>
      <point x="542.44" y="108.67000000000002"/>
      <point x="369.83" y="108.67000000000002" type="curve" smooth="yes"/>
      <point x="246.05999999999997" y="108.67000000000002"/>
      <point x="157.14999999999998" y="129.085"/>
      <point x="85.945" y="158.26500000000001" type="curve"/>
    </contour>
  </outline>
</glyph>
<glyph name="six" format="2">
  <advance width="833.55"/>
  <unicode hex="0036"/>
  <outline>
    <contour>
      <point x="433.3999999999999" y="-10.0" type="curve" smooth="yes"/>
      <point x="666.2999999999998" y="-10.0"/>
      <point x="790.9500000000002" y="72.99999999999999"/>
      <point x="790.9500000000002" y="227.49999999999997" type="curve" smooth="yes"/>
      <point x="790.9500000000002" y="368.6"/>
      <point x="685.25" y="444.0"/>
      <point x="490.35" y="444.0" type="curve" smooth="yes"/>
      <point x="368.9" y="444.0"/>
      <point x="252.10000000000005" y="414.59999999999997"/>
      <point x="179.6" y="366.0" type="curve"/>
      <point x="183.2" y="261.0" type="line"/>
      <point x="254.5" y="300.6"/>
      <point x="348.79999999999995" y="333.70000000000005"/>
      <point x="441.0" y="333.70000000000005" type="curve" smooth="yes"/>
      <point x="566.05" y="333.70000000000005"/>
      <point x="636.8499999999999" y="298.65"/>
      <point x="636.8499999999999" y="224.5" type="curve" smooth="yes"/>
      <point x="636.8499999999999" y="146.70000000000002"/>
      <point x="568.2" y="104.60000000000001"/>
      <point x="446.85" y="104.60000000000001" type="curve" smooth="yes"/>
      <point x="281.85" y="104.60000000000001"/>
      <point x="199.20000000000002" y="172.45000000000002"/>
      <point x="199.20000000000002" y="343.75" type="curve" smooth="yes"/>
      <point x="199.20000000000002" y="511.05000000000007"/>
      <point x="287.5" y="589.0500000000001"/>
      <point x="487.74999999999994" y="589.0500000000001" type="curve" smooth="yes"/>
      <point x="582.25" y="589.0500000000001"/>
      <point x="650.0999999999998" y="576.9000000000001"/>
      <point x="733.35" y="556.0" type="curve"/>
      <point x="762.35" y="670.8500000000001" type="line"/>
      <point x="690.1999999999999" y="695.35"/>
      <point x="593.4999999999999" y="710.0"/>
      <point x="468.34999999999997" y="710.0" type="curve" smooth="yes"/>
      <point x="189.90000000000003" y="710.0"/>
      <point x="41.55" y="581.6"/>
      <point x="41.55" y="334.15000000000003" type="curve" smooth="yes"/>
      <point x="41.55" y="101.04999999999998"/>
      <point x="174.4" y="-10.0"/>
    </contour>
  </outline>
</glyph>
<glyph name="seven" format="2">
  <advance width="833.55"/>
  <unicode hex="0037"/>
  <outline>
    <contour>
      <point x="254.58" y="0.0" type="curve"/>
      <point x="415.02000000000004" y="0.0" type="line"/>
      <point x="418.28" y="118.95"/>
      <point x="463.19" y="214.45"/>
      <point x="559.8699999999999" y="340.09000000000003" type="curve" smooth="yes"/>
      <point x="763.9300000000001" y="604.33" type="line"/>
      <point x="763.9300000000001" y="700.0" type="line"/>
      <point x="75.94999999999999" y="700.0" type="line"/>
      <point x="75.94999999999999" y="573.6999999999999" type="line"/>
      <point x="574.1099999999998" y="573.6999999999999" type="line"/>
      <point x="408.28" y="368.03000000000003" type="line" smooth="yes"/>
      <point x="292.96" y="225.14"/>
      <point x="254.58" y="131.34"/>
    </contour>
  </outline>
</glyph>
<glyph name="eight" format="2">
  <advance width="833.5699999999999"/>
  <unicode hex="0038"/>
  <outline>
    <contour>
      <point x="510.7200000000001" y="390.6" type="curve"/>
      <point x="626.3999999999999" y="355.76" type="line"/>
      <point x="724.8599999999999" y="401.0"/>
      <point x="762.78" y="465.40999999999997"/>
      <point x="762.78" y="530.29" type="curve" smooth="yes"/>
      <point x="762.78" y="644.72"/>
      <point x="641.16" y="710.0"/>
      <point x="419.42999999999995" y="710.0" type="curve" smooth="yes"/>
      <point x="198.17" y="710.0"/>
      <point x="75.98999999999998" y="640.77"/>
      <point x="75.98999999999998" y="513.1299999999999" type="curve" smooth="yes"/>
      <point x="75.98999999999998" y="228.62"/>
      <point x="640.1699999999998" y="360.15"/>
      <point x="640.1699999999998" y="189.73000000000002" type="curve" smooth="yes"/>
      <point x="640.1699999999998" y="124.7"/>
      <point x="565.47" y="93.23"/>
      <point x="426.54" y="93.23" type="curve" smooth="yes"/>
      <point x="271.52" y="93.23"/>
      <point x="187.95999999999998" y="132.64"/>
      <point x="187.95999999999998" y="205.04999999999998" type="curve" smooth="yes"/>
      <point x="187.95999999999998" y="260.66999999999996"/>
      <point x="225.88000000000002" y="300.16999999999996"/>
      <point x="303.65" y="334.06" type="curve"/>
      <point x="196.23999999999998" y="384.46" type="line"/>
      <point x="83.04" y="343.11"/>
      <point x="29.439999999999998" y="273.93"/>
      <point x="29.439999999999998" y="194.74" type="curve" smooth="yes"/>
      <point x="29.439999999999998" y="62.7"/>
      <point x="162.04999999999995" y="-10.0"/>
      <point x="410.94000000000005" y="-10.0" type="curve" smooth="yes"/>
      <point x="673.02" y="-10.0"/>
      <point x="804.6" y="58.64"/>
      <point x="804.6" y="204.82" type="curve" smooth="yes"/>
      <point x="804.6" y="477.44000000000005"/>
      <point x="226.14000000000001" y="362.42999999999995"/>
      <point x="226.14000000000001" y="516.72" type="curve" smooth="yes"/>
      <point x="226.14000000000001" y="572.2400000000001"/>
      <point x="286.05" y="602.2400000000001"/>
      <point x="412.36999999999995" y="602.2400000000001" type="curve" smooth="yes"/>
      <point x="545.7" y="602.2400000000001"/>
      <point x="614.8499999999999" y="569.3000000000001"/>
      <point x="614.8499999999999" y="509.79" type="curve" smooth="yes"/>
      <point x="614.8499999999999" y="462.82000000000005"/>
      <point x="590.76" y="429.29999999999995"/>
    </contour>
  </outline>
</glyph>
<glyph name="nine" format="2">
  <advance width="833.55"/>
  <unicode hex="0039"/>
  <outline>
    <contour>
      <point x="366.4" y="-10.0" type="curve" smooth="yes"/>
      <point x="644.8499999999998" y="-10.0"/>
      <point x="788.1999999999999" y="116.15000000000002"/>
      <point x="788.1999999999999" y="360.25" type="curve" smooth="yes"/>
      <point x="788.1999999999999" y="596.7"/>
      <point x="661.35" y="710.0"/>
      <point x="408.1499999999999" y="710.0" type="curve" smooth="yes"/>
      <point x="171.2" y="710.0"/>
      <point x="38.699999999999996" y="627.3"/>
      <point x="38.699999999999996" y="472.4" type="curve" smooth="yes"/>
      <point x="38.699999999999996" y="330.74999999999994"/>
      <point x="146.59999999999997" y="256.04999999999995"/>
      <point x="337.8" y="256.04999999999995" type="curve" smooth="yes"/>
      <point x="461.04999999999995" y="256.04999999999995"/>
      <point x="577.4499999999999" y="281.49999999999994"/>
      <point x="650.1500000000001" y="330.4" type="curve"/>
      <point x="649.25" y="436.45" type="line"/>
      <point x="576.5999999999999" y="394.1000000000001"/>
      <point x="480.99999999999994" y="363.69999999999993"/>
      <point x="389.15" y="363.69999999999993" type="curve" smooth="yes"/>
      <point x="267.99999999999994" y="363.69999999999993"/>
      <point x="192.45000000000002" y="402.49999999999994"/>
      <point x="192.45000000000002" y="476.54999999999995" type="curve" smooth="yes"/>
      <point x="192.45000000000002" y="555.5500000000001"/>
      <point x="269.75" y="595.8500000000001"/>
      <point x="394.94999999999993" y="595.8500000000001" type="curve" smooth="yes"/>
      <point x="552.35" y="595.8500000000001"/>
      <point x="631.4499999999999" y="527.95"/>
      <point x="631.4499999999999" y="356.4" type="curve" smooth="yes"/>
      <point x="631.4499999999999" y="189.10000000000002"/>
      <point x="547.0" y="109.00000000000001"/>
      <point x="346.19999999999993" y="109.00000000000001" type="curve" smooth="yes"/>
      <point x="261.24999999999994" y="109.00000000000001"/>
      <point x="188.39999999999998" y="122.95000000000002"/>
      <point x="96.24999999999999" y="143.45" type="curve"/>
      <point x="67.35" y="30.500000000000004" type="line"/>
      <point x="148.49999999999997" y="5.550000000000001"/>
      <point x="250.24999999999997" y="-10.0"/>
    </contour>
  </outline>
</glyph>
<glyph name="less" format="2">
  <advance width="596.72"/>
  <unicode hex="003C"/>
  <outline>
    <contour>
      <point x="544.91" y="59.655" type="line"/>
      <point x="544.91" y="175.26000000000002" type="line"/>
      <point x="183.21" y="304.095" type="line"/>
      <point x="544.91" y="433.475" type="line"/>
      <point x="544.91" y="549.0999999999999" type="line"/>
      <point x="51.80999999999999" y="360.51500000000004" type="line"/>
      <point x="51.80999999999999" y="246.52" type="line"/>
    </contour>
  </outline>
</glyph>
<glyph name="equal" format="2">
  <advance width="593.42"/>
  <unicode hex="003D"/>
  <outline>
    <contour>
      <point x="538.28" y="248.58999999999997" type="line"/>
      <point x="55.13999999999999" y="248.58999999999997" type="line"/>
      <point x="55.13999999999999" y="134.265" type="line"/>
      <point x="538.28" y="134.265" type="line"/>
    </contour>
    <contour>
      <point x="538.28" y="475.555" type="line"/>
      <point x="55.13999999999999" y="475.555" type="line"/>
      <point x="55.13999999999999" y="361.23" type="line"/>
      <point x="538.28" y="361.23" type="line"/>
    </contour>
  </outline>
</glyph>
<glyph name="greater" format="2">
  <advance width="596.72"/>
  <unicode hex="003E"/>
  <outline>
    <contour>
      <point x="544.91" y="246.385" type="line"/>
      <point x="544.91" y="360.38" type="line"/>
      <point x="51.80999999999999" y="549.0999999999999" type="line"/>
      <point x="51.80999999999999" y="432.89" type="line"/>
      <point x="413.51" y="303.96" type="line"/>
      <point x="51.80999999999999" y="174.98999999999998" type="line"/>
      <point x="51.80999999999999" y="59.655" type="line"/>
    </contour>
  </outline>
</glyph>
<glyph name="question" format="2">
  <advance width="593.38"/>
  <unicode hex="003F"/>
  <outline>
    <contour>
      <point x="210.15499999999997" y="260.30499999999995" type="line"/>
      <point x="341.035" y="260.30499999999995" type="line"/>
      <point x="341.805" y="320.61" type="line"/>
      <point x="503.41" y="367.21500000000003"/>
      <point x="568.795" y="431.42499999999995"/>
      <point x="568.795" y="538.9499999999999" type="curve" smooth="yes"/>
      <point x="568.795" y="692.55"/>
      <point x="433.835" y="749.835"/>
      <point x="295.62499999999994" y="749.835" type="curve" smooth="yes"/>
      <point x="203.18" y="749.835"/>
      <point x="88.8" y="721.895"/>
      <point x="14.32" y="674.9100000000001" type="curve"/>
      <point x="55.28" y="565.02" type="line"/>
      <point x="126.895" y="604.415"/>
      <point x="203.7" y="625.03"/>
      <point x="271.20500000000004" y="625.03" type="curve" smooth="yes"/>
      <point x="344.92999999999995" y="625.03"/>
      <point x="409.51" y="598.47"/>
      <point x="409.51" y="527.9449999999999" type="curve" smooth="yes"/>
      <point x="409.51" y="473.77"/>
      <point x="375.37999999999994" y="431.595"/>
      <point x="206.8" y="390.55499999999995" type="curve"/>
    </contour>
    <contour>
      <point x="191.825" y="64.96" type="curve" smooth="yes"/>
      <point x="191.825" y="16.015"/>
      <point x="214.64" y="-5.885"/>
      <point x="277.305" y="-5.885" type="curve" smooth="yes"/>
      <point x="340.09000000000003" y="-5.885"/>
      <point x="362.65" y="16.015"/>
      <point x="362.65" y="64.96" type="curve" smooth="yes"/>
      <point x="362.65" y="114.45500000000001"/>
      <point x="340.09000000000003" y="136.35500000000002"/>
      <point x="277.305" y="136.35500000000002" type="curve" smooth="yes"/>
      <point x="214.05499999999998" y="136.35500000000002"/>
      <point x="191.825" y="114.45500000000001"/>
    </contour>
  </outline>
</glyph>
<glyph name="at" format="2">
  <advance width="990.8"/>
  <unicode hex="0040"/>
  <outline>
    <contour>
      <point x="465.25" y="-124.03000000000002" type="curve" smooth="yes"/>
      <point x="551.78" y="-124.03000000000002"/>
      <point x="642.4" y="-105.99000000000002"/>
      <point x="712.65" y="-81.03000000000002" type="curve"/>
      <point x="692.01" y="-8.910000000000002" type="line"/>
      <point x="630.7199999999999" y="-31.73999999999999"/>
      <point x="552.8199999999999" y="-47.27999999999998"/>
      <point x="476.14" y="-47.27999999999998" type="curve" smooth="yes"/>
      <point x="279.37999999999994" y="-47.27999999999998"/>
      <point x="133.66" y="34.739999999999995"/>
      <point x="133.66" y="266.24" type="curve" smooth="yes"/>
      <point x="133.66" y="473.96999999999997"/>
      <point x="265.73" y="636.38"/>
      <point x="506.36999999999995" y="636.38" type="curve" smooth="yes"/>
      <point x="743.62" y="636.38"/>
      <point x="861.59" y="526.7799999999999"/>
      <point x="861.59" y="333.26" type="curve" smooth="yes"/>
      <point x="861.59" y="208.69"/>
      <point x="819.73" y="137.35000000000002"/>
      <point x="772.38" y="137.70000000000002" type="curve" smooth="yes"/>
      <point x="736.22" y="137.70000000000002"/>
      <point x="713.06" y="164.02"/>
      <point x="718.5600000000001" y="242.23" type="curve" smooth="yes"/>
      <point x="736.44" y="492.46999999999997" type="line"/>
      <point x="670.2700000000001" y="514.6199999999999"/>
      <point x="589.61" y="529.3799999999999"/>
      <point x="525.31" y="529.3799999999999" type="curve" smooth="yes"/>
      <point x="345.96" y="529.3799999999999"/>
      <point x="245.26999999999998" y="413.6"/>
      <point x="245.26999999999998" y="261.25000000000006" type="curve" smooth="yes"/>
      <point x="245.26999999999998" y="129.91"/>
      <point x="313.49" y="60.209999999999994"/>
      <point x="418.47" y="60.209999999999994" type="curve" smooth="yes"/>
      <point x="503.63999999999993" y="60.209999999999994"/>
      <point x="570.1199999999999" y="111.81"/>
      <point x="607.3900000000001" y="188.84999999999994" type="curve"/>
      <point x="620.8599999999999" y="106.49999999999999"/>
      <point x="658.42" y="52.88999999999999"/>
      <point x="749.0799999999999" y="52.88999999999999" type="curve" smooth="yes"/>
      <point x="881.8499999999999" y="52.18999999999999"/>
      <point x="945.3799999999999" y="185.34"/>
      <point x="945.3799999999999" y="336.29999999999995" type="curve" smooth="yes"/>
      <point x="945.3799999999999" y="574.15"/>
      <point x="788.0899999999998" y="710.0"/>
      <point x="518.53" y="710.0" type="curve" smooth="yes"/>
      <point x="217.24999999999997" y="710.0"/>
      <point x="46.379999999999995" y="518.65"/>
      <point x="46.379999999999995" y="267.15000000000003" type="curve" smooth="yes"/>
      <point x="46.379999999999995" y="-13.759999999999996"/>
      <point x="220.90999999999997" y="-124.03000000000002"/>
    </contour>
    <contour>
      <point x="465.45" y="166.63000000000002" type="curve" smooth="yes"/>
      <point x="420.3999999999999" y="166.63000000000002"/>
      <point x="386.33" y="200.25000000000003"/>
      <point x="386.33" y="273.32" type="curve" smooth="yes"/>
      <point x="386.33" y="362.39000000000004"/>
      <point x="438.34" y="434.89"/>
      <point x="514.12" y="434.89" type="curve" smooth="yes"/>
      <point x="542.3199999999998" y="434.89"/>
      <point x="571.24" y="431.09999999999997"/>
      <point x="602.0300000000001" y="421.28999999999996" type="curve"/>
      <point x="591.7600000000001" y="307.77" type="line" smooth="yes"/>
      <point x="567.17" y="202.81"/>
      <point x="518.7" y="166.63000000000002"/>
    </contour>
  </outline>
</glyph>
<glyph name="A" format="2">
  <advance width="842.955"/>
  <unicode hex="0041"/>
  <anchor x="835.165" y="0.0" name="ogonek"/>
  <anchor x="415.59" y="0.0" name="bottom"/>
  <anchor x="422.45" y="700.0" name="top"/>
  <outline>
    <contour>
      <point x="8.42" y="0.0" type="line"/>
      <point x="179.60000000000002" y="0.0" type="line"/>
      <point x="245.54" y="149.5" type="line"/>
      <point x="586.25" y="149.5" type="line"/>
      <point x="653.015" y="0.0" type="line"/>
      <point x="835.165" y="0.0" type="line"/>
      <point x="508.185" y="704.5" type="line"/>
      <point x="334.215" y="704.5" type="line"/>
    </contour>
    <contour>
      <point x="287.47999999999996" y="269.165" type="line"/>
      <point x="416.36" y="577.73" type="line"/>
      <point x="544.3100000000001" y="269.165" type="line"/>
    </contour>
  </outline>
</glyph>
<glyph name="B" format="2">
  <advance width="860.78"/>
  <unicode hex="0042"/>
  <anchor x="428.62" y="700.0" name="top"/>
  <anchor x="428.62" y="0.0" name="bottom"/>
  <outline>
    <contour>
      <point x="83.30999999999999" y="3.6499999999999995" type="line"/>
      <point x="276.33" y="-7.999999999999998"/>
      <point x="312.7699999999999" y="-10.0"/>
      <point x="443.76" y="-10.0" type="curve" smooth="yes"/>
      <point x="728.64" y="-10.0"/>
      <point x="821.96" y="46.25"/>
      <point x="821.96" y="201.47" type="curve" smooth="yes"/>
      <point x="821.96" y="296.78"/>
      <point x="753.6299999999999" y="362.33"/>
      <point x="640.1400000000001" y="380.69" type="curve"/>
      <point x="640.1400000000001" y="382.69" type="line"/>
      <point x="729.1999999999999" y="408.87"/>
      <point x="772.27" y="462.25"/>
      <point x="772.27" y="542.3800000000001" type="curve" smooth="yes"/>
      <point x="772.27" y="664.09"/>
      <point x="683.78" y="710.0"/>
      <point x="437.01000000000005" y="710.0" type="curve" smooth="yes"/>
      <point x="344.65" y="710.0"/>
      <point x="240.60000000000002" y="705.9000000000001"/>
      <point x="83.30999999999999" y="695.9" type="curve"/>
    </contour>
    <contour>
      <point x="245.09000000000003" y="410.82" type="line"/>
      <point x="245.09000000000003" y="585.17" type="line"/>
      <point x="344.97999999999996" y="591.32"/>
      <point x="355.16999999999996" y="592.32"/>
      <point x="424.68999999999994" y="592.32" type="curve" smooth="yes"/>
      <point x="569.19" y="592.32"/>
      <point x="616.49" y="566.4100000000001"/>
      <point x="616.49" y="501.02" type="curve" smooth="yes"/>
      <point x="616.49" y="447.59000000000003"/>
      <point x="568.7" y="410.82"/>
      <point x="493.02" y="410.82" type="curve" smooth="yes"/>
    </contour>
    <contour>
      <point x="245.09000000000003" y="114.77000000000001" type="curve"/>
      <point x="245.09000000000003" y="300.97999999999996" type="line"/>
      <point x="494.30999999999995" y="300.97999999999996" type="line" smooth="yes"/>
      <point x="603.7900000000001" y="300.97999999999996"/>
      <point x="653.0899999999999" y="269.38"/>
      <point x="653.0899999999999" y="208.42000000000002" type="curve" smooth="yes"/>
      <point x="653.0899999999999" y="134.71"/>
      <point x="601.39" y="107.65"/>
      <point x="429.5899999999999" y="107.65" type="curve" smooth="yes"/>
      <point x="382.49" y="107.65"/>
      <point x="333.86999999999995" y="109.62000000000002"/>
    </contour>
  </outline>
</glyph>
<glyph name="C" format="2">
  <advance width="838.935"/>
  <unicode hex="0043"/>
  <anchor x="463.52" y="700.0" name="top"/>
  <anchor x="457.17" y="0.0" name="bottom"/>
  <outline>
    <contour>
      <point x="48.10499999999999" y="335.15999999999997" type="curve" smooth="yes"/>
      <point x="48.10499999999999" y="89.30499999999999"/>
      <point x="194.89999999999998" y="-10.0"/>
      <point x="465.87499999999994" y="-10.0" type="curve" smooth="yes"/>
      <point x="613.085" y="-10.0"/>
      <point x="710.48" y="7.364999999999999"/>
      <point x="799.4" y="33.045" type="curve"/>
      <point x="770.4599999999998" y="146.85" type="line"/>
      <point x="684.665" y="125.64999999999999"/>
      <point x="582.9849999999999" y="112.58000000000001"/>
      <point x="489.88" y="112.58000000000001" type="curve" smooth="yes"/>
      <point x="301.705" y="112.58000000000001"/>
      <point x="212.975" y="180.27499999999998"/>
      <point x="212.975" y="338.57" type="curve" smooth="yes"/>
      <point x="212.975" y="511.465"/>
      <point x="303.19" y="585.5249999999999"/>
      <point x="498.84999999999997" y="585.5249999999999" type="curve" smooth="yes"/>
      <point x="581.0849999999999" y="585.5249999999999"/>
      <point x="656.7299999999999" y="576.73"/>
      <point x="743.855" y="558.11" type="curve"/>
      <point x="775.93" y="675.3000000000001" type="line"/>
      <point x="684.74" y="700.215"/>
      <point x="612.9399999999999" y="710.0"/>
      <point x="488.48499999999996" y="710.0" type="curve" smooth="yes"/>
      <point x="201.40999999999997" y="710.0"/>
      <point x="48.10499999999999" y="594.2700000000001"/>
    </contour>
  </outline>
</glyph>
<glyph name="D" format="2">
  <advance width="912.6800000000001"/>
  <unicode hex="0044"/>
  <anchor x="451.14" y="700.0" name="top"/>
  <outline>
    <contour>
      <point x="437.09999999999997" y="-10.0" type="curve" smooth="yes"/>
      <point x="713.9900000000001" y="-10.0"/>
      <point x="864.4399999999999" y="106.24000000000001"/>
      <point x="864.4399999999999" y="346.09999999999997" type="curve" smooth="yes"/>
      <point x="864.4399999999999" y="598.5900000000001"/>
      <point x="727.9200000000001" y="710.0"/>
      <point x="419.74999999999994" y="710.0" type="curve" smooth="yes"/>
      <point x="306.12" y="710.0"/>
      <point x="207.83999999999997" y="707.0"/>
      <point x="83.30999999999999" y="699.94" type="curve"/>
      <point x="83.30999999999999" y="-0.9000000000000006" type="line"/>
      <point x="197.23" y="-4.99"/>
      <point x="308.7" y="-10.0"/>
    </contour>
    <contour>
      <point x="444.16999999999996" y="103.95000000000002" type="curve" smooth="yes"/>
      <point x="383.12" y="103.95000000000002"/>
      <point x="304.77000000000004" y="106.89000000000001"/>
      <point x="245.06" y="109.75999999999999" type="curve"/>
      <point x="245.06" y="590.7399999999999" type="line"/>
      <point x="300.34999999999997" y="594.1600000000001"/>
      <point x="375.54999999999995" y="596.06"/>
      <point x="433.95000000000005" y="596.06" type="curve" smooth="yes"/>
      <point x="611.33" y="596.06"/>
      <point x="698.9800000000001" y="521.6"/>
      <point x="698.9800000000001" y="346.64000000000004" type="curve" smooth="yes"/>
      <point x="698.9800000000001" y="182.09"/>
      <point x="605.35" y="103.95000000000002"/>
    </contour>
  </outline>
</glyph>
<glyph name="E" format="2">
  <advance width="792.06"/>
  <unicode hex="0045"/>
  <anchor x="754.9400000000002" y="0.0" name="ogonek"/>
  <anchor x="419.13" y="0.0" name="bottom"/>
  <anchor x="420.55999999999995" y="700.0" name="top"/>
  <outline>
    <contour>
      <point x="83.30999999999999" y="0.0" type="line"/>
      <point x="755.3900000000002" y="0.0" type="line"/>
      <point x="755.3900000000002" y="128.59" type="line"/>
      <point x="244.84" y="128.59" type="line"/>
      <point x="244.84" y="300.69" type="line"/>
      <point x="703.75" y="300.69" type="line"/>
      <point x="703.75" y="424.53" type="line"/>
      <point x="244.84" y="424.53" type="line"/>
      <point x="244.84" y="571.26" type="line"/>
      <point x="731.88" y="571.26" type="line"/>
      <point x="731.88" y="700.0" type="line"/>
      <point x="83.30999999999999" y="700.0" type="line"/>
    </contour>
  </outline>
</glyph>
<glyph name="F" format="2">
  <advance width="751.7099999999999"/>
  <unicode hex="0046"/>
  <outline>
    <contour>
      <point x="83.30999999999999" y="0.0" type="line"/>
      <point x="245.57000000000002" y="0.0" type="line"/>
      <point x="245.57000000000002" y="241.75999999999996" type="line"/>
      <point x="668.6800000000001" y="241.75999999999996" type="line"/>
      <point x="668.6800000000001" y="367.70000000000005" type="line"/>
      <point x="245.06" y="367.70000000000005" type="line"/>
      <point x="245.06" y="569.3100000000001" type="line"/>
      <point x="727.5500000000001" y="569.3100000000001" type="line"/>
      <point x="727.5500000000001" y="700.0" type="line"/>
      <point x="83.30999999999999" y="700.0" type="line"/>
    </contour>
  </outline>
</glyph>
<glyph name="G" format="2">
  <advance width="877.3199999999999"/>
  <unicode hex="0047"/>
  <anchor x="457.27500000000003" y="700.0" name="top"/>
  <anchor x="454.67499999999995" y="0.0" name="bottom"/>
  <outline>
    <contour>
      <point x="48.10499999999999" y="335.49" type="curve" smooth="yes"/>
      <point x="48.10499999999999" y="104.93999999999998"/>
      <point x="183.83499999999998" y="-10.0"/>
      <point x="448.185" y="-10.0" type="curve" smooth="yes"/>
      <point x="591.24" y="-10.0"/>
      <point x="716.16" y="9.405"/>
      <point x="812.66" y="48.25" type="curve"/>
      <point x="812.66" y="378.98" type="line"/>
      <point x="467.375" y="378.98" type="line"/>
      <point x="467.375" y="268.75" type="line"/>
      <point x="669.295" y="268.75" type="line"/>
      <point x="669.295" y="128.855" type="line"/>
      <point x="617.1099999999999" y="112.855"/>
      <point x="550.6049999999999" y="104.77000000000001"/>
      <point x="473.78499999999997" y="104.77000000000001" type="curve" smooth="yes"/>
      <point x="303.58" y="104.77000000000001"/>
      <point x="212.64500000000004" y="177.065"/>
      <point x="212.64500000000004" y="337.415" type="curve" smooth="yes"/>
      <point x="212.64500000000004" y="503.23"/>
      <point x="304.32500000000005" y="585.8549999999999"/>
      <point x="488.125" y="585.8549999999999" type="curve" smooth="yes"/>
      <point x="568.9449999999999" y="585.8549999999999"/>
      <point x="657.37" y="575.2799999999999"/>
      <point x="749.2699999999999" y="553.85" type="curve"/>
      <point x="779.5299999999999" y="670.74" type="line"/>
      <point x="684.51" y="698.0"/>
      <point x="597.23" y="710.0"/>
      <point x="478.58500000000004" y="710.0" type="curve" smooth="yes"/>
      <point x="195.17499999999998" y="710.0"/>
      <point x="48.10499999999999" y="582.165"/>
    </contour>
  </outline>
</glyph>
<glyph name="H" format="2">
  <advance width="932.6199999999999"/>
  <unicode hex="0048"/>
  <anchor x="466.55" y="700.0" name="top"/>
  <outline>
    <contour>
      <point x="83.03999999999999" y="0.0" type="line"/>
      <point x="244.115" y="0.0" type="line"/>
      <point x="244.115" y="249.49000000000004" type="line"/>
      <point x="688.505" y="249.49000000000004" type="line"/>
      <point x="688.505" y="0.0" type="line"/>
      <point x="849.58" y="0.0" type="line"/>
      <point x="849.58" y="700.0" type="line"/>
      <point x="688.505" y="700.0" type="line"/>
      <point x="688.505" y="381.28" type="line"/>
      <point x="244.115" y="381.28" type="line"/>
      <point x="244.115" y="700.0" type="line"/>
      <point x="83.03999999999999" y="700.0" type="line"/>
    </contour>
  </outline>
</glyph>
<glyph name="I" format="2">
  <advance width="327.155"/>
  <unicode hex="0049"/>
  <anchor x="244.115" y="0.0" name="ogonek"/>
  <anchor x="163.65999999999997" y="0.0" name="bottom"/>
  <anchor x="163.65999999999997" y="700.0" name="top"/>
  <outline>
    <contour>
      <point x="83.03999999999999" y="0.0" type="line"/>
      <point x="244.115" y="0.0" type="line"/>
      <point x="244.115" y="700.0" type="line"/>
      <point x="83.03999999999999" y="700.0" type="line"/>
    </contour>
  </outline>
</glyph>
<glyph name="J" format="2">
  <advance width="674.67"/>
  <unicode hex="004A"/>
  <anchor x="339.215" y="700.0" name="top"/>
  <outline>
    <contour>
      <point x="14.429999999999996" y="31.940000000000005" type="line"/>
      <point x="113.23999999999998" y="3.585"/>
      <point x="220.32499999999996" y="-10.315"/>
      <point x="310.315" y="-10.315" type="curve" smooth="yes"/>
      <point x="513.56" y="-10.315"/>
      <point x="604.7800000000001" y="73.91"/>
      <point x="604.7800000000001" y="254.34" type="curve" smooth="yes"/>
      <point x="604.7800000000001" y="700.0" type="line"/>
      <point x="76.61" y="700.0" type="line"/>
      <point x="76.61" y="571.4" type="line"/>
      <point x="443.7049999999999" y="571.4" type="line"/>
      <point x="443.7049999999999" y="278.68499999999995" type="line" smooth="yes"/>
      <point x="443.7049999999999" y="159.19"/>
      <point x="385.66999999999996" y="113.83000000000001"/>
      <point x="271.59499999999997" y="113.83000000000001" type="curve" smooth="yes"/>
      <point x="211.535" y="113.83000000000001"/>
      <point x="130.20499999999998" y="126.935"/>
      <point x="46.035000000000004" y="148.525" type="curve"/>
    </contour>
  </outline>
</glyph>
<glyph name="K" format="2">
  <advance width="865.1999999999999"/>
  <unicode hex="004B"/>
  <anchor x="431.24999999999994" y="700.0" name="top"/>
  <anchor x="426.8500000000001" y="0.0" name="bottom"/>
  <outline>
    <contour>
      <point x="815.25" y="-10.0" type="curve" smooth="yes"/>
      <point x="822.55" y="-10.0"/>
      <point x="831.3" y="-9.95"/>
      <point x="840.5499999999998" y="-8.45" type="curve"/>
      <point x="840.5499999999998" y="137.95000000000002" type="line"/>
      <point x="833.4" y="137.45000000000002"/>
      <point x="826.3000000000001" y="137.45000000000002"/>
      <point x="820.1499999999999" y="137.45000000000002" type="curve" smooth="yes"/>
      <point x="758.3000000000002" y="137.5"/>
      <point x="702.3499999999999" y="159.2"/>
      <point x="593.8999999999999" y="231.70000000000002" type="curve" smooth="yes"/>
      <point x="242.64999999999998" y="466.1000000000001" type="line"/>
      <point x="242.64999999999998" y="700.0" type="line"/>
      <point x="84.25" y="700.0" type="line"/>
      <point x="84.25" y="0.0" type="line"/>
      <point x="242.64999999999998" y="0.0" type="line"/>
      <point x="242.64999999999998" y="298.4" type="line"/>
      <point x="564.4999999999999" y="82.0" type="line" smooth="yes"/>
      <point x="664.3499999999999" y="15.049999999999999"/>
      <point x="740.8000000000001" y="-10.0"/>
    </contour>
    <contour>
      <point x="406.3" y="307.15" type="line"/>
      <point x="570.0999999999999" y="377.3"/>
      <point x="736.55" y="489.45000000000005"/>
      <point x="824.3999999999999" y="636.6500000000001" type="curve"/>
      <point x="706.85" y="709.65" type="line"/>
      <point x="603.6" y="554.95"/>
      <point x="427.54999999999995" y="441.3500000000001"/>
      <point x="297.75" y="376.55" type="curve"/>
    </contour>
  </outline>
</glyph>
<glyph name="L" format="2">
  <advance width="730.65"/>
  <unicode hex="004C"/>
  <anchor x="365.565" y="350.0" name="center"/>
  <anchor x="163.65999999999997" y="700.0" name="top"/>
  <anchor x="447.025" y="700.0" name="topright"/>
  <anchor x="391.515" y="0.0" name="bottom"/>
  <outline>
    <contour>
      <point x="83.03999999999999" y="0.0" type="line"/>
      <point x="705.85" y="0.0" type="line"/>
      <point x="705.85" y="130.635" type="line"/>
      <point x="244.28000000000003" y="130.635" type="line"/>
      <point x="244.28000000000003" y="700.0" type="line"/>
      <point x="83.03999999999999" y="700.0" type="line"/>
    </contour>
  </outline>
</glyph>
<glyph name="M" format="2">
  <advance width="1034.8949999999998"/>
  <unicode hex="004D"/>
  <outline>
    <contour>
      <point x="83.23999999999998" y="0.0" type="line"/>
      <point x="231.72000000000003" y="0.0" type="line"/>
      <point x="231.72000000000003" y="499.38999999999993" type="line"/>
      <point x="479.28" y="185.97499999999997" type="line"/>
      <point x="551.4849999999999" y="185.97499999999997" type="line"/>
      <point x="803.1749999999998" y="504.56" type="line"/>
      <point x="803.1749999999998" y="0.0" type="line"/>
      <point x="951.655" y="0.0" type="line"/>
      <point x="951.655" y="700.0" type="line"/>
      <point x="796.1999999999998" y="700.0" type="line"/>
      <point x="520.4199999999998" y="344.16499999999996" type="line"/>
      <point x="247.22000000000003" y="700.0" type="line"/>
      <point x="83.23999999999998" y="700.0" type="line"/>
    </contour>
  </outline>
</glyph>
<glyph name="N" format="2">
  <advance width="900.35"/>
  <unicode hex="004E"/>
  <anchor x="450.44999999999993" y="700.0" name="top"/>
  <anchor x="450.44999999999993" y="0.0" name="bottom"/>
  <outline>
    <contour>
      <point x="83.07499999999999" y="0.0" type="line"/>
      <point x="228.92499999999995" y="0.0" type="line"/>
      <point x="228.92499999999995" y="480.0" type="line"/>
      <point x="673.6999999999999" y="-0.9000000000000001" type="line"/>
      <point x="817.275" y="-0.9000000000000001" type="line"/>
      <point x="817.275" y="700.0" type="line"/>
      <point x="671.4749999999999" y="700.0" type="line"/>
      <point x="671.4749999999999" y="209.87500000000003" type="line"/>
      <point x="226.97500000000002" y="703.15" type="line"/>
      <point x="83.07499999999999" y="703.15" type="line"/>
    </contour>
  </outline>
</glyph>
<glyph name="O" format="2">
  <advance width="946.975"/>
  <unicode hex="004F"/>
  <anchor x="562.125" y="0.8250000000000011" name="ogonek"/>
  <anchor x="472.7749999999999" y="700.0" name="top"/>
  <anchor x="733.6750000000002" y="680.4250000000001" name="topright"/>
  <anchor x="473.5" y="0.0" name="bottom"/>
  <outline>
    <contour>
      <point x="473.04999999999995" y="104.00000000000001" type="curve" smooth="yes"/>
      <point x="335.52500000000003" y="104.00000000000001"/>
      <point x="212.52499999999998" y="159.45000000000002"/>
      <point x="212.52499999999998" y="350.325" type="curve" smooth="yes"/>
      <point x="212.52499999999998" y="544.4500000000002"/>
      <point x="333.70000000000005" y="596.9"/>
      <point x="473.04999999999995" y="596.9" type="curve" smooth="yes"/>
      <point x="615.3249999999999" y="596.9"/>
      <point x="733.8249999999999" y="541.6"/>
      <point x="733.8249999999999" y="350.59999999999997" type="curve" smooth="yes"/>
      <point x="733.8249999999999" y="159.90000000000003"/>
      <point x="614.95" y="104.00000000000001"/>
    </contour>
    <contour>
      <point x="473.5" y="-10.0" type="curve" smooth="yes"/>
      <point x="725.8249999999999" y="-10.0"/>
      <point x="898.2749999999999" y="80.32500000000002"/>
      <point x="898.2749999999999" y="353.725" type="curve" smooth="yes"/>
      <point x="898.2749999999999" y="617.2"/>
      <point x="730.9749999999999" y="710.0"/>
      <point x="473.04999999999995" y="710.0" type="curve" smooth="yes"/>
      <point x="213.62499999999994" y="710.0"/>
      <point x="48.699999999999996" y="615.8"/>
      <point x="48.699999999999996" y="351.325" type="curve" smooth="yes"/>
      <point x="48.699999999999996" y="85.44999999999999"/>
      <point x="222.60000000000002" y="-10.0"/>
    </contour>
  </outline>
</glyph>
<glyph name="P" format="2">
  <advance width="867.8249999999999"/>
  <unicode hex="0050"/>
  <outline>
    <contour>
      <point x="83.03999999999999" y="0.0" type="line"/>
      <point x="244.28000000000003" y="0.0" type="line"/>
      <point x="244.28000000000003" y="208.775" type="line"/>
      <point x="363.26500000000004" y="205.18"/>
      <point x="367.315" y="204.86499999999998"/>
      <point x="477.475" y="204.86499999999998" type="curve" smooth="yes"/>
      <point x="742.3949999999999" y="204.86499999999998"/>
      <point x="832.365" y="274.235"/>
      <point x="832.365" y="462.165" type="curve" smooth="yes"/>
      <point x="832.365" y="642.745"/>
      <point x="754.8299999999999" y="710.0"/>
      <point x="429.14" y="710.0" type="curve" smooth="yes"/>
      <point x="378.03499999999997" y="710.0"/>
      <point x="270.11499999999995" y="707.78"/>
      <point x="83.03999999999999" y="700.87" type="curve"/>
    </contour>
    <contour>
      <point x="244.44500000000002" y="588.9" type="line"/>
      <point x="356.43" y="593.8599999999999"/>
      <point x="388.66499999999996" y="594.625"/>
      <point x="441.65" y="594.625" type="curve" smooth="yes"/>
      <point x="623.76" y="594.625"/>
      <point x="668.43" y="555.13"/>
      <point x="668.43" y="463.355" type="curve" smooth="yes"/>
      <point x="668.43" y="359.56"/>
      <point x="628.265" y="321.16999999999996"/>
      <point x="417.88" y="321.16999999999996" type="curve" smooth="yes"/>
      <point x="356.31" y="321.16999999999996"/>
      <point x="321.95" y="322.5"/>
      <point x="244.44500000000002" y="325.45" type="curve"/>
    </contour>
  </outline>
</glyph>
<glyph name="Q" format="2">
  <advance width="947.14"/>
  <unicode hex="0051"/>
  <outline>
    <contour>
      <point x="628.26" y="26.620000000000005" type="curve"/>
      <point x="484.34999999999997" y="4.06" type="line"/>
      <point x="540.28" y="-129.9"/>
      <point x="615.02" y="-201.405"/>
      <point x="729.0749999999998" y="-201.405" type="curve" smooth="yes"/>
      <point x="766.6949999999999" y="-201.405"/>
      <point x="809.13" y="-194.23000000000002"/>
      <point x="853.2449999999999" y="-177.965" type="curve"/>
      <point x="834.525" y="-60.68499999999999" type="line"/>
      <point x="807.935" y="-71.71"/>
      <point x="781.9749999999999" y="-77.03"/>
      <point x="758.675" y="-77.03" type="curve" smooth="yes"/>
      <point x="701.635" y="-77.03"/>
      <point x="662.175" y="-40.155"/>
    </contour>
    <component base="O"/>
  </outline>
</glyph>
<glyph name="R" format="2">
  <advance width="896.15"/>
  <unicode hex="0052"/>
  <anchor x="442.84999999999997" y="700.0" name="top"/>
  <anchor x="452.7" y="0.0" name="bottom"/>
  <outline>
    <contour>
      <point x="842.75" y="-10.0" type="curve" smooth="yes"/>
      <point x="854.65" y="-10.0"/>
      <point x="865.6999999999999" y="-9.0"/>
      <point x="873.95" y="-7.95" type="curve"/>
      <point x="873.6" y="131.3" type="line"/>
      <point x="867.9999999999999" y="130.85000000000002"/>
      <point x="859.95" y="130.35"/>
      <point x="855.25" y="130.35" type="curve" smooth="yes"/>
      <point x="791.8" y="130.35"/>
      <point x="707.6500000000001" y="193.45"/>
      <point x="611.1500000000001" y="283.0" type="curve"/>
      <point x="739.5500000000001" y="308.55"/>
      <point x="821.1500000000001" y="363.4"/>
      <point x="821.1500000000001" y="497.25" type="curve" smooth="yes"/>
      <point x="821.1500000000001" y="652.5000000000001"/>
      <point x="716.45" y="709.95"/>
      <point x="420.90000000000003" y="709.95" type="curve" smooth="yes"/>
      <point x="336.3499999999999" y="709.95"/>
      <point x="233.95" y="707.3500000000001"/>
      <point x="84.25" y="700.8000000000001" type="curve"/>
      <point x="84.25" y="0.0" type="line"/>
      <point x="243.04999999999998" y="0.0" type="line"/>
      <point x="243.04999999999998" y="249.2" type="line"/>
      <point x="288.74999999999994" y="247.8"/>
      <point x="339.3999999999999" y="247.30000000000004"/>
      <point x="379.7" y="247.30000000000004" type="curve" smooth="yes"/>
      <point x="392.95" y="247.30000000000004"/>
      <point x="421.0" y="246.84999999999997"/>
      <point x="434.3000000000001" y="247.24999999999997" type="curve"/>
      <point x="581.3500000000001" y="94.64999999999999"/>
      <point x="723.0" y="-10.0"/>
    </contour>
    <contour>
      <point x="418.99999999999994" y="363.25" type="curve" smooth="yes"/>
      <point x="362.5" y="363.25"/>
      <point x="313.29999999999995" y="364.75"/>
      <point x="243.04999999999998" y="367.3" type="curve"/>
      <point x="243.04999999999998" y="593.35" type="line"/>
      <point x="328.49999999999994" y="597.8"/>
      <point x="353.2499999999999" y="597.8499999999999"/>
      <point x="427.94999999999993" y="597.8499999999999" type="curve" smooth="yes"/>
      <point x="602.7" y="597.8499999999999"/>
      <point x="657.7500000000001" y="567.3999999999999"/>
      <point x="657.7500000000001" y="478.54999999999995" type="curve" smooth="yes"/>
      <point x="657.7500000000001" y="389.59999999999997"/>
      <point x="598.9" y="363.25"/>
    </contour>
  </outline>
</glyph>
<glyph name="S" format="2">
  <advance width="805.0500000000001"/>
  <unicode hex="0053"/>
  <anchor x="407.4" y="700.0" name="top"/>
  <anchor x="397.56999999999994" y="0.0" name="bottom"/>
  <outline>
    <contour>
      <point x="724.4199999999998" y="671.4699999999999" type="line"/>
      <point x="669.1699999999998" y="685.5500000000001"/>
      <point x="549.1099999999999" y="710.0"/>
      <point x="418.45" y="710.0" type="curve" smooth="yes"/>
      <point x="168.24999999999997" y="710.0"/>
      <point x="48.75999999999999" y="637.9300000000001"/>
      <point x="48.75999999999999" y="500.17" type="curve" smooth="yes"/>
      <point x="48.75999999999999" y="380.34999999999997"/>
      <point x="144.0" y="328.15999999999997"/>
      <point x="305.06" y="296.31" type="curve" smooth="yes"/>
      <point x="495.23" y="261.94999999999993"/>
      <point x="605.09" y="250.15999999999994"/>
      <point x="605.09" y="187.89" type="curve" smooth="yes"/>
      <point x="605.09" y="131.88"/>
      <point x="539.63" y="105.16"/>
      <point x="401.65999999999997" y="105.16" type="curve" smooth="yes"/>
      <point x="283.76" y="105.16"/>
      <point x="137.33" y="132.77"/>
      <point x="50.559999999999995" y="160.54999999999998" type="curve"/>
      <point x="20.52" y="42.959999999999994" type="line"/>
      <point x="106.59000000000002" y="15.89"/>
      <point x="257.27" y="-10.0"/>
      <point x="384.61999999999995" y="-10.0" type="curve" smooth="yes"/>
      <point x="634.1999999999999" y="-10.0"/>
      <point x="772.7799999999999" y="57.16000000000001"/>
      <point x="772.7799999999999" y="202.05" type="curve" smooth="yes"/>
      <point x="772.7799999999999" y="327.68"/>
      <point x="668.2600000000001" y="374.94000000000005"/>
      <point x="480.34" y="407.0" type="curve" smooth="yes"/>
      <point x="302.4599999999999" y="436.95"/>
      <point x="216.05" y="450.04"/>
      <point x="216.05" y="512.33" type="curve" smooth="yes"/>
      <point x="216.05" y="566.5300000000001"/>
      <point x="284.22999999999996" y="594.23"/>
      <point x="410.81999999999994" y="594.23" type="curve" smooth="yes"/>
      <point x="520.46" y="594.23"/>
      <point x="645.16" y="571.43"/>
      <point x="696.03" y="555.2" type="curve"/>
    </contour>
  </outline>
</glyph>
<glyph name="T" format="2">
  <advance width="777.61"/>
  <unicode hex="0054"/>
  <anchor x="388.805" y="700.0" name="top"/>
  <anchor x="388.805" y="0.0" name="bottom"/>
  <outline>
    <contour>
      <point x="759.92" y="569.02" type="line"/>
      <point x="759.92" y="700.0" type="line"/>
      <point x="17.689999999999998" y="700.0" type="line"/>
      <point x="17.689999999999998" y="569.02" type="line"/>
      <point x="308.34999999999997" y="569.02" type="line"/>
      <point x="308.34999999999997" y="0.0" type="line"/>
      <point x="469.42499999999995" y="0.0" type="line"/>
      <point x="469.42499999999995" y="569.02" type="line"/>
    </contour>
  </outline>
</glyph>
<glyph name="U" format="2">
  <advance width="902.65"/>
  <unicode hex="0055"/>
  <anchor x="540.41" y="0.33000000000000007" name="ogonek"/>
  <anchor x="451.475" y="700.0" name="top"/>
  <anchor x="832.76" y="700.0" name="topright"/>
  <anchor x="451.475" y="0.0" name="bottom"/>
  <outline>
    <contour>
      <point x="69.89" y="256.42" type="line"/>
      <point x="69.89" y="59.5"/>
      <point x="222.80999999999997" y="-10.0"/>
      <point x="451.145" y="-10.0" type="curve" smooth="yes"/>
      <point x="680.635" y="-10.0"/>
      <point x="832.76" y="59.5"/>
      <point x="832.76" y="256.42" type="curve" smooth="yes"/>
      <point x="832.76" y="700.0" type="line"/>
      <point x="674.435" y="700.0" type="line"/>
      <point x="674.435" y="264.615" type="line" smooth="yes"/>
      <point x="674.435" y="147.035"/>
      <point x="573.835" y="109.93500000000002"/>
      <point x="452.29999999999995" y="109.93500000000002" type="curve" smooth="yes"/>
      <point x="333.625" y="109.93500000000002"/>
      <point x="227.88500000000005" y="143.57"/>
      <point x="227.88500000000005" y="264.615" type="curve" smooth="yes"/>
      <point x="227.88500000000005" y="700.0" type="line"/>
      <point x="69.89" y="700.0" type="line"/>
    </contour>
  </outline>
</glyph>
<glyph name="V" format="2">
  <advance width="834.9549999999999"/>
  <unicode hex="0056"/>
  <outline>
    <contour>
      <point x="331.735" y="0.0" type="line"/>
      <point x="504.825" y="0.0" type="line"/>
      <point x="832.4050000000001" y="698.425" type="line"/>
      <point x="658.71" y="702.36" type="line"/>
      <point x="419.04999999999995" y="139.3" type="line"/>
      <point x="177.5" y="702.36" type="line"/>
      <point x="2.5499999999999985" y="698.425" type="line"/>
    </contour>
  </outline>
</glyph>
<glyph name="W" format="2">
  <advance width="1068.85"/>
  <unicode hex="0057"/>
  <anchor x="534.2249999999999" y="700.0" name="top"/>
  <anchor x="534.2249999999999" y="0.0" name="bottom"/>
  <outline>
    <contour>
      <point x="858.6199999999999" y="0.0" type="line"/>
      <point x="1064.2599999999998" y="699.155" type="line"/>
      <point x="892.7949999999998" y="701.63" type="line"/>
      <point x="781.9099999999999" y="171.35500000000002" type="line"/>
      <point x="613.5349999999999" y="664.26" type="line"/>
      <point x="463.1499999999999" y="664.26" type="line"/>
      <point x="288.23" y="169.91500000000002" type="line"/>
      <point x="173.745" y="701.63" type="line"/>
      <point x="4.589999999999998" y="699.155" type="line"/>
      <point x="205.38" y="0.0" type="line"/>
      <point x="358.85" y="0.0" type="line"/>
      <point x="530.3449999999999" y="462.12500000000006" type="line"/>
      <point x="693.0649999999999" y="0.0" type="line"/>
    </contour>
  </outline>
</glyph>
<glyph name="X" format="2">
  <advance width="805.0399999999998"/>
  <unicode hex="0058"/>
  <outline>
    <contour>
      <point x="6.789999999999999" y="2.6799999999999997" type="line"/>
      <point x="192.51000000000002" y="-3.169999999999999" type="line"/>
      <point x="401.48" y="263.28999999999996" type="line"/>
      <point x="604.8499999999999" y="-3.169999999999999" type="line"/>
      <point x="796.4800000000001" y="2.6799999999999997" type="line"/>
      <point x="506.90000000000003" y="362.33000000000004" type="line"/>
      <point x="780.8299999999999" y="697.3199999999999" type="line"/>
      <point x="605.1800000000001" y="701.82" type="line"/>
      <point x="411.84" y="455.95" type="line"/>
      <point x="224.49" y="702.72" type="line"/>
      <point x="29.61" y="697.3199999999999" type="line"/>
      <point x="310.14" y="360.06" type="line"/>
    </contour>
  </outline>
</glyph>
<glyph name="Y" format="2">
  <advance width="825.4000000000001"/>
  <unicode hex="0059"/>
  <anchor x="412.835" y="700.0" name="top"/>
  <anchor x="414.905" y="0.0" name="bottom"/>
  <outline>
    <contour>
      <point x="334.41999999999996" y="0.0" type="line"/>
      <point x="495.49499999999995" y="0.0" type="line"/>
      <point x="495.49499999999995" y="262.45" type="line"/>
      <point x="822.645" y="697.0749999999999" type="line"/>
      <point x="646.2099999999999" y="702.9250000000001" type="line"/>
      <point x="415.81" y="354.81" type="line"/>
      <point x="180.19" y="702.9250000000001" type="line"/>
      <point x="2.214999999999999" y="697.0749999999999" type="line"/>
      <point x="334.41999999999996" y="262.45" type="line"/>
    </contour>
  </outline>
</glyph>
<glyph name="Z" format="2">
  <advance width="795.0000000000001"/>
  <unicode hex="005A"/>
  <anchor x="398.24999999999994" y="350.0" name="center"/>
  <anchor x="398.24999999999994" y="0.0" name="bottom"/>
  <anchor x="400.455" y="700.0" name="top"/>
  <outline>
    <contour>
      <point x="32.365" y="0.0" type="line"/>
      <point x="766.1449999999999" y="0.0" type="line"/>
      <point x="766.1449999999999" y="118.63500000000002" type="line"/>
      <point x="248.63" y="118.63500000000002" type="line"/>
      <point x="248.63" y="120.38000000000001" type="line"/>
      <point x="732.9699999999999" y="589.95" type="line"/>
      <point x="732.9699999999999" y="700.0" type="line"/>
      <point x="53.455" y="700.0" type="line"/>
      <point x="53.455" y="581.8149999999999" type="line"/>
      <point x="521.5250000000001" y="581.8149999999999" type="line"/>
      <point x="521.5250000000001" y="579.6199999999999" type="line"/>
      <point x="32.365" y="110.5" type="line"/>
    </contour>
  </outline>
</glyph>
<glyph name="bracketleft" format="2">
  <advance width="401.81"/>
  <unicode hex="005B"/>
  <outline>
    <contour>
      <point x="190.11999999999998" y="-115.75" type="line"/>
      <point x="190.11999999999998" y="645.75" type="line"/>
      <point x="370.56" y="645.75" type="line"/>
      <point x="370.56" y="740.0" type="line"/>
      <point x="70.625" y="740.0" type="line"/>
      <point x="70.625" y="-210.0" type="line"/>
      <point x="370.56" y="-210.0" type="line"/>
      <point x="370.56" y="-115.75" type="line"/>
    </contour>
  </outline>
</glyph>
<glyph name="backslash" format="2">
  <advance width="477.55499999999995"/>
  <unicode hex="005C"/>
  <outline>
    <contour>
      <point x="126.49000000000001" y="740.0" type="line"/>
      <point x="5.619999999999999" y="740.0" type="line"/>
      <point x="351.22999999999996" y="-210.0" type="line"/>
      <point x="471.935" y="-210.0" type="line"/>
    </contour>
  </outline>
</glyph>
<glyph name="bracketright" format="2">
  <advance width="401.81"/>
  <unicode hex="005D"/>
  <outline>
    <contour>
      <point x="31.25" y="-115.75" type="line"/>
      <point x="31.25" y="-210.0" type="line"/>
      <point x="331.185" y="-210.0" type="line"/>
      <point x="331.185" y="740.0" type="line"/>
      <point x="31.25" y="740.0" type="line"/>
      <point x="31.25" y="645.75" type="line"/>
      <point x="211.69" y="645.75" type="line"/>
      <point x="211.69" y="-115.75" type="line"/>
    </contour>
  </outline>
</glyph>
<glyph name="asciicircum" format="2">
  <advance width="596.72"/>
  <unicode hex="005E"/>
  <outline>
    <contour>
      <point x="47.62499999999999" y="242.30499999999995" type="line"/>
      <point x="168.805" y="242.30499999999995" type="line"/>
      <point x="298.36" y="550.805" type="line"/>
      <point x="428.465" y="242.30499999999995" type="line"/>
      <point x="549.095" y="242.30499999999995" type="line"/>
      <point x="363.745" y="704.5" type="line"/>
      <point x="232.97500000000002" y="704.5" type="line"/>
    </contour>
  </outline>
</glyph>
<glyph name="underscore" format="2">
  <advance width="900.77"/>
  <unicode hex="005F"/>
  <outline>
    <contour>
      <point x="11.0" y="-176.535" type="line"/>
      <point x="889.77" y="-176.535" type="line"/>
      <point x="889.77" y="-75.135" type="line"/>
      <point x="11.0" y="-75.135" type="line"/>
    </contour>
  </outline>
</glyph>
<glyph name="a" format="2">
  <advance width="692.5999999999999"/>
  <unicode hex="0061"/>
  <anchor x="670.1" y="8.000000000000002" name="ogonek"/>
  <anchor x="344.65" y="0.0" name="bottom"/>
  <anchor x="343.65" y="541.0" name="top"/>
  <outline>
    <contour>
      <point x="38.55" y="143.65" type="curve" smooth="yes"/>
      <point x="38.55" y="36.55"/>
      <point x="116.6" y="-10.0"/>
      <point x="213.95000000000002" y="-10.0" type="curve" smooth="yes"/>
      <point x="319.9" y="-10.0"/>
      <point x="397.75" y="21.200000000000003"/>
      <point x="466.0" y="70.0" type="curve"/>
      <point x="482.0" y="8.950000000000003"/>
      <point x="525.5999999999999" y="-10.0"/>
      <point x="589.6" y="-10.0" type="curve" smooth="yes"/>
      <point x="626.05" y="-10.0"/>
      <point x="659.8500000000001" y="-0.9499999999999991"/>
      <point x="686.6" y="16.1" type="curve"/>
      <point x="673.1999999999999" y="113.50000000000001" type="line"/>
      <point x="664.0000000000001" y="109.65"/>
      <point x="653.1499999999999" y="108.7"/>
      <point x="644.8" y="108.7" type="curve" smooth="yes"/>
      <point x="620.15" y="108.7"/>
      <point x="604.0" y="122.4"/>
      <point x="604.0" y="172.8" type="curve" smooth="yes"/>
      <point x="604.0" y="358.95" type="line" smooth="yes"/>
      <point x="604.0" y="489.6"/>
      <point x="511.54999999999995" y="551.0"/>
      <point x="317.99999999999994" y="551.0" type="curve" smooth="yes"/>
      <point x="239.75000000000006" y="551.0"/>
      <point x="152.39999999999998" y="537.5999999999999"/>
      <point x="76.94999999999999" y="517.9" type="curve"/>
      <point x="97.85" y="410.79999999999995" type="line"/>
      <point x="167.8" y="429.4"/>
      <point x="250.34999999999997" y="439.5"/>
      <point x="308.5999999999999" y="439.5" type="curve" smooth="yes"/>
      <point x="403.9" y="439.5"/>
      <point x="453.9" y="412.15"/>
      <point x="453.9" y="357.20000000000005" type="curve" smooth="yes"/>
      <point x="453.90000000000003" y="320.05" type="line"/>
      <point x="164.45" y="309.50000000000006"/>
      <point x="38.55" y="284.0"/>
    </contour>
    <contour>
      <point x="193.05" y="151.55" type="curve" smooth="yes"/>
      <point x="193.05" y="226.3"/>
      <point x="280.2499999999999" y="238.54999999999998"/>
      <point x="453.9" y="244.05" type="curve"/>
      <point x="453.9" y="147.5" type="line"/>
      <point x="403.24999999999994" y="106.65"/>
      <point x="320.65000000000003" y="82.45"/>
      <point x="271.45" y="82.45" type="curve" smooth="yes"/>
      <point x="222.5" y="82.45"/>
      <point x="193.05" y="104.85000000000001"/>
    </contour>
  </outline>
</glyph>
<glyph name="b" format="2">
  <advance width="731.9150000000001"/>
  <unicode hex="0062"/>
  <outline>
    <contour>
      <point x="68.925" y="19.145" type="line"/>
      <point x="178.67499999999998" y="-0.09500000000000064"/>
      <point x="272.075" y="-10.0"/>
      <point x="351.06" y="-10.0" type="curve" smooth="yes"/>
      <point x="586.4899999999999" y="-10.0"/>
      <point x="691.875" y="78.755"/>
      <point x="691.875" y="282.96" type="curve" smooth="yes"/>
      <point x="691.875" y="454.485"/>
      <point x="606.4749999999999" y="551.0"/>
      <point x="458.0" y="551.0" type="curve" smooth="yes"/>
      <point x="378.56" y="551.0"/>
      <point x="306.46000000000004" y="528.2299999999999"/>
      <point x="222.3" y="475.575" type="curve"/>
      <point x="222.3" y="740.0" type="line"/>
      <point x="68.925" y="740.0" type="line"/>
    </contour>
    <contour>
      <point x="222.3" y="108.225" type="curve"/>
      <point x="222.3" y="376.35" type="line"/>
      <point x="290.66499999999996" y="416.16"/>
      <point x="343.23499999999996" y="432.6"/>
      <point x="397.92499999999995" y="432.6" type="curve" smooth="yes"/>
      <point x="484.87" y="432.6"/>
      <point x="535.145" y="378.755"/>
      <point x="535.145" y="274.105" type="curve" smooth="yes"/>
      <point x="535.145" y="146.085"/>
      <point x="475.44000000000005" y="92.055"/>
      <point x="354.17999999999995" y="92.055" type="curve" smooth="yes"/>
      <point x="315.63" y="92.055"/>
      <point x="270.975" y="97.25"/>
    </contour>
  </outline>
</glyph>
<glyph name="c" format="2">
  <advance width="669.0350000000001"/>
  <unicode hex="0063"/>
  <anchor x="377.175" y="541.0" name="top"/>
  <anchor x="377.31" y="0.0" name="bottom"/>
  <outline>
    <contour>
      <point x="40.489999999999995" y="257.78" type="curve" smooth="yes"/>
      <point x="40.489999999999995" y="78.01999999999998"/>
      <point x="152.345" y="-10.0"/>
      <point x="374.635" y="-10.0" type="curve" smooth="yes"/>
      <point x="462.04499999999996" y="-10.0"/>
      <point x="561.4799999999999" y="2.2249999999999996"/>
      <point x="640.84" y="21.805000000000003" type="curve"/>
      <point x="620.935" y="121.29" type="line"/>
      <point x="545.385" y="106.31000000000002"/>
      <point x="474.55999999999995" y="97.715"/>
      <point x="405.14500000000004" y="97.715" type="curve" smooth="yes"/>
      <point x="272.835" y="97.715"/>
      <point x="195.42000000000002" y="137.905"/>
      <point x="195.42000000000002" y="262.295" type="curve" smooth="yes"/>
      <point x="195.42000000000002" y="395.265"/>
      <point x="268.90500000000003" y="441.645"/>
      <point x="397.85999999999996" y="441.645" type="curve" smooth="yes"/>
      <point x="459.22499999999997" y="441.645"/>
      <point x="537.1600000000001" y="432.92499999999995"/>
      <point x="608.9849999999999" y="418.85" type="curve"/>
      <point x="627.0" y="524.045" type="line"/>
      <point x="559.9" y="540.7500000000001"/>
      <point x="467.87" y="551.0"/>
      <point x="389.575" y="551.0" type="curve" smooth="yes"/>
      <point x="168.08499999999998" y="551.0"/>
      <point x="40.489999999999995" y="450.19"/>
    </contour>
  </outline>
</glyph>
<glyph name="d" format="2">
  <advance width="732.7800000000001"/>
  <unicode hex="0064"/>
  <anchor x="368.03000000000003" y="275.0" name="center"/>
  <anchor x="361.04999999999995" y="740.0" name="top"/>
  <anchor x="733.0300000000001" y="740.0" name="topright"/>
  <anchor x="368.03000000000003" y="0.0" name="bottom"/>
  <outline>
    <contour>
      <point x="532.56" y="-1.6300000000000001" type="line"/>
      <point x="664.08" y="-1.6300000000000001" type="line"/>
      <point x="664.08" y="740.0" type="line"/>
      <point x="510.00000000000006" y="740.0" type="line"/>
      <point x="510.00000000000006" y="540.2900000000001" type="line"/>
      <point x="464.74" y="547.2700000000001"/>
      <point x="416.6" y="551.0"/>
      <point x="373.49" y="551.0" type="curve" smooth="yes"/>
      <point x="146.03999999999996" y="551.0"/>
      <point x="40.129999999999995" y="458.51000000000005"/>
      <point x="40.129999999999995" y="259.57" type="curve" smooth="yes"/>
      <point x="40.129999999999995" y="88.31"/>
      <point x="126.02" y="-10.0"/>
      <point x="273.05999999999995" y="-10.0" type="curve" smooth="yes"/>
      <point x="354.0299999999999" y="-10.0"/>
      <point x="425.53" y="12.5"/>
      <point x="510.08000000000004" y="65.53" type="curve"/>
    </contour>
    <contour>
      <point x="509.48" y="163.93" type="line"/>
      <point x="441.7" y="125.29"/>
      <point x="388.61999999999995" y="108.4"/>
      <point x="334.5" y="108.4" type="curve" smooth="yes"/>
      <point x="247.66" y="108.4"/>
      <point x="197.52" y="162.8"/>
      <point x="197.52" y="269.52" type="curve" smooth="yes"/>
      <point x="197.52" y="395.14000000000004"/>
      <point x="256.90999999999997" y="447.90999999999997"/>
      <point x="377.68999999999994" y="447.90999999999997" type="curve" smooth="yes"/>
      <point x="417.05999999999995" y="447.90999999999997"/>
      <point x="460.94" y="443.03"/>
      <point x="509.48" y="431.83000000000004" type="curve"/>
    </contour>
  </outline>
</glyph>
<glyph name="e" format="2">
  <advance width="703.0400000000001"/>
  <unicode hex="0065"/>
  <anchor x="606.28" y="14.289999999999997" name="ogonek"/>
  <anchor x="361.74" y="0.0" name="bottom"/>
  <anchor x="365.87999999999994" y="541.0" name="top"/>
  <outline>
    <contour>
      <point x="365.53000000000003" y="-10.0" type="curve" smooth="yes"/>
      <point x="481.22999999999996" y="-10.0"/>
      <point x="577.32" y="4.039999999999999"/>
      <point x="657.9699999999999" y="25.609999999999996" type="curve"/>
      <point x="641.27" y="127.39000000000001" type="line"/>
      <point x="562.2099999999999" y="111.22"/>
      <point x="468.58000000000004" y="97.83"/>
      <point x="386.34" y="97.83" type="curve" smooth="yes"/>
      <point x="264.87" y="97.83"/>
      <point x="197.35" y="135.46"/>
      <point x="197.21" y="217.62" type="curve" smooth="yes"/>
      <point x="197.21" y="223.63"/>
      <point x="197.21" y="228.19000000000003"/>
      <point x="198.10999999999999" y="234.2" type="curve"/>
      <point x="411.22" y="236.44000000000005"/>
      <point x="582.4399999999999" y="249.15999999999997"/>
      <point x="660.42" y="253.77" type="curve"/>
      <point x="661.4899999999999" y="272.83000000000004"/>
      <point x="661.9699999999999" y="294.19999999999993"/>
      <point x="661.9699999999999" y="305.74" type="curve" smooth="yes"/>
      <point x="661.9699999999999" y="476.71999999999997"/>
      <point x="569.6299999999999" y="551.0"/>
      <point x="378.15" y="551.0" type="curve" smooth="yes"/>
      <point x="194.54999999999995" y="551.0"/>
      <point x="40.129999999999995" y="468.31999999999994"/>
      <point x="40.129999999999995" y="255.37" type="curve" smooth="yes"/>
      <point x="40.129999999999995" y="72.33999999999999"/>
      <point x="161.12" y="-10.0"/>
    </contour>
    <contour>
      <point x="199.53" y="324.49000000000007" type="curve"/>
      <point x="216.4" y="422.58"/>
      <point x="294.5999999999999" y="452.09000000000003"/>
      <point x="369.63000000000005" y="452.09000000000003" type="curve" smooth="yes"/>
      <point x="463.12" y="452.09000000000003"/>
      <point x="504.8899999999999" y="415.34"/>
      <point x="508.15" y="335.25" type="curve"/>
      <point x="465.9599999999999" y="332.38"/>
      <point x="339.25" y="325.53000000000003"/>
    </contour>
  </outline>
</glyph>
<glyph name="f" format="2">
  <advance width="495.03"/>
  <unicode hex="0066"/>
  <outline>
    <contour>
      <point x="121.21000000000001" y="0.0" type="line"/>
      <point x="272.385" y="0.0" type="line"/>
      <point x="272.385" y="388.895" type="line"/>
      <point x="473.69999999999993" y="388.895" type="line"/>
      <point x="473.69999999999993" y="491.425" type="line"/>
      <point x="272.55" y="491.425" type="line"/>
      <point x="272.55" y="506.33" type="line" smooth="yes"/>
      <point x="272.55" y="601.6450000000001"/>
      <point x="317.18" y="639.04"/>
      <point x="398.62499999999994" y="639.04" type="curve" smooth="yes"/>
      <point x="439.84" y="639.04"/>
      <point x="486.62" y="631.715"/>
      <point x="529.6599999999999" y="619.655" type="curve"/>
      <point x="548.5500000000001" y="721.17" type="line"/>
      <point x="486.385" y="741.27"/>
      <point x="427.535" y="750.315"/>
      <point x="365.465" y="750.315" type="curve" smooth="yes"/>
      <point x="210.01" y="750.315"/>
      <point x="121.21000000000001" y="672.76"/>
      <point x="121.21000000000001" y="508.97" type="curve" smooth="yes"/>
      <point x="121.21000000000001" y="491.425" type="line"/>
      <point x="21.874999999999996" y="480.185" type="line"/>
      <point x="21.874999999999996" y="388.895" type="line"/>
      <point x="121.21000000000001" y="388.895" type="line"/>
    </contour>
  </outline>
</glyph>
<glyph name="g" format="2">
  <advance width="726.1600000000001"/>
  <unicode hex="0067"/>
  <anchor x="351.21999999999997" y="541.0" name="top"/>
  <anchor x="342.07" y="-217.0" name="bottom"/>
  <outline>
    <contour>
      <point x="320.64" y="-220.0" type="curve" smooth="yes"/>
      <point x="585.3999999999999" y="-220.0"/>
      <point x="703.58" y="-149.79"/>
      <point x="703.58" y="-23.349999999999994" type="curve" smooth="yes"/>
      <point x="703.58" y="65.44"/>
      <point x="642.4" y="118.54"/>
      <point x="523.7799999999999" y="118.54" type="curve" smooth="yes"/>
      <point x="262.59000000000003" y="118.54" type="line" smooth="yes"/>
      <point x="205.20999999999998" y="118.54"/>
      <point x="177.01" y="134.95000000000002"/>
      <point x="177.01" y="167.15" type="curve" smooth="yes"/>
      <point x="177.01" y="194.32999999999998"/>
      <point x="197.45" y="211.09"/>
      <point x="232.21" y="226.28" type="curve"/>
      <point x="151.64" y="250.64999999999995" type="line"/>
      <point x="88.6" y="223.25"/>
      <point x="52.56" y="185.27"/>
      <point x="52.56" y="128.36" type="curve" smooth="yes"/>
      <point x="52.56" y="37.89999999999999"/>
      <point x="138.31999999999996" y="3.129999999999997"/>
      <point x="273.12999999999994" y="3.129999999999997" type="curve" smooth="yes"/>
      <point x="467.7099999999999" y="3.129999999999997" type="line" smooth="yes"/>
      <point x="532.28" y="3.129999999999997"/>
      <point x="556.73" y="-7.790000000000004"/>
      <point x="556.73" y="-42.120000000000005" type="curve" smooth="yes"/>
      <point x="556.73" y="-91.78"/>
      <point x="493.94" y="-123.32"/>
      <point x="336.42" y="-123.32" type="curve" smooth="yes"/>
      <point x="199.01000000000002" y="-123.32"/>
      <point x="146.56" y="-98.49"/>
      <point x="146.56" y="-48.57" type="curve" smooth="yes"/>
      <point x="146.56" y="-17.189999999999998"/>
      <point x="162.01999999999998" y="5.359999999999998"/>
      <point x="216.58" y="20.749999999999996" type="curve"/>
      <point x="133.37999999999997" y="48.089999999999996" type="line"/>
      <point x="39.7" y="20.999999999999996"/>
      <point x="18.209999999999997" y="-24.98"/>
      <point x="18.209999999999997" y="-77.92" type="curve" smooth="yes"/>
      <point x="18.209999999999997" y="-172.55"/>
      <point x="117.93" y="-220.0"/>
    </contour>
    <contour>
      <point x="349.0" y="196.81999999999996" type="curve" smooth="yes"/>
      <point x="540.2399999999999" y="196.81999999999996"/>
      <point x="633.8599999999999" y="257.13"/>
      <point x="633.8599999999999" y="374.16999999999996" type="curve" smooth="yes"/>
      <point x="633.8599999999999" y="491.21"/>
      <point x="540.2399999999999" y="551.5200000000001"/>
      <point x="349.0" y="551.5200000000001" type="curve" smooth="yes"/>
      <point x="157.76" y="551.5200000000001"/>
      <point x="64.59" y="491.21"/>
      <point x="64.59" y="374.16999999999996" type="curve" smooth="yes"/>
      <point x="64.59" y="257.13"/>
      <point x="157.76" y="196.81999999999996"/>
    </contour>
    <contour>
      <point x="349.0" y="287.15000000000003" type="curve" smooth="yes"/>
      <point x="252.15" y="287.15000000000003"/>
      <point x="209.19" y="313.34"/>
      <point x="209.19" y="374.16999999999996" type="curve" smooth="yes"/>
      <point x="209.19" y="435.45"/>
      <point x="252.15" y="461.64"/>
      <point x="349.0" y="461.64" type="curve" smooth="yes"/>
      <point x="445.84999999999997" y="461.64"/>
      <point x="488.80999999999995" y="435.45"/>
      <point x="488.80999999999995" y="374.16999999999996" type="curve" smooth="yes"/>
      <point x="488.80999999999995" y="313.34"/>
      <point x="445.84999999999997" y="287.15000000000003"/>
    </contour>
    <contour>
      <point x="579.1" y="442.60999999999996" type="line"/>
      <point x="593.1999999999999" y="466.74"/>
      <point x="616.9399999999999" y="477.15"/>
      <point x="650.4699999999999" y="477.15" type="curve" smooth="yes"/>
      <point x="666.0099999999999" y="477.15"/>
      <point x="682.8199999999999" y="476.04999999999995"/>
      <point x="697.8199999999999" y="472.56" type="curve"/>
      <point x="712.4200000000002" y="577.0899999999999" type="line"/>
      <point x="693.58" y="580.7199999999999"/>
      <point x="677.0500000000001" y="582.32"/>
      <point x="656.46" y="582.32" type="curve" smooth="yes"/>
      <point x="583.2" y="582.32"/>
      <point x="535.48" y="555.3100000000001"/>
      <point x="518.0999999999999" y="501.42999999999995" type="curve"/>
    </contour>
  </outline>
</glyph>
<glyph name="h" format="2">
  <advance width="728.9949999999999"/>
  <unicode hex="0068"/>
  <anchor x="360.53499999999997" y="395.0" name="center"/>
  <anchor x="364.385" y="0.0" name="bottom"/>
  <anchor x="365.61999999999995" y="740.0" name="top"/>
  <outline>
    <contour>
      <point x="68.7" y="0.0" type="line"/>
      <point x="222.75" y="0.0" type="line"/>
      <point x="222.75" y="384.84" type="line"/>
      <point x="285.87499999999994" y="412.9"/>
      <point x="334.345" y="431.815"/>
      <point x="395.98499999999996" y="431.815" type="curve" smooth="yes"/>
      <point x="468.9899999999999" y="431.815"/>
      <point x="506.27500000000003" y="394.835"/>
      <point x="506.27500000000003" y="320.03499999999997" type="curve" smooth="yes"/>
      <point x="506.27500000000003" y="0.0" type="line"/>
      <point x="660.355" y="0.0" type="line"/>
      <point x="660.355" y="370.04499999999996" type="line" smooth="yes"/>
      <point x="660.355" y="479.47999999999996"/>
      <point x="593.56" y="551.0"/>
      <point x="458.1" y="551.0" type="curve" smooth="yes"/>
      <point x="370.46000000000004" y="551.0"/>
      <point x="305.71999999999997" y="526.1049999999999"/>
      <point x="222.75" y="483.61500000000007" type="curve"/>
      <point x="222.75" y="740.0" type="line"/>
      <point x="68.7" y="740.0" type="line"/>
    </contour>
  </outline>
</glyph>
<glyph name="i" format="2">
  <advance width="291.225"/>
  <unicode hex="0069"/>
  <anchor x="221.985" y="0.0" name="ogonek"/>
  <anchor x="145.695" y="0.0" name="bottom"/>
  <outline>
    <contour>
      <point x="145.695" y="617.985" type="curve" smooth="yes"/>
      <point x="213.235" y="617.985"/>
      <point x="238.41000000000003" y="639.17"/>
      <point x="238.41000000000003" y="686.135" type="curve" smooth="yes"/>
      <point x="238.41000000000003" y="733.4300000000001"/>
      <point x="212.90500000000003" y="754.45"/>
      <point x="145.695" y="754.45" type="curve" smooth="yes"/>
      <point x="78.32" y="754.45"/>
      <point x="52.815" y="733.4300000000001"/>
      <point x="52.815" y="686.135" type="curve" smooth="yes"/>
      <point x="52.815" y="639.005"/>
      <point x="78.77" y="617.985"/>
    </contour>
    <contour>
      <point x="68.925" y="0.0" type="line"/>
      <point x="222.3" y="0.0" type="line"/>
      <point x="222.3" y="541.0" type="line"/>
      <point x="68.925" y="541.0" type="line"/>
    </contour>
  </outline>
</glyph>
<glyph name="j" format="2">
  <advance width="302.5"/>
  <unicode hex="006A"/>
  <outline>
    <contour>
      <point x="233.89000000000001" y="541.0" type="line"/>
      <point x="80.51499999999999" y="541.0" type="line"/>
      <point x="80.51499999999999" y="42.49" type="line" smooth="yes"/>
      <point x="80.51499999999999" y="-35.31499999999999"/>
      <point x="57.12499999999999" y="-72.99000000000001"/>
      <point x="6.029999999999998" y="-87.39" type="curve" smooth="yes"/>
      <point x="-1.7000000000000028" y="-89.95499999999998"/>
      <point x="-9.100000000000003" y="-91.57499999999999"/>
      <point x="-17.775" y="-92.41499999999999" type="curve"/>
      <point x="-21.715000000000003" y="-209.21" type="line"/>
      <point x="0.6349999999999953" y="-210.025"/>
      <point x="32.584999999999994" y="-209.47"/>
      <point x="52.795" y="-206.77" type="curve" smooth="yes"/>
      <point x="179.28000000000003" y="-190.75"/>
      <point x="233.89000000000001" y="-108.48000000000002"/>
      <point x="233.89000000000001" y="37.155" type="curve" smooth="yes"/>
    </contour>
    <contour>
      <point x="156.655" y="617.985" type="curve" smooth="yes"/>
      <point x="224.06" y="617.985"/>
      <point x="249.37" y="639.17"/>
      <point x="249.37" y="686.135" type="curve" smooth="yes"/>
      <point x="249.37" y="733.4300000000001"/>
      <point x="223.73000000000002" y="754.45"/>
      <point x="156.655" y="754.45" type="curve" smooth="yes"/>
      <point x="89.28" y="754.45"/>
      <point x="63.775" y="733.4300000000001"/>
      <point x="63.775" y="686.135" type="curve" smooth="yes"/>
      <point x="63.775" y="639.005"/>
      <point x="89.73" y="617.985"/>
    </contour>
  </outline>
</glyph>
<glyph name="k" format="2">
  <advance width="691.1999999999999"/>
  <unicode hex="006B"/>
  <anchor x="142.6" y="740.0" name="top"/>
  <anchor x="355.85" y="0.0" name="bottom"/>
  <outline>
    <contour>
      <point x="635.95" y="-9.65" type="curve" smooth="yes"/>
      <point x="651.65" y="-9.65"/>
      <point x="661.9499999999999" y="-9.1"/>
      <point x="671.45" y="-7.549999999999999" type="curve"/>
      <point x="669.5999999999999" y="133.95" type="line"/>
      <point x="662.55" y="133.45000000000002"/>
      <point x="656.1" y="133.0"/>
      <point x="650.45" y="133.0" type="curve" smooth="yes"/>
      <point x="608.4499999999998" y="133.0"/>
      <point x="558.65" y="155.95000000000002"/>
      <point x="432.5499999999999" y="248.65" type="curve" smooth="yes"/>
      <point x="215.15" y="408.5" type="line"/>
      <point x="215.15" y="740.0" type="line"/>
      <point x="69.6" y="740.0" type="line"/>
      <point x="69.6" y="0.0" type="line"/>
      <point x="215.15" y="0.0" type="line"/>
      <point x="215.15" y="244.04999999999993" type="line"/>
      <point x="408.3" y="102.0" type="line" smooth="yes"/>
      <point x="542.9" y="2.250000000000001"/>
      <point x="586.3" y="-9.65"/>
    </contour>
    <contour>
      <point x="357.8" y="250.65" type="line"/>
      <point x="455.8" y="315.3"/>
      <point x="598.0" y="419.2"/>
      <point x="648.4000000000001" y="540.4000000000001" type="curve"/>
      <point x="488.95" y="550.5" type="line"/>
      <point x="447.9500000000001" y="452.9"/>
      <point x="349.3" y="380.0"/>
      <point x="218.29999999999993" y="290.40000000000003" type="curve"/>
    </contour>
  </outline>
</glyph>
<glyph name="l" format="2">
  <advance width="372.305"/>
  <unicode hex="006C"/>
  <anchor x="186.075" y="395.0" name="center"/>
  <anchor x="145.695" y="740.0" name="top"/>
  <anchor x="291.475" y="740.0" name="topright"/>
  <anchor x="217.325" y="0.0" name="bottom"/>
  <outline>
    <contour>
      <point x="222.3" y="740.0" type="line"/>
      <point x="68.925" y="740.0" type="line"/>
      <point x="68.925" y="183.445" type="line" smooth="yes"/>
      <point x="68.925" y="34.45"/>
      <point x="133.905" y="-10.0"/>
      <point x="245.995" y="-10.0" type="curve" smooth="yes"/>
      <point x="295.965" y="-10.0"/>
      <point x="338.435" y="0.1750000000000005"/>
      <point x="374.37" y="13.75" type="curve"/>
      <point x="357.83000000000004" y="122.935" type="line"/>
      <point x="332.54499999999996" y="115.79500000000002"/>
      <point x="310.07" y="111.36500000000001"/>
      <point x="290.435" y="111.36500000000001" type="curve" smooth="yes"/>
      <point x="251.28" y="111.36500000000001"/>
      <point x="222.3" y="124.53500000000001"/>
      <point x="222.3" y="193.29" type="curve" smooth="yes"/>
    </contour>
  </outline>
</glyph>
<glyph name="m" format="2">
  <advance width="1090.315"/>
  <unicode hex="006D"/>
  <outline>
    <contour>
      <point x="68.925" y="0.0" type="line"/>
      <point x="222.465" y="0.0" type="line"/>
      <point x="222.465" y="383.355" type="line"/>
      <point x="273.04" y="411.11"/>
      <point x="315.195" y="428.99"/>
      <point x="369.07499999999993" y="428.99" type="curve" smooth="yes"/>
      <point x="450.655" y="428.99"/>
      <point x="469.34" y="370.73"/>
      <point x="469.34" y="318.685" type="curve" smooth="yes"/>
      <point x="469.34" y="0.0" type="line"/>
      <point x="622.88" y="0.0" type="line"/>
      <point x="622.88" y="333.09499999999997" type="line" smooth="yes"/>
      <point x="622.88" y="348.57"/>
      <point x="621.8449999999999" y="367.205"/>
      <point x="617.32" y="385.2" type="curve"/>
      <point x="657.995" y="406.21000000000004"/>
      <point x="707.5699999999999" y="430.95000000000005"/>
      <point x="768.195" y="430.95000000000005" type="curve" smooth="yes"/>
      <point x="850.6499999999999" y="430.95000000000005"/>
      <point x="868.18" y="372.76"/>
      <point x="868.18" y="319.945" type="curve" smooth="yes"/>
      <point x="868.18" y="0.0" type="line"/>
      <point x="1021.7199999999999" y="0.0" type="line"/>
      <point x="1021.7199999999999" y="370.59999999999997" type="line" smooth="yes"/>
      <point x="1021.7199999999999" y="461.36"/>
      <point x="970.9" y="551.0"/>
      <point x="838.7149999999999" y="551.0" type="curve" smooth="yes"/>
      <point x="743.5749999999999" y="551.0"/>
      <point x="672.755" y="518.8"/>
      <point x="590.5649999999999" y="472.135" type="curve"/>
      <point x="564.135" y="520.4150000000001"/>
      <point x="519.35" y="549.425"/>
      <point x="435.36" y="549.425" type="curve" smooth="yes"/>
      <point x="354.925" y="549.425"/>
      <point x="285.58" y="522.435"/>
      <point x="207.725" y="476.94000000000005" type="curve"/>
      <point x="207.725" y="541.0" type="line"/>
      <point x="68.925" y="541.0" type="line"/>
    </contour>
  </outline>
</glyph>
<glyph name="n" format="2">
  <advance width="728.755"/>
  <unicode hex="006E"/>
  <anchor x="365.2" y="541.0" name="top"/>
  <anchor x="366.09999999999997" y="0.0" name="bottom"/>
  <outline>
    <contour>
      <point x="68.925" y="0.0" type="line"/>
      <point x="222.465" y="0.0" type="line"/>
      <point x="222.465" y="385.02" type="line"/>
      <point x="285.60499999999996" y="413.185"/>
      <point x="334.28499999999997" y="432.49"/>
      <point x="396.23999999999995" y="432.49" type="curve" smooth="yes"/>
      <point x="469.245" y="432.49"/>
      <point x="506.62" y="395.195"/>
      <point x="506.62" y="320.26" type="curve" smooth="yes"/>
      <point x="506.62" y="0.0" type="line"/>
      <point x="660.16" y="0.0" type="line"/>
      <point x="660.16" y="370.91499999999996" type="line" smooth="yes"/>
      <point x="660.16" y="477.635"/>
      <point x="594.745" y="551.0"/>
      <point x="457.905" y="551.0" type="curve" smooth="yes"/>
      <point x="366.035" y="551.0"/>
      <point x="298.74" y="524.435"/>
      <point x="207.725" y="477.795" type="curve"/>
      <point x="207.725" y="541.0" type="line"/>
      <point x="68.925" y="541.0" type="line"/>
    </contour>
  </outline>
</glyph>
<glyph name="o" format="2">
  <advance width="734.95"/>
  <unicode hex="006F"/>
  <anchor x="465.335" y="2.35" name="ogonek"/>
  <anchor x="367.475" y="541.0" name="top"/>
  <anchor x="540.4700000000001" y="534.15" name="topright"/>
  <anchor x="367.545" y="0.0" name="bottom"/>
  <outline>
    <contour>
      <point x="40.355" y="272.065" type="curve" smooth="yes"/>
      <point x="40.355" y="85.91499999999999"/>
      <point x="135.16500000000002" y="-10.0"/>
      <point x="367.545" y="-10.0" type="curve" smooth="yes"/>
      <point x="599.7850000000001" y="-10.0"/>
      <point x="694.595" y="85.91499999999999"/>
      <point x="694.595" y="272.065" type="curve" smooth="yes"/>
      <point x="694.595" y="449.115"/>
      <point x="611.755" y="551.0"/>
      <point x="367.545" y="551.0" type="curve" smooth="yes"/>
      <point x="122.56499999999997" y="551.0"/>
      <point x="40.355" y="449.115"/>
    </contour>
    <contour>
      <point x="196.825" y="271.995" type="curve" smooth="yes"/>
      <point x="196.825" y="388.355"/>
      <point x="239.25499999999997" y="446.02000000000004"/>
      <point x="367.475" y="446.02000000000004" type="curve" smooth="yes"/>
      <point x="495.6" y="446.02000000000004"/>
      <point x="537.495" y="388.355"/>
      <point x="537.495" y="271.995" type="curve" smooth="yes"/>
      <point x="537.495" y="149.615"/>
      <point x="488.2499999999999" y="95.14500000000002"/>
      <point x="367.475" y="95.14500000000002" type="curve" smooth="yes"/>
      <point x="246.53500000000003" y="95.14500000000002"/>
      <point x="196.825" y="149.615"/>
    </contour>
  </outline>
</glyph>
<glyph name="p" format="2">
  <advance width="732.08"/>
  <unicode hex="0070"/>
  <outline>
    <contour>
      <point x="68.925" y="-210.0" type="line"/>
      <point x="222.85000000000002" y="-210.0" type="line"/>
      <point x="222.85000000000002" y="1.5649999999999977" type="line"/>
      <point x="272.51" y="-6.180000000000001"/>
      <point x="317.00499999999994" y="-10.0"/>
      <point x="358.31999999999994" y="-10.0" type="curve" smooth="yes"/>
      <point x="585.9949999999999" y="-10.0"/>
      <point x="692.0400000000001" y="82.88"/>
      <point x="692.0400000000001" y="281.64" type="curve" smooth="yes"/>
      <point x="692.0400000000001" y="452.83500000000004"/>
      <point x="606.31" y="551.0"/>
      <point x="459.155" y="551.0" type="curve" smooth="yes"/>
      <point x="377.515" y="551.0"/>
      <point x="300.41" y="526.415"/>
      <point x="209.705" y="469.855" type="curve"/>
      <point x="207.725" y="542.35" type="line"/>
      <point x="68.925" y="542.35" type="line"/>
    </contour>
    <contour>
      <point x="354.34499999999997" y="92.71500000000002" type="curve" smooth="yes"/>
      <point x="315.63" y="92.71500000000002"/>
      <point x="270.975" y="98.075"/>
      <point x="222.465" y="109.38000000000002" type="curve"/>
      <point x="222.465" y="377.50500000000005" type="line"/>
      <point x="290.49999999999994" y="416.985"/>
      <point x="343.23499999999996" y="433.26000000000005"/>
      <point x="397.76" y="433.26000000000005" type="curve" smooth="yes"/>
      <point x="484.87" y="433.26000000000005"/>
      <point x="535.145" y="379.085"/>
      <point x="535.145" y="271.46500000000003" type="curve" smooth="yes"/>
      <point x="535.145" y="146.415"/>
      <point x="475.44000000000005" y="92.71500000000002"/>
    </contour>
  </outline>
</glyph>
<glyph name="q" format="2">
  <advance width="732.245"/>
  <unicode hex="0071"/>
  <outline>
    <contour>
      <point x="663.3199999999999" y="522.65" type="line"/>
      <point x="554.4849999999999" y="541.56"/>
      <point x="461.325" y="551.0"/>
      <point x="381.185" y="551.0" type="curve" smooth="yes"/>
      <point x="147.40499999999997" y="551.0"/>
      <point x="40.04" y="461.09"/>
      <point x="40.04" y="262.65999999999997" type="curve" smooth="yes"/>
      <point x="40.04" y="87.475"/>
      <point x="125.41" y="-10.0"/>
      <point x="274.24499999999995" y="-10.0" type="curve" smooth="yes"/>
      <point x="354.015" y="-10.0"/>
      <point x="426.115" y="12.77"/>
      <point x="509.94499999999994" y="65.25999999999999" type="curve"/>
      <point x="509.94499999999994" y="-210.0" type="line"/>
      <point x="663.3199999999999" y="-210.0" type="line"/>
    </contour>
    <contour>
      <point x="509.78" y="432.31" type="curve"/>
      <point x="509.78" y="164.32000000000002" type="line"/>
      <point x="441.745" y="124.67500000000001"/>
      <point x="389.01" y="108.07000000000001"/>
      <point x="334.32" y="108.07000000000001" type="curve" smooth="yes"/>
      <point x="247.51000000000002" y="108.07000000000001"/>
      <point x="197.1" y="162.18499999999997"/>
      <point x="197.1" y="266.565" type="curve" smooth="yes"/>
      <point x="197.1" y="394.58500000000004"/>
      <point x="256.805" y="448.615"/>
      <point x="378.065" y="448.615" type="curve" smooth="yes"/>
      <point x="416.7" y="448.615"/>
      <point x="461.27" y="443.41999999999996"/>
    </contour>
  </outline>
</glyph>
<glyph name="r" format="2">
  <advance width="522.3799999999999"/>
  <unicode hex="0072"/>
  <anchor x="280.505" y="541.0" name="top"/>
  <anchor x="145.53" y="0.0" name="bottom"/>
  <outline>
    <contour>
      <point x="207.56" y="541.0" type="line"/>
      <point x="68.925" y="541.0" type="line"/>
      <point x="68.925" y="0.0" type="line"/>
      <point x="222.135" y="0.0" type="line"/>
      <point x="222.135" y="359.605" type="line"/>
      <point x="286.725" y="407.0"/>
      <point x="343.08" y="423.635"/>
      <point x="395.67" y="423.635" type="curve" smooth="yes"/>
      <point x="426.455" y="423.635"/>
      <point x="460.5" y="418.53499999999997"/>
      <point x="493.24" y="410.72" type="curve"/>
      <point x="515.69" y="537.895" type="line"/>
      <point x="486.6549999999999" y="545.805"/>
      <point x="451.98499999999996" y="551.0"/>
      <point x="418.72" y="551.0" type="curve" smooth="yes"/>
      <point x="344.19500000000005" y="551.0"/>
      <point x="288.51500000000004" y="525.58"/>
      <point x="207.56" y="457.965" type="curve"/>
    </contour>
  </outline>
</glyph>
<glyph name="s" format="2">
  <advance width="605.5999999999999"/>
  <unicode hex="0073"/>
  <anchor x="300.15" y="541.0" name="top"/>
  <anchor x="302.95000000000005" y="0.0" name="bottom"/>
  <outline>
    <contour>
      <point x="30.999999999999993" y="25.349999999999998" type="line"/>
      <point x="98.44999999999999" y="5.499999999999997"/>
      <point x="196.3" y="-10.0"/>
      <point x="289.1" y="-10.0" type="curve" smooth="yes"/>
      <point x="443.09999999999997" y="-10.0"/>
      <point x="577.0500000000001" y="28.000000000000004"/>
      <point x="577.0500000000001" y="163.15000000000003" type="curve" smooth="yes"/>
      <point x="577.0500000000001" y="272.5"/>
      <point x="482.34999999999997" y="305.65"/>
      <point x="358.7999999999999" y="325.29999999999995" type="curve" smooth="yes"/>
      <point x="259.05" y="340.99999999999994"/>
      <point x="191.0" y="344.19999999999993"/>
      <point x="191.0" y="393.0" type="curve" smooth="yes"/>
      <point x="191.0" y="431.04999999999995"/>
      <point x="237.29999999999998" y="447.2"/>
      <point x="318.8" y="447.2" type="curve" smooth="yes"/>
      <point x="400.40000000000003" y="447.2"/>
      <point x="481.1500000000001" y="429.75"/>
      <point x="521.6999999999999" y="417.8" type="curve"/>
      <point x="539.3" y="520.9" type="line"/>
      <point x="494.1499999999999" y="534.0500000000001"/>
      <point x="413.99999999999994" y="551.0"/>
      <point x="320.45" y="551.0" type="curve" smooth="yes"/>
      <point x="138.15" y="551.0"/>
      <point x="47.650000000000006" y="495.0"/>
      <point x="47.650000000000006" y="376.90000000000003" type="curve" smooth="yes"/>
      <point x="47.650000000000006" y="282.9"/>
      <point x="119.80000000000001" y="240.45000000000002"/>
      <point x="236.19999999999993" y="222.4" type="curve" smooth="yes"/>
      <point x="342.95000000000005" y="205.5"/>
      <point x="430.0" y="195.49999999999997"/>
      <point x="430.0" y="149.65" type="curve" smooth="yes"/>
      <point x="430.0" y="110.95000000000002"/>
      <point x="384.5999999999999" y="91.40000000000002"/>
      <point x="296.90000000000003" y="91.40000000000002" type="curve" smooth="yes"/>
      <point x="217.95" y="91.40000000000002"/>
      <point x="103.85" y="110.85000000000001"/>
      <point x="48.4" y="128.05" type="curve"/>
    </contour>
  </outline>
</glyph>
<glyph name="t" format="2">
  <advance width="523.28"/>
  <unicode hex="0074"/>
  <anchor x="256.21500000000003" y="275.0" name="center"/>
  <anchor x="205.22000000000003" y="663.1850000000001" name="top"/>
  <anchor x="392.71" y="780.7" name="topright"/>
  <anchor x="297.56" y="0.0" name="bottom"/>
  <outline>
    <contour>
      <point x="312.53999999999996" y="-10.0" type="curve" smooth="yes"/>
      <point x="374.115" y="-10.0"/>
      <point x="436.965" y="-0.1350000000000009"/>
      <point x="507.93" y="20.304999999999996" type="curve"/>
      <point x="488.12" y="131.9" type="line"/>
      <point x="441.97" y="119.80000000000001"/>
      <point x="403.25" y="111.45"/>
      <point x="364.29" y="111.45" type="curve" smooth="yes"/>
      <point x="300.615" y="111.45"/>
      <point x="273.2" y="138.92000000000002"/>
      <point x="273.2" y="204.51" type="curve" smooth="yes"/>
      <point x="273.2" y="438.47" type="line"/>
      <point x="483.10499999999996" y="438.47" type="line"/>
      <point x="483.10499999999996" y="541.0" type="line"/>
      <point x="273.2" y="541.0" type="line"/>
      <point x="273.2" y="663.1850000000001" type="line"/>
      <point x="137.105" y="663.1850000000001" type="line"/>
      <point x="119.825" y="541.0" type="line"/>
      <point x="7.224999999999999" y="529.9250000000001" type="line"/>
      <point x="7.224999999999999" y="438.635" type="line"/>
      <point x="119.825" y="438.635" type="line"/>
      <point x="119.825" y="195.49" type="line" smooth="yes"/>
      <point x="119.825" y="46.11"/>
      <point x="190.225" y="-10.0"/>
    </contour>
  </outline>
</glyph>
<glyph name="u" format="2">
  <advance width="734.47"/>
  <unicode hex="0075"/>
  <anchor x="729.055" y="16.270000000000003" name="ogonek"/>
  <anchor x="362.295" y="541.0" name="top"/>
  <anchor x="646.12" y="541.0" name="topright"/>
  <anchor x="367.77000000000004" y="0.0" name="bottom"/>
  <outline>
    <contour>
      <point x="267.29499999999996" y="-10.0" type="curve" smooth="yes"/>
      <point x="360.0849999999999" y="-10.0"/>
      <point x="429.465" y="17.72"/>
      <point x="511.92999999999995" y="61.75499999999999" type="curve"/>
      <point x="531.725" y="12.79"/>
      <point x="568.5749999999999" y="-10.0"/>
      <point x="623.89" y="-10.0" type="curve" smooth="yes"/>
      <point x="662.58" y="-10.0"/>
      <point x="703.99" y="1.28"/>
      <point x="729.055" y="16.270000000000003" type="curve"/>
      <point x="715.165" y="111.77" type="line"/>
      <point x="706.39" y="107.815"/>
      <point x="697.395" y="106.05000000000001"/>
      <point x="688.275" y="106.05000000000001" type="curve" smooth="yes"/>
      <point x="665.345" y="106.05000000000001"/>
      <point x="646.12" y="120.775"/>
      <point x="646.12" y="167.065" type="curve" smooth="yes"/>
      <point x="646.12" y="541.0" type="line"/>
      <point x="492.74499999999995" y="541.0" type="line"/>
      <point x="492.74499999999995" y="153.35500000000002" type="line"/>
      <point x="431.4599999999999" y="124.50000000000001"/>
      <point x="388.11" y="106.97"/>
      <point x="328.62999999999994" y="106.97" type="curve" smooth="yes"/>
      <point x="259.89500000000004" y="106.97"/>
      <point x="222.135" y="142.69"/>
      <point x="222.135" y="209.04999999999998" type="curve" smooth="yes"/>
      <point x="222.135" y="541.0" type="line"/>
      <point x="68.595" y="541.0" type="line"/>
      <point x="68.595" y="167.91" type="line" smooth="yes"/>
      <point x="68.595" y="54.949999999999996"/>
      <point x="143.545" y="-10.0"/>
    </contour>
  </outline>
</glyph>
<glyph name="v" format="2">
  <advance width="687.1299999999999"/>
  <unicode hex="0076"/>
  <outline>
    <contour>
      <point x="263.205" y="0.0" type="line"/>
      <point x="422.785" y="0.0" type="line"/>
      <point x="678.12" y="538.84" type="line"/>
      <point x="511.98" y="543.16" type="line"/>
      <point x="349.085" y="124.265" type="line"/>
      <point x="175.70000000000002" y="543.16" type="line"/>
      <point x="8.735" y="538.84" type="line"/>
    </contour>
  </outline>
</glyph>
<glyph name="w" format="2">
  <advance width="969.745"/>
  <unicode hex="0077"/>
  <anchor x="484.815" y="541.0" name="top"/>
  <anchor x="484.815" y="0.0" name="bottom"/>
  <outline>
    <contour>
      <point x="186.13999999999996" y="0.0" type="line"/>
      <point x="356.405" y="0.0" type="line"/>
      <point x="480.9099999999999" y="384.235" type="line"/>
      <point x="612.4050000000001" y="0.0" type="line"/>
      <point x="776.3449999999999" y="0.0" type="line"/>
      <point x="958.38" y="538.92" type="line"/>
      <point x="809.6399999999999" y="542.9100000000001" type="line"/>
      <point x="696.095" y="133.72500000000002" type="line"/>
      <point x="565.435" y="541.0" type="line"/>
      <point x="403.80999999999995" y="541.0" type="line"/>
      <point x="275.54999999999995" y="133.88" type="line"/>
      <point x="164.12" y="542.9100000000001" type="line"/>
      <point x="10.865" y="538.92" type="line"/>
    </contour>
  </outline>
</glyph>
<glyph name="x" format="2">
  <advance width="708.11"/>
  <unicode hex="0078"/>
  <outline>
    <contour>
      <point x="8.059999999999997" y="1.8199999999999985" type="line"/>
      <point x="194.84" y="-3.59" type="line"/>
      <point x="354.75000000000006" y="187.59" type="line"/>
      <point x="516.64" y="-3.59" type="line"/>
      <point x="700.1300000000001" y="1.8199999999999985" type="line"/>
      <point x="447.8299999999999" y="278.58000000000004" type="line"/>
      <point x="686.47" y="538.3199999999999" type="line"/>
      <point x="515.23" y="544.1800000000001" type="line"/>
      <point x="362.17999999999995" y="361.19000000000005" type="line"/>
      <point x="210.63" y="544.1500000000001" type="line"/>
      <point x="26.149999999999995" y="538.3" type="line"/>
      <point x="267.78999999999996" y="273.04" type="line"/>
    </contour>
  </outline>
</glyph>
<glyph name="y" format="2">
  <advance width="690.4350000000002"/>
  <unicode hex="0079"/>
  <anchor x="339.83500000000004" y="541.0" name="top"/>
  <anchor x="554.7149999999999" y="0.0" name="bottom"/>
  <outline>
    <contour>
      <point x="207.82999999999998" y="-208.47" type="line"/>
      <point x="360.12" y="-212.43" type="line"/>
      <point x="681.565" y="540.73" type="line"/>
      <point x="525.1349999999999" y="544.42" type="line"/>
      <point x="360.52" y="116.46" type="line"/>
      <point x="180.64000000000001" y="544.4200000000001" type="line"/>
      <point x="8.870000000000001" y="540.1" type="line"/>
      <point x="269.72499999999997" y="0.0" type="line"/>
      <point x="295.23" y="0.0" type="line"/>
    </contour>
  </outline>
</glyph>
<glyph name="z" format="2">
  <advance width="656.7199999999999"/>
  <unicode hex="007A"/>
  <anchor x="333.3999999999999" y="541.0" name="top"/>
  <outline>
    <contour>
      <point x="33.75999999999999" y="0.0" type="line"/>
      <point x="625.94" y="0.0" type="line"/>
      <point x="625.94" y="107.91000000000001" type="line"/>
      <point x="238.67" y="107.91000000000001" type="line"/>
      <point x="599.81" y="447.15" type="line"/>
      <point x="599.81" y="541.0" type="line"/>
      <point x="49.17999999999999" y="541.0" type="line"/>
      <point x="49.17999999999999" y="433.59999999999997" type="line"/>
      <point x="399.65" y="433.59999999999997" type="line"/>
      <point x="33.75999999999999" y="94.39" type="line"/>
    </contour>
  </outline>
</glyph>
<glyph name="braceleft" format="2">
  <advance width="404.91499999999996"/>
  <unicode hex="007B"/>
  <outline>
    <contour>
      <point x="100.85999999999999" y="-49.905" type="curve" smooth="yes"/>
      <point x="100.85999999999999" y="-153.31"/>
      <point x="167.58999999999997" y="-210.16500000000002"/>
      <point x="278.275" y="-210.16500000000002" type="curve" smooth="yes"/>
      <point x="367.41" y="-210.16500000000002" type="line"/>
      <point x="367.41" y="-115.91499999999999" type="line"/>
      <point x="317.875" y="-115.91499999999999" type="line" smooth="yes"/>
      <point x="254.875" y="-115.91499999999999"/>
      <point x="234.92999999999998" y="-78.96"/>
      <point x="234.92999999999998" y="-33.405" type="curve" smooth="yes"/>
      <point x="234.92999999999998" y="24.355"/>
      <point x="269.965" y="80.19000000000001"/>
      <point x="269.965" y="143.26" type="curve" smooth="yes"/>
      <point x="269.965" y="187.34500000000003"/>
      <point x="258.395" y="239.39499999999998"/>
      <point x="193.945" y="265.0" type="curve"/>
      <point x="258.08" y="292.815"/>
      <point x="269.965" y="341.86"/>
      <point x="269.965" y="385.94500000000005" type="curve" smooth="yes"/>
      <point x="269.965" y="449.3299999999999"/>
      <point x="234.92999999999998" y="503.59000000000003"/>
      <point x="234.92999999999998" y="562.61" type="curve" smooth="yes"/>
      <point x="234.92999999999998" y="608.1650000000001"/>
      <point x="254.875" y="645.75"/>
      <point x="317.875" y="645.75" type="curve" smooth="yes"/>
      <point x="367.41" y="645.75" type="line"/>
      <point x="367.41" y="740.0" type="line"/>
      <point x="278.275" y="740.0" type="line" smooth="yes"/>
      <point x="167.58999999999997" y="740.0"/>
      <point x="100.85999999999999" y="682.5150000000001"/>
      <point x="100.85999999999999" y="579.1099999999999" type="curve" smooth="yes"/>
      <point x="100.85999999999999" y="494.45"/>
      <point x="138.92" y="440.86499999999995"/>
      <point x="138.92" y="383.745" type="curve" smooth="yes"/>
      <point x="138.92" y="346.975"/>
      <point x="127.71499999999997" y="312.4"/>
      <point x="86.80999999999999" y="312.4" type="curve" smooth="yes"/>
      <point x="67.78999999999999" y="312.4" type="line"/>
      <point x="67.78999999999999" y="217.435" type="line"/>
      <point x="86.80999999999999" y="217.435" type="line" smooth="yes"/>
      <point x="127.71499999999997" y="217.435"/>
      <point x="138.92" y="182.365"/>
      <point x="138.92" y="145.45999999999998" type="curve" smooth="yes"/>
      <point x="138.92" y="88.56500000000001"/>
      <point x="100.85999999999999" y="33.18000000000001"/>
    </contour>
  </outline>
</glyph>
<glyph name="bar" format="2">
  <advance width="276.98999999999995"/>
  <unicode hex="007C"/>
  <outline>
    <contour>
      <point x="199.645" y="790.165" type="line"/>
      <point x="77.345" y="790.165" type="line"/>
      <point x="77.345" y="-210.0" type="line"/>
      <point x="199.645" y="-210.0" type="line"/>
    </contour>
  </outline>
</glyph>
<glyph name="braceright" format="2">
  <advance width="404.91499999999996"/>
  <unicode hex="007D"/>
  <outline>
    <contour>
      <point x="37.504999999999995" y="-115.91499999999999" type="line"/>
      <point x="37.504999999999995" y="-210.16500000000002" type="line"/>
      <point x="126.775" y="-210.16500000000002" type="line" smooth="yes"/>
      <point x="237.46" y="-210.16500000000002"/>
      <point x="304.19000000000005" y="-153.31"/>
      <point x="304.19000000000005" y="-49.905" type="curve" smooth="yes"/>
      <point x="304.19000000000005" y="33.18000000000001"/>
      <point x="266.13" y="88.56500000000001"/>
      <point x="266.13" y="145.45999999999998" type="curve" smooth="yes"/>
      <point x="266.13" y="182.365"/>
      <point x="277.335" y="217.435"/>
      <point x="318.24" y="217.435" type="curve" smooth="yes"/>
      <point x="337.125" y="217.435" type="line"/>
      <point x="337.125" y="312.4" type="line"/>
      <point x="318.24" y="312.4" type="line" smooth="yes"/>
      <point x="277.2" y="312.4"/>
      <point x="266.13" y="346.975"/>
      <point x="266.13" y="383.745" type="curve" smooth="yes"/>
      <point x="266.13" y="440.86499999999995"/>
      <point x="304.19000000000005" y="494.45"/>
      <point x="304.19000000000005" y="579.1099999999999" type="curve" smooth="yes"/>
      <point x="304.19000000000005" y="682.5150000000001"/>
      <point x="237.46" y="740.0"/>
      <point x="126.775" y="740.0" type="curve" smooth="yes"/>
      <point x="37.504999999999995" y="740.0" type="line"/>
      <point x="37.504999999999995" y="645.75" type="line"/>
      <point x="84.36999999999999" y="645.75" type="line" smooth="yes"/>
      <point x="147.235" y="645.75"/>
      <point x="167.315" y="608.1650000000001"/>
      <point x="167.315" y="562.61" type="curve" smooth="yes"/>
      <point x="167.315" y="503.59000000000003"/>
      <point x="132.27999999999997" y="449.3299999999999"/>
      <point x="132.27999999999997" y="385.94500000000005" type="curve" smooth="yes"/>
      <point x="132.27999999999997" y="341.86"/>
      <point x="144.02999999999997" y="292.815"/>
      <point x="208.29999999999998" y="265.0" type="curve"/>
      <point x="143.715" y="239.39499999999998"/>
      <point x="132.27999999999997" y="187.34500000000003"/>
      <point x="132.27999999999997" y="143.26" type="curve" smooth="yes"/>
      <point x="132.27999999999997" y="80.19000000000001"/>
      <point x="167.315" y="24.355"/>
      <point x="167.315" y="-33.405" type="curve" smooth="yes"/>
      <point x="167.315" y="-78.96"/>
      <point x="147.235" y="-115.91499999999999"/>
      <point x="84.36999999999999" y="-115.91499999999999" type="curve" smooth="yes"/>
    </contour>
  </outline>
</glyph>
<glyph name="asciitilde" format="2">
  <advance width="596.72"/>
  <unicode hex="007E"/>
  <outline>
    <contour>
      <point x="534.125" y="241.51500000000001" type="curve"/>
      <point x="534.125" y="357.50000000000006" type="line"/>
      <point x="507.03" y="332.565"/>
      <point x="474.84000000000003" y="316.25000000000006"/>
      <point x="431.605" y="316.25000000000006" type="curve" smooth="yes"/>
      <point x="321.54" y="316.25000000000006"/>
      <point x="261.38" y="407.615"/>
      <point x="167.59" y="407.615" type="curve" smooth="yes"/>
      <point x="111.29" y="407.615"/>
      <point x="78.845" y="381.86999999999995"/>
      <point x="63.114999999999995" y="368.93" type="curve"/>
      <point x="63.114999999999995" y="252.62999999999997" type="line"/>
      <point x="88.565" y="271.82000000000005"/>
      <point x="116.21499999999999" y="292.025"/>
      <point x="163.85" y="292.025" type="curve" smooth="yes"/>
      <point x="257.87" y="292.025"/>
      <point x="322.78499999999997" y="200.27500000000003"/>
      <point x="432.485" y="200.27500000000003" type="curve" smooth="yes"/>
      <point x="474.9" y="200.27500000000003"/>
      <point x="509.855" y="218.84"/>
    </contour>
  </outline>
</glyph>
<glyph name="exclamdown" format="2">
  <advance width="304.38"/>
  <unicode hex="00A1"/>
  <outline>
    <contour>
      <point x="219.06" y="279.365" type="line"/>
      <point x="88.345" y="279.365" type="line"/>
      <point x="78.00499999999998" y="-199.385" type="line"/>
      <point x="228.905" y="-199.385" type="line"/>
    </contour>
    <contour>
      <point x="237.53500000000003" y="475.655" type="curve" smooth="yes"/>
      <point x="237.53500000000003" y="524.6"/>
      <point x="215.275" y="546.5"/>
      <point x="152.19" y="546.5" type="curve" smooth="yes"/>
      <point x="89.55499999999999" y="546.5"/>
      <point x="66.845" y="524.6"/>
      <point x="66.845" y="475.655" type="curve" smooth="yes"/>
      <point x="66.845" y="426.16"/>
      <point x="89.105" y="404.26"/>
      <point x="152.19" y="404.26" type="curve" smooth="yes"/>
      <point x="215.275" y="404.26"/>
      <point x="237.53500000000003" y="426.16"/>
    </contour>
  </outline>
</glyph>
<glyph name="cent" format="2">
  <advance width="833.01"/>
  <unicode hex="00A2"/>
  <outline>
    <contour>
      <point x="432.195" y="-10.165000000000001" type="curve" smooth="yes"/>
      <point x="523.945" y="-10.165000000000001"/>
      <point x="626.3149999999999" y="1.1"/>
      <point x="703.195" y="20.05" type="curve"/>
      <point x="684.125" y="126.60000000000001" type="line"/>
      <point x="612.8499999999999" y="112.44500000000002"/>
      <point x="536.82" y="104.465"/>
      <point x="468.83500000000004" y="104.465" type="curve" smooth="yes"/>
      <point x="345.405" y="104.465"/>
      <point x="275.405" y="157.20000000000002"/>
      <point x="275.405" y="262.9549999999999" type="curve" smooth="yes"/>
      <point x="275.405" y="376.09000000000003"/>
      <point x="346.28" y="434.44500000000005"/>
      <point x="469.725" y="434.44500000000005" type="curve" smooth="yes"/>
      <point x="539.035" y="434.44500000000005"/>
      <point x="598.6" y="427.59999999999997"/>
      <point x="671.975" y="411.335" type="curve"/>
      <point x="690.1899999999999" y="524.045" type="line"/>
      <point x="615.445" y="541.985"/>
      <point x="549.7199999999999" y="551.33"/>
      <point x="457.13" y="551.33" type="curve" smooth="yes"/>
      <point x="226.98999999999998" y="551.33"/>
      <point x="124.06499999999997" y="427.97499999999997"/>
      <point x="124.06499999999997" y="259.655" type="curve" smooth="yes"/>
      <point x="124.06499999999997" y="84.33000000000001"/>
      <point x="232.64499999999998" y="-10.165000000000001"/>
    </contour>
    <contour>
      <point x="370.81999999999994" y="-105.16499999999999" type="line"/>
      <point x="483.77" y="-105.16499999999999" type="line"/>
      <point x="483.77" y="3.455000000000001" type="line"/>
      <point x="370.81999999999994" y="7.340000000000002" type="line"/>
    </contour>
    <contour>
      <point x="370.81999999999994" y="530.955" type="line"/>
      <point x="483.77" y="538.74" type="line"/>
      <point x="483.77" y="645.835" type="line"/>
      <point x="370.81999999999994" y="645.835" type="line"/>
    </contour>
  </outline>
</glyph>
<glyph name="sterling" format="2">
  <advance width="833.55"/>
  <unicode hex="00A3"/>
  <outline>
    <contour>
      <point x="97.8" y="0.0" type="line"/>
      <point x="755.91" y="0.0" type="line"/>
      <point x="755.91" y="115.10000000000001" type="line"/>
      <point x="279.90000000000003" y="115.10000000000001" type="line"/>
      <point x="342.91" y="162.88000000000002"/>
      <point x="373.74" y="205.96"/>
      <point x="373.74" y="259.43" type="curve" smooth="yes"/>
      <point x="373.74" y="338.11"/>
      <point x="300.45" y="395.15999999999997"/>
      <point x="300.45" y="473.70000000000005" type="curve" smooth="yes"/>
      <point x="300.45" y="552.4099999999999"/>
      <point x="369.7" y="588.4"/>
      <point x="480.15" y="588.4" type="curve" smooth="yes"/>
      <point x="558.0199999999999" y="588.4"/>
      <point x="650.7399999999999" y="577.1199999999999"/>
      <point x="718.5300000000001" y="559.05" type="curve"/>
      <point x="738.89" y="671.52" type="line"/>
      <point x="663.9599999999999" y="695.05"/>
      <point x="563.3699999999999" y="710.0"/>
      <point x="464.7999999999999" y="710.0" type="curve" smooth="yes"/>
      <point x="255.13999999999993" y="710.0"/>
      <point x="143.10999999999999" y="633.7299999999999"/>
      <point x="143.10999999999999" y="508.78000000000003" type="curve" smooth="yes"/>
      <point x="143.10999999999999" y="402.73"/>
      <point x="226.3" y="339.92999999999995"/>
      <point x="226.3" y="257.28999999999996" type="curve" smooth="yes"/>
      <point x="226.3" y="197.07000000000002"/>
      <point x="192.79000000000002" y="163.83"/>
      <point x="97.8" y="95.85000000000001" type="curve"/>
    </contour>
    <contour>
      <point x="91.26000000000002" y="307.52" type="line"/>
      <point x="635.69" y="307.52" type="line"/>
      <point x="635.69" y="401.71999999999997" type="line"/>
      <point x="91.26000000000002" y="401.71999999999997" type="line"/>
    </contour>
  </outline>
</glyph>
<glyph name="currency" format="2">
  <advance width="507.35"/>
  <unicode hex="00A4"/>
  <outline>
    <contour>
      <point x="50.455" y="434.72" type="line"/>
      <point x="113.345" y="370.83" type="line"/>
      <point x="101.77" y="350.96500000000003"/>
      <point x="94.665" y="327.565"/>
      <point x="94.665" y="301.59499999999997" type="curve" smooth="yes"/>
      <point x="94.665" y="275.075"/>
      <point x="101.77" y="250.96"/>
      <point x="114.345" y="230.92999999999998" type="curve"/>
      <point x="50.455" y="167.04" type="line"/>
      <point x="120.06" y="97.435" type="line"/>
      <point x="192.805" y="169.795" type="line"/>
      <point x="209.64499999999998" y="159.695"/>
      <point x="230.35" y="154.745"/>
      <point x="252.79000000000002" y="154.745" type="curve" smooth="yes"/>
      <point x="275.67" y="154.745"/>
      <point x="296.715" y="160.08"/>
      <point x="314.15999999999997" y="170.01500000000001" type="curve"/>
      <point x="387.29" y="97.435" type="line"/>
      <point x="456.895" y="167.04" type="line"/>
      <point x="391.74" y="232.03" type="line"/>
      <point x="403.71" y="252.005"/>
      <point x="410.97999999999996" y="275.515"/>
      <point x="410.97999999999996" y="301.59499999999997" type="curve" smooth="yes"/>
      <point x="410.97999999999996" y="326.96000000000004"/>
      <point x="404.09499999999997" y="349.92"/>
      <point x="391.905" y="369.73" type="curve"/>
      <point x="456.895" y="434.72" type="line"/>
      <point x="387.29" y="504.325" type="line"/>
      <point x="314.82" y="431.855" type="line"/>
      <point x="297.21000000000004" y="442.175"/>
      <point x="276.28499999999997" y="448.125"/>
      <point x="252.79000000000002" y="448.125" type="curve" smooth="yes"/>
      <point x="229.57" y="448.125"/>
      <point x="208.865" y="442.01"/>
      <point x="191.695" y="432.075" type="curve"/>
      <point x="120.06" y="504.325" type="line"/>
    </contour>
    <contour>
      <point x="252.405" y="232.77" type="curve" smooth="yes"/>
      <point x="213.67" y="232.77"/>
      <point x="183.745" y="262.31"/>
      <point x="183.745" y="301.42999999999995" type="curve" smooth="yes"/>
      <point x="183.745" y="339.51500000000004"/>
      <point x="213.285" y="369.935"/>
      <point x="252.405" y="369.935" type="curve" smooth="yes"/>
      <point x="291.975" y="369.935"/>
      <point x="321.90000000000003" y="339.51500000000004"/>
      <point x="321.90000000000003" y="301.42999999999995" type="curve" smooth="yes"/>
      <point x="321.90000000000003" y="262.31"/>
      <point x="291.59000000000003" y="232.77"/>
    </contour>
  </outline>
</glyph>
<glyph name="yen" format="2">
  <advance width="836.6499999999999"/>
  <unicode hex="00A5"/>
  <outline>
    <contour>
      <point x="116.1" y="318.1499999999999" type="line"/>
      <point x="340.79999999999995" y="318.1499999999999" type="line"/>
      <point x="340.79999999999995" y="259.90000000000003" type="line"/>
      <point x="116.1" y="259.90000000000003" type="line"/>
      <point x="116.1" y="185.55" type="line"/>
      <point x="340.79999999999995" y="185.55" type="line"/>
      <point x="340.79999999999995" y="0.0" type="line"/>
      <point x="502.3" y="0.0" type="line"/>
      <point x="502.3" y="185.55" type="line"/>
      <point x="731.7000000000002" y="185.55" type="line"/>
      <point x="731.7000000000002" y="259.90000000000003" type="line"/>
      <point x="502.3" y="259.90000000000003" type="line"/>
      <point x="502.3" y="318.1499999999999" type="line"/>
      <point x="731.7000000000002" y="318.1499999999999" type="line"/>
      <point x="731.7000000000002" y="392.94999999999993" type="line"/>
      <point x="502.3" y="392.94999999999993" type="line"/>
      <point x="767.5500000000002" y="697.1999999999999" type="line"/>
      <point x="604.0500000000001" y="703.25" type="line"/>
      <point x="421.59999999999997" y="477.50000000000006" type="line"/>
      <point x="233.54999999999998" y="703.25" type="line"/>
      <point x="69.99999999999999" y="697.1999999999999" type="line"/>
      <point x="340.79999999999995" y="392.94999999999993" type="line"/>
      <point x="116.1" y="392.94999999999993" type="line"/>
    </contour>
  </outline>
</glyph>
<glyph name="brokenbar" format="2">
  <advance width="276.825"/>
  <unicode hex="00A6"/>
  <outline>
    <contour>
      <point x="199.48" y="391.0" type="line"/>
      <point x="199.48" y="790.165" type="line"/>
      <point x="77.345" y="790.165" type="line"/>
      <point x="77.345" y="391.0" type="line"/>
    </contour>
    <contour>
      <point x="77.345" y="190.16500000000002" type="line"/>
      <point x="77.345" y="-210.0" type="line"/>
      <point x="199.48" y="-210.0" type="line"/>
      <point x="199.48" y="190.16500000000002" type="line"/>
    </contour>
  </outline>
</glyph>
<glyph name="section" format="2">
  <advance width="664.91"/>
  <unicode hex="00A7"/>
  <outline>
    <contour>
      <point x="282.615" y="-220.48000000000002" type="curve" smooth="yes"/>
      <point x="476.80999999999995" y="-220.48000000000002"/>
      <point x="609.395" y="-107.60499999999999"/>
      <point x="609.395" y="68.60000000000001" type="curve" smooth="yes"/>
      <point x="609.395" y="159.97500000000002"/>
      <point x="579.655" y="239.375"/>
      <point x="491.59" y="376.28999999999996" type="curve" smooth="yes"/>
      <point x="430.365" y="477.025"/>
      <point x="409.91499999999996" y="514.405"/>
      <point x="409.91499999999996" y="549.46" type="curve" smooth="yes"/>
      <point x="409.91499999999996" y="591.8199999999999"/>
      <point x="439.495" y="618.3699999999999"/>
      <point x="488.0799999999999" y="618.3699999999999" type="curve" smooth="yes"/>
      <point x="507.42" y="618.3699999999999"/>
      <point x="528.95" y="614.795"/>
      <point x="558.5400000000001" y="604.715" type="curve"/>
      <point x="579.5949999999999" y="724.1899999999999" type="line"/>
      <point x="520.37" y="742.385"/>
      <point x="462.275" y="750.0"/>
      <point x="406.06000000000006" y="750.0" type="curve" smooth="yes"/>
      <point x="186.5" y="750.0"/>
      <point x="66.16" y="640.4350000000001"/>
      <point x="67.045" y="463.20000000000005" type="curve" smooth="yes"/>
      <point x="67.585" y="366.73"/>
      <point x="97.51999999999998" y="285.9200000000001"/>
      <point x="181.89" y="152.42499999999998" type="curve" smooth="yes"/>
      <point x="235.90999999999997" y="61.94"/>
      <point x="262.52000000000004" y="23.835000000000008"/>
      <point x="262.74499999999995" y="-22.315" type="curve" smooth="yes"/>
      <point x="262.96999999999997" y="-60.91499999999999"/>
      <point x="231.21499999999997" y="-88.44000000000001"/>
      <point x="183.29" y="-88.44000000000001" type="curve" smooth="yes"/>
      <point x="148.565" y="-88.44000000000001"/>
      <point x="121.665" y="-78.45"/>
      <point x="77.16000000000001" y="-51.584999999999994" type="curve"/>
      <point x="50.17" y="-165.13000000000002" type="line"/>
      <point x="129.40499999999997" y="-204.85999999999999"/>
      <point x="195.29" y="-220.48000000000002"/>
    </contour>
    <contour>
      <point x="291.62" y="-142.56500000000003" type="curve" smooth="yes"/>
      <point x="259.12999999999994" y="-142.56500000000003"/>
      <point x="230.42" y="-138.76"/>
      <point x="205.85" y="-128.155" type="curve"/>
      <point x="232.33999999999997" y="-148.87" type="line"/>
      <point x="318.67" y="-154.255"/>
      <point x="384.1449999999999" y="-98.425"/>
      <point x="384.1449999999999" y="-22.72499999999999" type="curve" smooth="yes"/>
      <point x="384.1449999999999" y="32.45"/>
      <point x="361.77000000000004" y="86.45"/>
      <point x="290.63500000000005" y="201.95000000000002" type="curve" smooth="yes"/>
      <point x="213.76" y="327.83000000000004"/>
      <point x="186.13000000000002" y="400.53000000000003"/>
      <point x="186.13000000000002" y="481.225" type="curve" smooth="yes"/>
      <point x="186.13000000000002" y="592.2600000000001"/>
      <point x="256.51" y="657.77"/>
      <point x="360.065" y="657.77" type="curve" smooth="yes"/>
      <point x="385.10499999999996" y="657.77"/>
      <point x="401.87" y="654.7249999999999"/>
      <point x="424.75" y="646.2950000000001" type="curve"/>
      <point x="402.405" y="668.27" type="line"/>
      <point x="338.57" y="669.3399999999999"/>
      <point x="292.94499999999994" y="613.275"/>
      <point x="292.27" y="552.1800000000001" type="curve" smooth="yes"/>
      <point x="292.27" y="495.24499999999995"/>
      <point x="313.1" y="449.505"/>
      <point x="381.855" y="331.54" type="curve" smooth="yes"/>
      <point x="466.725" y="184.90999999999997"/>
      <point x="494.77500000000003" y="120.815"/>
      <point x="494.77500000000003" y="49.18" type="curve" smooth="yes"/>
      <point x="495.00000000000006" y="-49.254999999999995"/>
      <point x="431.53999999999996" y="-142.34"/>
    </contour>
  </outline>
</glyph>
<glyph name="copyright" format="2">
  <advance width="843.17"/>
  <unicode hex="00A9"/>
  <outline>
    <contour>
      <point x="421.9" y="49.18" type="curve" smooth="yes"/>
      <point x="233.32499999999996" y="49.18"/>
      <point x="119.66499999999998" y="150.24000000000004"/>
      <point x="119.66499999999998" y="349.39500000000004" type="curve" smooth="yes"/>
      <point x="119.66499999999998" y="549.4549999999999"/>
      <point x="234.02499999999995" y="648.1400000000001"/>
      <point x="421.9" y="648.1400000000001" type="curve" smooth="yes"/>
      <point x="609.6399999999999" y="648.1400000000001"/>
      <point x="723.3399999999999" y="549.4549999999999"/>
      <point x="723.3399999999999" y="349.39500000000004" type="curve" smooth="yes"/>
      <point x="723.3399999999999" y="150.24000000000004"/>
      <point x="610.3399999999999" y="49.18"/>
    </contour>
    <contour>
      <point x="421.9" y="710.0" type="curve" smooth="yes"/>
      <point x="197.64" y="710.0"/>
      <point x="52.199999999999996" y="582.5200000000001"/>
      <point x="52.199999999999996" y="349.39500000000004" type="curve" smooth="yes"/>
      <point x="52.199999999999996" y="116.70999999999998"/>
      <point x="196.79999999999998" y="-10.0"/>
      <point x="421.9" y="-10.0" type="curve" smooth="yes"/>
      <point x="646.37" y="-10.0"/>
      <point x="790.9699999999999" y="116.70999999999998"/>
      <point x="790.9699999999999" y="349.39500000000004" type="curve" smooth="yes"/>
      <point x="790.9699999999999" y="582.5200000000001"/>
      <point x="646.1600000000001" y="710.0"/>
    </contour>
    <contour>
      <point x="230.79" y="341.61" type="curve" smooth="yes"/>
      <point x="230.79" y="208.625"/>
      <point x="313.01" y="157.23999999999998"/>
      <point x="424.005" y="157.23999999999998" type="curve" smooth="yes"/>
      <point x="490.56000000000006" y="157.23999999999998"/>
      <point x="554.295" y="170.975"/>
      <point x="595.625" y="188.865" type="curve"/>
      <point x="580.54" y="263.03" type="line"/>
      <point x="549.66" y="253.81"/>
      <point x="498.135" y="242.215"/>
      <point x="444.68" y="242.215" type="curve" smooth="yes"/>
      <point x="372.46" y="242.215"/>
      <point x="337.35499999999996" y="271.58000000000004"/>
      <point x="337.35499999999996" y="343.325" type="curve" smooth="yes"/>
      <point x="337.35499999999996" y="429.21999999999997"/>
      <point x="379.26" y="456.72"/>
      <point x="454.175" y="456.72" type="curve" smooth="yes"/>
      <point x="492.67999999999995" y="456.72"/>
      <point x="535.4099999999999" y="448.65999999999997"/>
      <point x="568.64" y="439.335" type="curve"/>
      <point x="585.76" y="515.71" type="line"/>
      <point x="543.465" y="534.1300000000001"/>
      <point x="491.6749999999999" y="542.4650000000001"/>
      <point x="439.9949999999999" y="542.4650000000001" type="curve" smooth="yes"/>
      <point x="321.67999999999995" y="542.4650000000001"/>
      <point x="230.79" y="487.98"/>
    </contour>
  </outline>
</glyph>
<glyph name="ordfeminine" format="2">
  <advance width="483.49"/>
  <unicode hex="00AA"/>
  <outline>
    <contour>
      <point x="57.114999999999995" y="221.445" type="line"/>
      <point x="448.07" y="221.445" type="line"/>
      <point x="448.07" y="302.39500000000004" type="line"/>
      <point x="57.114999999999995" y="302.39500000000004" type="line"/>
    </contour>
    <component base="a.superior" xOffset="10.745000000000001"/>
  </outline>
</glyph>
<glyph name="logicalnot" format="2">
  <advance width="596.72"/>
  <unicode hex="00AC"/>
  <outline>
    <contour>
      <point x="55.68" y="328.34" type="line"/>
      <point x="426.85" y="328.34" type="line"/>
      <point x="426.85" y="167.70499999999998" type="line"/>
      <point x="541.175" y="167.70499999999998" type="line"/>
      <point x="541.175" y="442.66499999999996" type="line"/>
      <point x="55.68" y="442.66499999999996" type="line"/>
    </contour>
  </outline>
</glyph>
<glyph name="registered" format="2">
  <advance width="809.07"/>
  <unicode hex="00AE"/>
  <outline>
    <contour>
      <point x="398.57" y="207.17499999999998" type="curve" smooth="yes"/>
      <point x="618.975" y="207.17499999999998"/>
      <point x="756.8699999999999" y="324.91"/>
      <point x="756.8699999999999" y="550.0400000000001" type="curve" smooth="yes"/>
      <point x="756.8699999999999" y="771.9250000000002"/>
      <point x="619.5649999999999" y="893.455"/>
      <point x="398.57" y="893.455" type="curve" smooth="yes"/>
      <point x="185.75" y="893.455"/>
      <point x="52.199999999999996" y="771.9250000000002"/>
      <point x="52.199999999999996" y="550.0400000000001" type="curve" smooth="yes"/>
      <point x="52.199999999999996" y="329.155"/>
      <point x="184.33499999999998" y="207.17499999999998"/>
    </contour>
    <contour>
      <point x="398.57" y="263.5" type="curve" smooth="yes"/>
      <point x="219.73499999999996" y="263.5"/>
      <point x="116.24499999999999" y="361.095"/>
      <point x="116.24499999999999" y="550.0400000000001" type="curve" smooth="yes"/>
      <point x="116.24499999999999" y="739.945"/>
      <point x="219.69499999999996" y="834.3"/>
      <point x="398.57" y="834.3" type="curve" smooth="yes"/>
      <point x="584.9499999999998" y="834.3"/>
      <point x="692.6850000000001" y="739.985"/>
      <point x="692.6850000000001" y="550.0400000000001" type="curve" smooth="yes"/>
      <point x="692.6850000000001" y="360.23"/>
      <point x="584.1249999999999" y="263.5"/>
    </contour>
    <contour>
      <point x="592.055" y="385.82500000000005" type="curve" smooth="yes"/>
      <point x="595.0150000000001" y="385.82500000000005"/>
      <point x="598.0600000000001" y="385.82500000000005"/>
      <point x="601.0150000000001" y="385.96000000000004" type="curve"/>
      <point x="600.61" y="466.80499999999995" type="line"/>
      <point x="599.475" y="466.66999999999996"/>
      <point x="597.5699999999999" y="466.66999999999996"/>
      <point x="596.1199999999999" y="466.66999999999996" type="curve" smooth="yes"/>
      <point x="569.015" y="466.905"/>
      <point x="529.665" y="491.12000000000006"/>
      <point x="493.47" y="527.0300000000001" type="curve"/>
      <point x="547.7149999999999" y="534.89"/>
      <point x="582.255" y="562.22"/>
      <point x="582.255" y="623.0799999999999" type="curve" smooth="yes"/>
      <point x="582.255" y="694.875"/>
      <point x="533.245" y="724.3750000000001"/>
      <point x="396.58500000000004" y="724.3750000000001" type="curve" smooth="yes"/>
      <point x="361.55499999999995" y="724.3750000000001"/>
      <point x="309.42" y="722.9649999999999"/>
      <point x="234.915" y="719.5950000000001" type="curve"/>
      <point x="234.915" y="389.16" type="line"/>
      <point x="328.00500000000005" y="389.16" type="line"/>
      <point x="328.00500000000005" y="502.87" type="line"/>
      <point x="344.3400000000001" y="502.73499999999996"/>
      <point x="356.935" y="501.97"/>
      <point x="371.285" y="501.97" type="curve" smooth="yes"/>
      <point x="377.36999999999995" y="501.97"/>
      <point x="382.9449999999999" y="501.97"/>
      <point x="388.75500000000005" y="502.105" type="curve"/>
      <point x="456.08500000000004" y="427.16499999999996"/>
      <point x="526.335" y="386.1"/>
    </contour>
    <contour>
      <point x="388.62999999999994" y="558.6850000000001" type="curve" smooth="yes"/>
      <point x="370.7199999999999" y="558.6850000000001"/>
      <point x="355.43" y="559.2750000000001"/>
      <point x="328.00500000000005" y="559.6850000000001" type="curve"/>
      <point x="328.00500000000005" y="655.11" type="line"/>
      <point x="364.185" y="657.15"/>
      <point x="371.75499999999994" y="657.285"/>
      <point x="401.0450000000001" y="657.285" type="curve" smooth="yes"/>
      <point x="471.0299999999999" y="657.285"/>
      <point x="486.375" y="643.8599999999999"/>
      <point x="486.375" y="611.53" type="curve" smooth="yes"/>
      <point x="486.375" y="569.85"/>
      <point x="464.02000000000004" y="558.6850000000001"/>
    </contour>
  </outline>
</glyph>
<glyph name="degree" format="2">
  <advance width="359.15000000000003"/>
  <unicode hex="00B0"/>
  <outline>
    <contour>
      <point x="179.44" y="415.5" type="curve" smooth="yes"/>
      <point x="277.015" y="415.5"/>
      <point x="327.72" y="488.215"/>
      <point x="327.72" y="566.35" type="curve" smooth="yes"/>
      <point x="327.72" y="640.95"/>
      <point x="281.15500000000003" y="718.1"/>
      <point x="179.44" y="718.1" type="curve" smooth="yes"/>
      <point x="77.095" y="718.1"/>
      <point x="31.43" y="640.95"/>
      <point x="31.43" y="566.35" type="curve" smooth="yes"/>
      <point x="31.43" y="488.215"/>
      <point x="81.865" y="415.5"/>
    </contour>
    <contour>
      <point x="179.44" y="505.98" type="curve" smooth="yes"/>
      <point x="147.815" y="505.98"/>
      <point x="126.86" y="531.395"/>
      <point x="126.86" y="566.1150000000001" type="curve" smooth="yes"/>
      <point x="126.86" y="599.105"/>
      <point x="146.88000000000002" y="626.05"/>
      <point x="179.44" y="626.05" type="curve" smooth="yes"/>
      <point x="211.37" y="626.05"/>
      <point x="232.92" y="599.105"/>
      <point x="232.92" y="566.1150000000001" type="curve" smooth="yes"/>
      <point x="232.92" y="531.395"/>
      <point x="211.065" y="505.98"/>
    </contour>
  </outline>
</glyph>
<glyph name="plusminus" format="2">
  <advance width="601.04"/>
  <unicode hex="00B1"/>
  <outline>
    <contour>
      <point x="55.13999999999999" y="32.015" type="line"/>
      <point x="545.9" y="32.015" type="line"/>
      <point x="545.9" y="146.34" type="line"/>
      <point x="365.19" y="146.34" type="line"/>
      <point x="365.19" y="292.83" type="line"/>
      <point x="545.9" y="292.83" type="line"/>
      <point x="545.9" y="407.155" type="line"/>
      <point x="365.19" y="407.155" type="line"/>
      <point x="365.19" y="561.0" type="line"/>
      <point x="235.465" y="561.0" type="line"/>
      <point x="235.465" y="407.155" type="line"/>
      <point x="55.13999999999999" y="407.155" type="line"/>
      <point x="55.13999999999999" y="292.83" type="line"/>
      <point x="235.465" y="292.83" type="line"/>
      <point x="235.465" y="146.34" type="line"/>
      <point x="55.13999999999999" y="146.34" type="line"/>
    </contour>
  </outline>
</glyph>
<glyph name="uni00B2" format="2">
  <advance width="515.615"/>
  <unicode hex="00B2"/>
  <outline>
    <contour>
      <point x="53.00999999999999" y="370.0" type="line"/>
      <point x="466.02000000000004" y="370.0" type="line"/>
      <point x="466.02000000000004" y="440.34" type="line"/>
      <point x="227.13" y="440.34" type="line"/>
      <point x="377.03499999999997" y="531.015"/>
      <point x="410.045" y="577.3149999999999"/>
      <point x="410.045" y="643.105" type="curve" smooth="yes"/>
      <point x="410.045" y="723.6450000000001"/>
      <point x="343.65" y="772.79"/>
      <point x="235.575" y="772.79" type="curve" smooth="yes"/>
      <point x="176.025" y="772.79"/>
      <point x="103.98500000000001" y="756.42"/>
      <point x="57.559999999999995" y="730.9750000000001" type="curve"/>
      <point x="85.995" y="658.19" type="line"/>
      <point x="133.81499999999997" y="680.1750000000001"/>
      <point x="170.58999999999997" y="688.8000000000001"/>
      <point x="209.345" y="688.8000000000001" type="curve" smooth="yes"/>
      <point x="261.68" y="688.8000000000001"/>
      <point x="289.995" y="663.1250000000001"/>
      <point x="289.995" y="623.2599999999999" type="curve" smooth="yes"/>
      <point x="289.995" y="570.78"/>
      <point x="232.05499999999998" y="524.455"/>
      <point x="51.66" y="432.34499999999997" type="curve"/>
    </contour>
  </outline>
</glyph>
<glyph name="uni00B3" format="2">
  <advance width="506.77"/>
  <unicode hex="00B3"/>
  <outline>
    <contour>
      <point x="25.925" y="397.48" type="line"/>
      <point x="89.515" y="370.96000000000004"/>
      <point x="156.44499999999996" y="362.14500000000004"/>
      <point x="234.475" y="362.14500000000004" type="curve" smooth="yes"/>
      <point x="377.685" y="362.14500000000004"/>
      <point x="471.045" y="402.935"/>
      <point x="471.045" y="486.525" type="curve" smooth="yes"/>
      <point x="471.045" y="535.825"/>
      <point x="437.61499999999995" y="567.18"/>
      <point x="369.865" y="580.16" type="curve"/>
      <point x="417.95000000000005" y="590.5450000000001"/>
      <point x="450.29" y="622.9200000000001"/>
      <point x="450.29" y="669.015" type="curve" smooth="yes"/>
      <point x="450.29" y="733.2199999999999"/>
      <point x="381.67" y="773.48"/>
      <point x="239.12999999999997" y="773.48" type="curve" smooth="yes"/>
      <point x="151.415" y="773.48"/>
      <point x="80.60999999999999" y="761.83"/>
      <point x="43.135" y="748.755" type="curve"/>
      <point x="62.265" y="679.34" type="line"/>
      <point x="80.38499999999999" y="684.515"/>
      <point x="121.16499999999999" y="698.14"/>
      <point x="210.44" y="698.14" type="curve" smooth="yes"/>
      <point x="287.29" y="698.14"/>
      <point x="342.47499999999997" y="678.725"/>
      <point x="342.47499999999997" y="647.7750000000001" type="curve" smooth="yes"/>
      <point x="342.47499999999997" y="619.095"/>
      <point x="312.975" y="602.7950000000001"/>
      <point x="256.23" y="602.7950000000001" type="curve" smooth="yes"/>
      <point x="135.405" y="602.7950000000001" type="line"/>
      <point x="135.405" y="539.755" type="line"/>
      <point x="242.32999999999998" y="539.755" type="line" smooth="yes"/>
      <point x="330.30999999999995" y="539.755"/>
      <point x="358.56" y="524.4300000000001"/>
      <point x="358.56" y="493.125" type="curve" smooth="yes"/>
      <point x="358.56" y="455.56"/>
      <point x="312.84499999999997" y="432.62"/>
      <point x="223.285" y="432.62" type="curve" smooth="yes"/>
      <point x="135.455" y="432.62"/>
      <point x="90.72999999999999" y="442.045"/>
      <point x="48.690000000000005" y="461.725" type="curve"/>
    </contour>
  </outline>
</glyph>
<glyph name="uni00B5" format="2">
  <advance width="734.8"/>
  <unicode hex="00B5"/>
  <outline>
    <contour>
      <point x="68.925" y="-210.0" type="line"/>
      <point x="220.815" y="-210.0" type="line"/>
      <point x="220.815" y="27.015" type="line"/>
      <point x="239.29" y="3.5100000000000016"/>
      <point x="270.56" y="-9.67"/>
      <point x="314.815" y="-9.67" type="curve" smooth="yes"/>
      <point x="392.47999999999996" y="-9.67"/>
      <point x="448.38499999999993" y="17.72"/>
      <point x="514.0749999999999" y="59.77499999999999" type="curve"/>
      <point x="533.7049999999999" y="11.965"/>
      <point x="567.585" y="-10.0"/>
      <point x="624.22" y="-10.0" type="curve" smooth="yes"/>
      <point x="662.9100000000001" y="-10.0"/>
      <point x="704.3199999999999" y="1.28"/>
      <point x="729.385" y="16.270000000000003" type="curve"/>
      <point x="715.495" y="109.955" type="line"/>
      <point x="706.72" y="106.0"/>
      <point x="697.725" y="104.235"/>
      <point x="688.605" y="104.235" type="curve" smooth="yes"/>
      <point x="665.675" y="104.235"/>
      <point x="646.4499999999999" y="118.96"/>
      <point x="646.4499999999999" y="165.25" type="curve" smooth="yes"/>
      <point x="646.4499999999999" y="541.0" type="line"/>
      <point x="493.075" y="541.0" type="line"/>
      <point x="493.075" y="152.53000000000003" type="line"/>
      <point x="431.78999999999996" y="123.67500000000001"/>
      <point x="388.43999999999994" y="106.14500000000001"/>
      <point x="328.96" y="106.14500000000001" type="curve" smooth="yes"/>
      <point x="260.22499999999997" y="106.14500000000001"/>
      <point x="222.465" y="141.865"/>
      <point x="222.465" y="208.225" type="curve" smooth="yes"/>
      <point x="222.465" y="541.0" type="line"/>
      <point x="68.925" y="541.0" type="line"/>
    </contour>
  </outline>
</glyph>
<glyph name="paragraph" format="2">
  <advance width="770.5349999999999"/>
  <unicode hex="00B6"/>
  <outline>
    <contour>
      <point x="559.6949999999999" y="-210.0" type="line"/>
      <point x="679.685" y="-210.0" type="line"/>
      <point x="679.685" y="740.0" type="line"/>
      <point x="559.6949999999999" y="740.0" type="line"/>
    </contour>
    <contour>
      <point x="307.2950000000001" y="283.165" type="line"/>
      <point x="226.93" y="294.32000000000005"/>
      <point x="186.57" y="354.82"/>
      <point x="186.57" y="457.65000000000003" type="curve" smooth="yes"/>
      <point x="186.57" y="571.195"/>
      <point x="237.42499999999998" y="623.995"/>
      <point x="354.215" y="625.615" type="curve"/>
      <point x="354.215" y="-210.0" type="line"/>
      <point x="474.205" y="-210.0" type="line"/>
      <point x="474.205" y="740.0" type="line"/>
      <point x="388.775" y="740.0" type="line" smooth="yes"/>
      <point x="146.28" y="740.0"/>
      <point x="55.964999999999996" y="644.595"/>
      <point x="55.964999999999996" y="471.565" type="curve" smooth="yes"/>
      <point x="55.964999999999996" y="312.12"/>
      <point x="130.815" y="217.54999999999998"/>
      <point x="293.825" y="200.245" type="curve"/>
    </contour>
  </outline>
</glyph>
<glyph name="periodcentered" format="2">
  <advance width="265.49999999999994"/>
  <unicode hex="00B7"/>
  <outline>
    <contour>
      <point x="46.999999999999986" y="305.11000000000007" type="curve" smooth="yes"/>
      <point x="46.999999999999986" y="255.67000000000002"/>
      <point x="70.33999999999999" y="233.77"/>
      <point x="132.74999999999997" y="233.77" type="curve" smooth="yes"/>
      <point x="196.05999999999995" y="233.77"/>
      <point x="218.5" y="255.67000000000002"/>
      <point x="218.5" y="305.11000000000007" type="curve" smooth="yes"/>
      <point x="218.5" y="355.1"/>
      <point x="196.05999999999995" y="376.99999999999994"/>
      <point x="132.74999999999997" y="376.99999999999994" type="curve" smooth="yes"/>
      <point x="69.44" y="376.99999999999994"/>
      <point x="46.999999999999986" y="355.1"/>
    </contour>
  </outline>
</glyph>
<glyph name="uni00B9" format="2">
  <advance width="478.67999999999995"/>
  <unicode hex="00B9"/>
  <outline>
    <contour>
      <point x="49.275000000000006" y="370.0" type="line"/>
      <point x="454.21999999999997" y="370.0" type="line"/>
      <point x="454.21999999999997" y="442.4" type="line"/>
      <point x="322.11499999999995" y="442.4" type="line"/>
      <point x="322.11499999999995" y="766.8950000000001" type="line"/>
      <point x="262.795" y="766.8950000000001" type="line"/>
      <point x="27.72" y="681.36" type="line"/>
      <point x="55.825" y="602.6850000000001" type="line"/>
      <point x="203.01499999999996" y="659.0150000000001" type="line"/>
      <point x="203.01499999999996" y="442.4" type="line"/>
      <point x="49.275000000000006" y="442.4" type="line"/>
    </contour>
  </outline>
</glyph>
<glyph name="ordmasculine" format="2">
  <advance width="494.02000000000004"/>
  <unicode hex="00BA"/>
  <outline>
    <contour>
      <point x="52.205" y="221.76" type="line"/>
      <point x="445.68" y="221.76" type="line"/>
      <point x="445.68" y="302.71" type="line"/>
      <point x="52.205" y="302.71" type="line"/>
    </contour>
    <component base="o.superior" xOffset="9.620000000000001"/>
  </outline>
</glyph>
<glyph name="questiondown" format="2">
  <advance width="606.4350000000001"/>
  <unicode hex="00BF"/>
  <outline>
    <contour>
      <point x="393.625" y="278.495" type="line"/>
      <point x="262.745" y="278.495" type="line"/>
      <point x="261.97499999999997" y="218.19" type="line"/>
      <point x="100.37" y="171.58499999999998"/>
      <point x="34.985" y="107.375"/>
      <point x="34.985" y="-0.1499999999999999" type="curve" smooth="yes"/>
      <point x="34.985" y="-153.75"/>
      <point x="169.945" y="-211.035"/>
      <point x="308.155" y="-211.035" type="curve" smooth="yes"/>
      <point x="400.6" y="-211.035"/>
      <point x="514.9799999999999" y="-183.09500000000003"/>
      <point x="589.4599999999999" y="-136.10999999999999" type="curve"/>
      <point x="548.5" y="-26.219999999999995" type="line"/>
      <point x="476.885" y="-65.61499999999998"/>
      <point x="400.08" y="-86.22999999999999"/>
      <point x="332.575" y="-86.22999999999999" type="curve" smooth="yes"/>
      <point x="258.84999999999997" y="-86.22999999999999"/>
      <point x="194.26999999999998" y="-59.66999999999998"/>
      <point x="194.26999999999998" y="10.855000000000006" type="curve" smooth="yes"/>
      <point x="194.26999999999998" y="65.03"/>
      <point x="228.39999999999998" y="107.205"/>
      <point x="396.98" y="148.245" type="curve"/>
    </contour>
    <contour>
      <point x="411.95500000000004" y="473.84" type="curve" smooth="yes"/>
      <point x="411.95500000000004" y="522.785"/>
      <point x="389.14" y="544.6850000000001"/>
      <point x="326.47499999999997" y="544.6850000000001" type="curve" smooth="yes"/>
      <point x="263.69" y="544.6850000000001"/>
      <point x="241.13" y="522.785"/>
      <point x="241.13" y="473.84" type="curve" smooth="yes"/>
      <point x="241.13" y="424.345"/>
      <point x="263.69" y="402.445"/>
      <point x="326.47499999999997" y="402.445" type="curve" smooth="yes"/>
      <point x="389.725" y="402.445"/>
      <point x="411.95500000000004" y="424.345"/>
    </contour>
  </outline>
</glyph>
<glyph name="AE" format="2">
  <advance width="1293.8700000000001"/>
  <unicode hex="00C6"/>
  <anchor x="677.69" y="700.0" name="top"/>
  <outline>
    <contour>
      <point x="3.210000000000001" y="0.0" type="line"/>
      <point x="188.29999999999998" y="-0.45" type="line"/>
      <point x="344.66999999999996" y="208.45" type="line"/>
      <point x="598.27" y="208.45" type="line"/>
      <point x="598.27" y="0.0" type="line"/>
      <point x="1257.1999999999998" y="0.0" type="line"/>
      <point x="1257.1999999999998" y="128.59" type="line"/>
      <point x="756.83" y="128.59" type="line"/>
      <point x="756.83" y="291.68999999999994" type="line"/>
      <point x="1206.01" y="291.68999999999994" type="line"/>
      <point x="1206.01" y="415.53" type="line"/>
      <point x="756.83" y="415.53" type="line"/>
      <point x="756.83" y="571.26" type="line"/>
      <point x="1234.1399999999999" y="571.26" type="line"/>
      <point x="1234.1399999999999" y="700.0" type="line"/>
      <point x="525.01" y="700.0" type="line"/>
    </contour>
    <contour>
      <point x="423.17999999999995" y="330.05" type="line"/>
      <point x="597.76" y="583.5600000000002" type="line"/>
      <point x="597.76" y="330.05" type="line"/>
    </contour>
  </outline>
</glyph>
<glyph name="multiply" format="2">
  <advance width="555.52"/>
  <unicode hex="00D7"/>
  <outline>
    <contour>
      <point x="126.78999999999999" y="81.125" type="line"/>
      <point x="277.94" y="231.585" type="line"/>
      <point x="428.41499999999996" y="82.205" type="line"/>
      <point x="503.56499999999994" y="168.075" type="line"/>
      <point x="365.37" y="308.29499999999996" type="line"/>
      <point x="504.06" y="449.8" type="line"/>
      <point x="428.90999999999997" y="535.67" type="line"/>
      <point x="277.94" y="385.14" type="line"/>
      <point x="126.475" y="536.3" type="line"/>
      <point x="51.325" y="450.42999999999995" type="line"/>
      <point x="190.26" y="308.29499999999996" type="line"/>
      <point x="51.64" y="166.995" type="line"/>
    </contour>
  </outline>
</glyph>
<glyph name="Oslash" format="2">
  <advance width="951.5"/>
  <unicode hex="00D8"/>
  <anchor x="474.625" y="700.0" name="top"/>
  <outline>
    <contour>
      <point x="182.25" y="-13.65" type="line"/>
      <point x="276.04999999999995" y="71.40000000000002" type="line"/>
      <point x="278.82500000000005" y="68.92500000000001" type="line"/>
      <point x="757.05" y="566.6750000000001" type="line"/>
      <point x="759.9249999999998" y="564.475" type="line"/>
      <point x="901.65" y="715.5" type="line"/>
      <point x="767.125" y="715.5" type="line"/>
      <point x="676.25" y="626.175" type="line"/>
      <point x="673.425" y="628.5999999999999" type="line"/>
      <point x="195.07500000000002" y="138.5" type="line"/>
      <point x="192.64999999999998" y="139.6" type="line"/>
      <point x="48.949999999999996" y="-13.65" type="line"/>
    </contour>
    <contour>
      <point x="474.90000000000003" y="98.17500000000001" type="curve" smooth="yes"/>
      <point x="332.7249999999999" y="98.17500000000001"/>
      <point x="205.20000000000002" y="154.95000000000002"/>
      <point x="205.20000000000002" y="350.5" type="curve" smooth="yes"/>
      <point x="205.20000000000002" y="549.5250000000001"/>
      <point x="332.54999999999995" y="601.825"/>
      <point x="474.90000000000003" y="601.825" type="curve" smooth="yes"/>
      <point x="616.425" y="601.825"/>
      <point x="744.9499999999999" y="549.6249999999999"/>
      <point x="744.9499999999999" y="350.59999999999997" type="curve" smooth="yes"/>
      <point x="744.9499999999999" y="151.25"/>
      <point x="616.325" y="98.17500000000001"/>
    </contour>
    <contour>
      <point x="475.0749999999999" y="-10.0" type="curve" smooth="yes"/>
      <point x="728.6500000000001" y="-10.0"/>
      <point x="901.8249999999999" y="79.32500000000002"/>
      <point x="901.8249999999999" y="353.55" type="curve" smooth="yes"/>
      <point x="901.8249999999999" y="618.4000000000001"/>
      <point x="733.2000000000002" y="710.0"/>
      <point x="474.90000000000003" y="710.0" type="curve" smooth="yes"/>
      <point x="214.54999999999998" y="710.0"/>
      <point x="48.77499999999999" y="616.8999999999999"/>
      <point x="48.77499999999999" y="351.22499999999997" type="curve" smooth="yes"/>
      <point x="48.77499999999999" y="84.75"/>
      <point x="222.84999999999997" y="-10.0"/>
    </contour>
  </outline>
</glyph>
<glyph name="Thorn" format="2">
  <advance width="876.9150000000001"/>
  <unicode hex="00DE"/>
  <outline>
    <contour>
      <point x="83.03999999999999" y="0.0" type="line"/>
      <point x="244.28000000000003" y="0.0" type="line"/>
      <point x="244.28000000000003" y="131.28" type="line"/>
      <point x="363.26500000000004" y="127.685"/>
      <point x="367.315" y="127.37"/>
      <point x="477.475" y="127.37" type="curve" smooth="yes"/>
      <point x="742.3949999999999" y="127.37"/>
      <point x="832.365" y="196.74"/>
      <point x="832.365" y="384.67" type="curve" smooth="yes"/>
      <point x="832.365" y="565.2500000000001"/>
      <point x="754.8299999999999" y="632.505"/>
      <point x="429.14" y="632.505" type="curve" smooth="yes"/>
      <point x="393.585" y="632.505"/>
      <point x="338.09" y="631.355"/>
      <point x="244.44500000000002" y="628.18" type="curve"/>
      <point x="244.44500000000002" y="700.0" type="line"/>
      <point x="83.03999999999999" y="700.0" type="line"/>
    </contour>
    <contour>
      <point x="417.88" y="245.32500000000002" type="curve" smooth="yes"/>
      <point x="356.64" y="245.32500000000002"/>
      <point x="322.445" y="246.655"/>
      <point x="244.44500000000002" y="249.605" type="curve"/>
      <point x="244.44500000000002" y="511.4049999999999" type="line"/>
      <point x="356.43" y="516.3649999999999"/>
      <point x="388.66499999999996" y="517.13"/>
      <point x="441.65" y="517.13" type="curve" smooth="yes"/>
      <point x="623.76" y="517.13"/>
      <point x="668.43" y="477.635"/>
      <point x="668.43" y="385.85999999999996" type="curve" smooth="yes"/>
      <point x="668.43" y="287.84"/>
      <point x="629.255" y="245.32500000000002"/>
    </contour>
  </outline>
</glyph>
<glyph name="germandbls" format="2">
  <advance width="859.16"/>
  <unicode hex="00DF"/>
  <outline>
    <contour>
      <point x="120.6" y="0.0" type="line"/>
      <point x="273.84" y="0.0" type="line"/>
      <point x="273.84" y="488.38" type="line" smooth="yes"/>
      <point x="273.84" y="595.83"/>
      <point x="345.64" y="643.49"/>
      <point x="478.14000000000004" y="643.49" type="curve" smooth="yes"/>
      <point x="594.17" y="643.49"/>
      <point x="625.5" y="625.96"/>
      <point x="625.5" y="585.63" type="curve" smooth="yes"/>
      <point x="625.5" y="554.9899999999999"/>
      <point x="603.16" y="542.4400000000002"/>
      <point x="527.3699999999999" y="523.8100000000001" type="curve" smooth="yes"/>
      <point x="412.58000000000004" y="500.64"/>
      <point x="367.11999999999995" y="450.89"/>
      <point x="367.11999999999995" y="376.59000000000003" type="curve" smooth="yes"/>
      <point x="367.11999999999995" y="279.69"/>
      <point x="415.07000000000005" y="238.32999999999996"/>
      <point x="594.3" y="212.96" type="curve" smooth="yes"/>
      <point x="683.5899999999999" y="198.09000000000003"/>
      <point x="714.4800000000001" y="186.55"/>
      <point x="714.4800000000001" y="148.23000000000002" type="curve" smooth="yes"/>
      <point x="714.4800000000001" y="107.10000000000001"/>
      <point x="657.1499999999999" y="90.61"/>
      <point x="589.8100000000001" y="90.61" type="curve" smooth="yes"/>
      <point x="516.7399999999999" y="90.61"/>
      <point x="420.0499999999999" y="106.14000000000001"/>
      <point x="349.19" y="126.52000000000002" type="curve"/>
      <point x="331.38" y="24.31" type="line"/>
      <point x="413.15" y="0.8699999999999986"/>
      <point x="501.9799999999999" y="-10.43"/>
      <point x="582.8399999999999" y="-10.43" type="curve" smooth="yes"/>
      <point x="719.42" y="-10.43"/>
      <point x="856.57" y="30.0"/>
      <point x="856.57" y="159.32000000000002" type="curve" smooth="yes"/>
      <point x="856.57" y="257.53000000000003"/>
      <point x="797.0500000000001" y="300.96000000000004"/>
      <point x="629.0999999999998" y="325.02000000000004" type="curve" smooth="yes"/>
      <point x="533.3499999999999" y="339.07000000000005"/>
      <point x="503.44" y="349.74"/>
      <point x="503.44" y="385.1" type="curve" smooth="yes"/>
      <point x="503.44" y="417.02000000000004"/>
      <point x="533.2499999999999" y="423.5299999999999"/>
      <point x="597.5" y="438.61" type="curve" smooth="yes"/>
      <point x="710.84" y="467.01"/>
      <point x="767.2099999999999" y="498.6499999999999"/>
      <point x="767.2099999999999" y="583.25" type="curve" smooth="yes"/>
      <point x="767.2099999999999" y="696.98"/>
      <point x="669.06" y="750.0"/>
      <point x="473.64" y="750.0" type="curve" smooth="yes"/>
      <point x="237.89" y="750.0"/>
      <point x="120.49999999999999" y="673.73"/>
      <point x="120.6" y="512.18" type="curve" smooth="yes"/>
      <point x="120.6" y="491.26" type="line"/>
      <point x="22.39" y="480.0" type="line"/>
      <point x="22.39" y="388.90999999999997" type="line"/>
      <point x="120.6" y="388.90999999999997" type="line"/>
    </contour>
  </outline>
</glyph>
<glyph name="ae" format="2">
  <advance width="1091.39"/>
  <unicode hex="00E6"/>
  <anchor x="556.6800000000001" y="541.0" name="top"/>
  <outline>
    <contour>
      <point x="216.16" y="-10.0" type="curve" smooth="yes"/>
      <point x="339.9599999999999" y="-10.0"/>
      <point x="408.9299999999999" y="23.4"/>
      <point x="495.03" y="81.84" type="curve"/>
      <point x="496.54999999999995" y="81.84" type="line"/>
      <point x="550.3299999999999" y="17.73"/>
      <point x="634.87" y="-10.0"/>
      <point x="770.3199999999998" y="-10.0" type="curve" smooth="yes"/>
      <point x="885.7199999999998" y="-10.0"/>
      <point x="966.4199999999998" y="2.6499999999999986"/>
      <point x="1047.7399999999998" y="23.110000000000003" type="curve"/>
      <point x="1029.58" y="128.82999999999998" type="line"/>
      <point x="956.8599999999998" y="113.24000000000001"/>
      <point x="870.38" y="100.53999999999999"/>
      <point x="783.42" y="100.53999999999999" type="curve" smooth="yes"/>
      <point x="662.3900000000001" y="100.53999999999999"/>
      <point x="608.9" y="134.39"/>
      <point x="604.66" y="222.45" type="curve" smooth="yes"/>
      <point x="603.6899999999999" y="227.99"/>
      <point x="603.6899999999999" y="232.58"/>
      <point x="604.6" y="238.69" type="curve"/>
      <point x="819.8500000000001" y="241.89"/>
      <point x="973.2799999999999" y="255.01"/>
      <point x="1048.6499999999999" y="259.59999999999997" type="curve"/>
      <point x="1049.1799999999998" y="271.87000000000006"/>
      <point x="1050.1999999999998" y="287.47"/>
      <point x="1050.1999999999998" y="303.94" type="curve" smooth="yes"/>
      <point x="1050.1999999999998" y="473.08000000000004"/>
      <point x="954.3999999999999" y="551.0"/>
      <point x="764.6399999999999" y="551.0" type="curve" smooth="yes"/>
      <point x="657.5600000000001" y="551.0"/>
      <point x="587.29" y="518.49"/>
      <point x="543.59" y="454.28000000000003" type="curve"/>
      <point x="542.52" y="454.28000000000003" type="line"/>
      <point x="502.66" y="519.9499999999999"/>
      <point x="441.50999999999993" y="551.0"/>
      <point x="316.88" y="551.0" type="curve" smooth="yes"/>
      <point x="244.33999999999997" y="551.0"/>
      <point x="157.5" y="539.37"/>
      <point x="76.44999999999999" y="518.3000000000001" type="curve"/>
      <point x="96.78999999999998" y="410.96" type="line"/>
      <point x="168.10999999999999" y="429.37000000000006"/>
      <point x="251.91000000000003" y="439.27000000000004"/>
      <point x="306.9099999999999" y="439.27000000000004" type="curve" smooth="yes"/>
      <point x="404.31999999999994" y="439.27000000000004"/>
      <point x="449.05999999999995" y="410.81"/>
      <point x="449.05999999999995" y="358.09000000000003" type="curve" smooth="yes"/>
      <point x="449.05999999999995" y="323.71000000000004" type="line"/>
      <point x="141.40999999999997" y="312.8"/>
      <point x="37.61" y="274.81"/>
      <point x="37.61" y="142.92" type="curve" smooth="yes"/>
      <point x="37.61" y="44.309999999999995"/>
      <point x="102.69999999999999" y="-10.0"/>
    </contour>
    <contour>
      <point x="273.35999999999996" y="83.44000000000001" type="curve" smooth="yes"/>
      <point x="224.36999999999998" y="83.44000000000001"/>
      <point x="194.84" y="104.24999999999999"/>
      <point x="194.84" y="149.45" type="curve" smooth="yes"/>
      <point x="194.84" y="220.23000000000002"/>
      <point x="260.0" y="237.99"/>
      <point x="448.69999999999993" y="246.66" type="curve"/>
      <point x="448.71999999999997" y="239.09"/>
      <point x="448.71999999999997" y="230.86"/>
      <point x="448.71999999999997" y="220.38" type="curve" smooth="yes"/>
      <point x="448.71999999999997" y="195.93999999999997"/>
      <point x="449.99999999999994" y="175.53"/>
      <point x="454.1499999999999" y="157.77" type="curve"/>
      <point x="410.27" y="114.97"/>
      <point x="335.94" y="83.44000000000001"/>
    </contour>
    <contour>
      <point x="605.5" y="320.65999999999997" type="curve"/>
      <point x="615.8599999999999" y="416.75"/>
      <point x="676.4400000000002" y="451.28000000000003"/>
      <point x="755.35" y="451.28000000000003" type="curve" smooth="yes"/>
      <point x="838.48" y="451.28000000000003"/>
      <point x="885.8999999999999" y="411.89000000000004"/>
      <point x="892.55" y="331.40999999999997" type="curve"/>
      <point x="842.8499999999999" y="328.59999999999997"/>
      <point x="739.55" y="320.73"/>
    </contour>
  </outline>
</glyph>
<glyph name="eth" format="2">
  <advance width="727.8"/>
  <unicode hex="00F0"/>
  <outline>
    <contour>
      <point x="564.3000000000001" y="386.95000000000005" type="curve"/>
      <point x="567.05" y="479.00000000000006" type="line"/>
      <point x="503.4" y="514.65"/>
      <point x="436.44999999999993" y="529.8499999999999"/>
      <point x="346.15" y="529.8499999999999" type="curve" smooth="yes"/>
      <point x="134.55" y="529.8499999999999"/>
      <point x="39.1" y="432.05000000000007"/>
      <point x="39.1" y="251.75000000000003" type="curve" smooth="yes"/>
      <point x="39.1" y="78.0"/>
      <point x="141.9" y="-10.0"/>
      <point x="343.85" y="-10.0" type="curve" smooth="yes"/>
      <point x="585.3" y="-10.0"/>
      <point x="689.5500000000001" y="94.14999999999999"/>
      <point x="689.5500000000001" y="360.2" type="curve" smooth="yes"/>
      <point x="689.5500000000001" y="627.6999999999999"/>
      <point x="544.5500000000001" y="738.7499999999999"/>
      <point x="289.15" y="738.7499999999999" type="curve" smooth="yes"/>
      <point x="212.85" y="738.7499999999999"/>
      <point x="138.3" y="730.45"/>
      <point x="50.3" y="711.8" type="curve"/>
      <point x="62.34999999999999" y="623.1" type="line"/>
      <point x="144.25000000000003" y="637.85"/>
      <point x="194.7" y="646.1"/>
      <point x="257.3" y="646.1" type="curve" smooth="yes"/>
      <point x="466.75" y="646.1"/>
      <point x="542.55" y="577.3"/>
      <point x="542.55" y="356.95" type="curve" smooth="yes"/>
      <point x="542.55" y="154.3"/>
      <point x="489.3999999999999" y="93.2"/>
      <point x="361.0" y="93.2" type="curve" smooth="yes"/>
      <point x="249.54999999999995" y="93.2"/>
      <point x="193.89999999999998" y="142.45"/>
      <point x="193.89999999999998" y="256.59999999999997" type="curve" smooth="yes"/>
      <point x="193.89999999999998" y="383.84999999999997"/>
      <point x="252.10000000000002" y="434.80000000000007"/>
      <point x="372.7" y="434.80000000000007" type="curve" smooth="yes"/>
      <point x="446.5" y="434.80000000000007"/>
      <point x="510.30000000000007" y="417.59999999999997"/>
    </contour>
    <contour>
      <point x="235.04999999999998" y="547.1" type="line"/>
      <point x="466.15000000000003" y="648.6" type="line"/>
      <point x="465.55" y="654.4" type="line"/>
      <point x="674.1999999999999" y="747.3" type="line"/>
      <point x="523.6500000000001" y="747.3499999999999" type="line"/>
      <point x="390.15" y="688.15" type="line"/>
      <point x="395.65" y="684.55" type="line"/>
      <point x="84.29999999999997" y="547.15" type="line"/>
    </contour>
  </outline>
</glyph>
<glyph name="divide" format="2">
  <advance width="596.9899999999999"/>
  <unicode hex="00F7"/>
  <outline>
    <contour>
      <point x="228.39" y="118.13000000000002" type="curve" smooth="yes"/>
      <point x="228.39" y="78.64999999999999"/>
      <point x="247.88" y="62.14999999999998"/>
      <point x="298.71999999999997" y="62.14999999999998" type="curve" smooth="yes"/>
      <point x="350.5" y="62.14999999999998"/>
      <point x="369.12" y="78.64999999999999"/>
      <point x="369.12" y="118.13000000000002" type="curve" smooth="yes"/>
      <point x="369.12" y="157.33"/>
      <point x="350.50000000000006" y="174.73000000000002"/>
      <point x="298.71999999999997" y="174.73000000000002" type="curve" smooth="yes"/>
      <point x="246.98" y="174.73000000000002"/>
      <point x="228.39" y="157.33"/>
    </contour>
    <contour>
      <point x="228.39" y="496.5799999999999" type="curve" smooth="yes"/>
      <point x="228.39" y="458.0"/>
      <point x="247.88" y="440.6"/>
      <point x="298.71999999999997" y="440.6" type="curve" smooth="yes"/>
      <point x="350.5" y="440.6"/>
      <point x="369.12" y="458.0"/>
      <point x="369.12" y="496.5799999999999" type="curve" smooth="yes"/>
      <point x="369.12" y="536.6800000000002"/>
      <point x="350.5" y="553.6300000000001"/>
      <point x="298.71999999999997" y="553.6300000000001" type="curve" smooth="yes"/>
      <point x="246.98" y="553.6300000000001"/>
      <point x="228.39" y="536.6800000000002"/>
    </contour>
    <contour>
      <point x="55.40999999999999" y="250.34999999999997" type="line"/>
      <point x="542.03" y="250.34999999999997" type="line"/>
      <point x="542.03" y="364.8999999999999" type="line"/>
      <point x="55.40999999999999" y="364.8999999999999" type="line"/>
    </contour>
  </outline>
</glyph>
<glyph name="oslash" format="2">
  <advance width="738.4500000000002"/>
  <unicode hex="00F8"/>
  <anchor x="368.70000000000005" y="541.0" name="top"/>
  <outline>
    <contour>
      <point x="368.75" y="-10.0" type="curve" smooth="yes"/>
      <point x="134.95000000000002" y="-10.0"/>
      <point x="40.19999999999999" y="87.64999999999999"/>
      <point x="40.19999999999999" y="272.05" type="curve" smooth="yes"/>
      <point x="40.19999999999999" y="447.40000000000003"/>
      <point x="121.99999999999999" y="551.0"/>
      <point x="368.75" y="551.0" type="curve" smooth="yes"/>
      <point x="614.55" y="551.0"/>
      <point x="697.3000000000001" y="447.40000000000003"/>
      <point x="697.3000000000001" y="272.05" type="curve" smooth="yes"/>
      <point x="697.3000000000001" y="87.64999999999999"/>
      <point x="602.4999999999999" y="-10.0"/>
    </contour>
    <contour>
      <point x="368.70000000000005" y="87.4" type="curve" smooth="yes"/>
      <point x="496.0" y="87.4"/>
      <point x="547.3500000000001" y="143.14999999999998"/>
      <point x="547.3500000000001" y="272.0" type="curve" smooth="yes"/>
      <point x="547.3500000000001" y="394.90000000000003"/>
      <point x="503.84999999999997" y="453.65"/>
      <point x="368.70000000000005" y="453.65" type="curve" smooth="yes"/>
      <point x="233.09999999999997" y="453.65"/>
      <point x="189.65" y="394.90000000000003"/>
      <point x="189.65" y="272.0" type="curve" smooth="yes"/>
      <point x="189.65" y="143.14999999999998"/>
      <point x="240.9" y="87.4"/>
    </contour>
    <contour>
      <point x="40.1" y="-8.149999999999999" type="line"/>
      <point x="156.54999999999998" y="111.80000000000001" type="line"/>
      <point x="157.1" y="111.35" type="line"/>
      <point x="516.3499999999999" y="482.69999999999993" type="line"/>
      <point x="516.8999999999999" y="482.25" type="line"/>
      <point x="582.8000000000002" y="551.0" type="line"/>
      <point x="697.3999999999999" y="551.0" type="line"/>
      <point x="582.2499999999999" y="431.54999999999995" type="line"/>
      <point x="581.6999999999999" y="432.0" type="line"/>
      <point x="222.89999999999998" y="62.8" type="line"/>
      <point x="222.35000000000002" y="63.249999999999986" type="line"/>
      <point x="152.7" y="-8.149999999999999" type="line"/>
    </contour>
  </outline>
</glyph>
<glyph name="thorn" format="2">
  <advance width="731.9150000000001"/>
  <unicode hex="00FE"/>
  <outline>
    <contour>
      <point x="68.925" y="-210.0" type="line"/>
      <point x="222.35500000000002" y="-210.0" type="line"/>
      <point x="222.35500000000002" y="0.42499999999999893" type="line"/>
      <point x="266.12" y="-6.51"/>
      <point x="311.77" y="-10.0"/>
      <point x="353.03999999999996" y="-10.0" type="curve" smooth="yes"/>
      <point x="590.135" y="-10.0"/>
      <point x="691.875" y="74.50999999999999"/>
      <point x="691.875" y="276.65999999999997" type="curve" smooth="yes"/>
      <point x="691.875" y="454.17"/>
      <point x="598.5999999999999" y="551.0"/>
      <point x="429.33500000000004" y="551.0" type="curve" smooth="yes"/>
      <point x="363.43999999999994" y="551.0"/>
      <point x="293.44000000000005" y="536.665"/>
      <point x="222.685" y="509.41999999999996" type="curve"/>
      <point x="222.685" y="740.0" type="line"/>
      <point x="68.925" y="740.0" type="line"/>
    </contour>
    <contour>
      <point x="354.17999999999995" y="92.055" type="curve" smooth="yes"/>
      <point x="315.795" y="92.055"/>
      <point x="271.14" y="97.25"/>
      <point x="222.465" y="108.225" type="curve"/>
      <point x="222.465" y="409.74" type="line"/>
      <point x="275.395" y="425.295"/>
      <point x="325.43" y="432.91499999999996"/>
      <point x="367.055" y="432.91499999999996" type="curve" smooth="yes"/>
      <point x="478.25499999999994" y="432.91499999999996"/>
      <point x="535.145" y="380.01500000000004"/>
      <point x="535.145" y="267.805" type="curve" smooth="yes"/>
      <point x="535.145" y="141.67499999999998"/>
      <point x="478.59000000000003" y="92.055"/>
    </contour>
  </outline>
</glyph>
<glyph name="Dcroat" format="2">
  <advance width="916.3899999999999"/>
  <unicode hex="0110"/>
  <outline>
    <contour>
      <point x="7.440000000000001" y="302.15999999999997" type="line"/>
      <point x="418.88" y="302.15999999999997" type="line"/>
      <point x="418.88" y="409.55" type="line"/>
      <point x="7.440000000000001" y="409.55" type="line"/>
    </contour>
    <component base="D" xOffset="3.7100000000000004"/>
  </outline>
</glyph>
<glyph name="dcroat" format="2">
  <advance width="738.19"/>
  <unicode hex="0111"/>
  <outline>
    <contour>
      <point x="311.73" y="603.15" type="line"/>
      <point x="746.55" y="603.15" type="line"/>
      <point x="746.55" y="678.8" type="line"/>
      <point x="311.73" y="678.8" type="line"/>
    </contour>
    <component base="d"/>
  </outline>
</glyph>
<glyph name="Hbar" format="2">
  <advance width="929.7849999999999"/>
  <unicode hex="0126"/>
  <outline>
    <contour>
      <point x="24.779999999999994" y="496.355" type="line"/>
      <point x="83.705" y="496.355" type="line"/>
      <point x="83.705" y="0.0" type="line"/>
      <point x="244.78" y="0.0" type="line"/>
      <point x="244.78" y="249.80500000000004" type="line"/>
      <point x="688.855" y="249.80500000000004" type="line"/>
      <point x="688.855" y="0.0" type="line"/>
      <point x="846.08" y="0.0" type="line"/>
      <point x="846.08" y="496.355" type="line"/>
      <point x="905.005" y="496.355" type="line"/>
      <point x="905.005" y="591.295" type="line"/>
      <point x="846.08" y="591.295" type="line"/>
      <point x="846.08" y="700.0" type="line"/>
      <point x="688.855" y="700.0" type="line"/>
      <point x="688.855" y="591.295" type="line"/>
      <point x="244.78" y="591.295" type="line"/>
      <point x="244.78" y="700.0" type="line"/>
      <point x="83.705" y="700.0" type="line"/>
      <point x="83.705" y="591.295" type="line"/>
      <point x="24.779999999999994" y="591.295" type="line"/>
    </contour>
    <contour>
      <point x="244.78" y="381.59499999999997" type="line"/>
      <point x="244.78" y="496.355" type="line"/>
      <point x="688.855" y="496.355" type="line"/>
      <point x="688.855" y="381.59499999999997" type="line"/>
    </contour>
  </outline>
</glyph>
<glyph name="hbar" format="2">
  <advance width="728.9949999999999"/>
  <unicode hex="0127"/>
  <outline>
    <contour>
      <point x="-8.31" y="602.925" type="line"/>
      <point x="442.37499999999994" y="602.925" type="line"/>
      <point x="442.37499999999994" y="673.175" type="line"/>
      <point x="-8.31" y="673.175" type="line"/>
    </contour>
    <component base="h"/>
  </outline>
</glyph>
<glyph name="Idotaccent" format="2">
  <advance width="327.155"/>
  <unicode hex="0130"/>
  <outline>
    <contour>
      <point x="163.825" y="768.4350000000001" type="curve" smooth="yes"/>
      <point x="231.365" y="768.4350000000001"/>
      <point x="256.54" y="789.62"/>
      <point x="256.54" y="836.585" type="curve" smooth="yes"/>
      <point x="256.54" y="883.88"/>
      <point x="231.035" y="904.9000000000001"/>
      <point x="163.825" y="904.9000000000001" type="curve" smooth="yes"/>
      <point x="96.44999999999999" y="904.9000000000001"/>
      <point x="70.945" y="883.88"/>
      <point x="70.945" y="836.585" type="curve" smooth="yes"/>
      <point x="70.945" y="789.455"/>
      <point x="96.89999999999998" y="768.4350000000001"/>
    </contour>
    <component base="I"/>
  </outline>
</glyph>
<glyph name="dotlessi" format="2">
  <advance width="291.71999999999997"/>
  <unicode hex="0131"/>
  <anchor x="210.27" y="5.5" name="ogonek"/>
  <anchor x="146.19" y="0.0" name="bottom"/>
  <anchor x="145.85999999999999" y="541.0" name="top"/>
  <outline>
    <contour>
      <point x="68.925" y="0.0" type="line"/>
      <point x="222.79500000000002" y="0.0" type="line"/>
      <point x="222.79500000000002" y="541.0" type="line"/>
      <point x="68.925" y="541.0" type="line"/>
    </contour>
  </outline>
</glyph>
<glyph name="Ldot" format="2">
  <advance width="730.65"/>
  <unicode hex="013F"/>
  <outline>
    <contour>
      <point x="443.64" y="405.715" type="curve" smooth="yes"/>
      <point x="443.64" y="361.39"/>
      <point x="464.7" y="341.8"/>
      <point x="523.375" y="341.8" type="curve" smooth="yes"/>
      <point x="582.665" y="341.8"/>
      <point x="603.2749999999999" y="361.39"/>
      <point x="603.2749999999999" y="405.715" type="curve" smooth="yes"/>
      <point x="603.2749999999999" y="450.59"/>
      <point x="582.665" y="470.17999999999995"/>
      <point x="523.375" y="470.17999999999995" type="curve" smooth="yes"/>
      <point x="464.24999999999994" y="470.17999999999995"/>
      <point x="443.64" y="450.59"/>
    </contour>
    <component base="L"/>
  </outline>
</glyph>
<glyph name="ldot" format="2">
  <advance width="406.97499999999997"/>
  <unicode hex="0140"/>
  <outline>
    <contour>
      <point x="360.65000000000003" y="335.615" type="curve" smooth="yes"/>
      <point x="396.4" y="335.615"/>
      <point x="409.145" y="350.255"/>
      <point x="409.145" y="386.77" type="curve" smooth="yes"/>
      <point x="409.145" y="423.45"/>
      <point x="396.4" y="438.09000000000003"/>
      <point x="360.65000000000003" y="438.09000000000003" type="curve" smooth="yes"/>
      <point x="325.065" y="438.09000000000003"/>
      <point x="312.32" y="423.45"/>
      <point x="312.32" y="386.77" type="curve" smooth="yes"/>
      <point x="312.32" y="350.255"/>
      <point x="325.515" y="335.615"/>
    </contour>
    <component base="l"/>
  </outline>
</glyph>
<glyph name="Lslash" format="2">
  <advance width="736.6949999999999"/>
  <unicode hex="0141"/>
  <outline>
    <contour>
      <point x="11.65" y="172.975" type="line"/>
      <point x="89.085" y="215.475" type="line"/>
      <point x="89.085" y="0.0" type="line"/>
      <point x="711.8949999999999" y="0.0" type="line"/>
      <point x="711.8949999999999" y="130.635" type="line"/>
      <point x="250.32500000000002" y="130.635" type="line"/>
      <point x="250.32500000000002" y="288.745" type="line"/>
      <point x="506.555" y="426.475" type="line"/>
      <point x="506.555" y="554.035" type="line"/>
      <point x="250.32500000000002" y="416.44" type="line"/>
      <point x="250.32500000000002" y="700.0" type="line"/>
      <point x="89.085" y="700.0" type="line"/>
      <point x="89.085" y="343.17" type="line"/>
      <point x="11.65" y="300.67" type="line"/>
    </contour>
  </outline>
</glyph>
<glyph name="lslash" format="2">
  <advance width="390.805"/>
  <unicode hex="0142"/>
  <outline>
    <contour>
      <point x="239.73999999999998" y="-10.0" type="curve" smooth="yes"/>
      <point x="295.205" y="-10.0"/>
      <point x="350.555" y="0.48999999999999977"/>
      <point x="394.36499999999995" y="13.435" type="curve"/>
      <point x="377.825" y="128.615" type="line"/>
      <point x="346.59" y="122.10500000000002"/>
      <point x="319.005" y="117.36000000000001"/>
      <point x="295.73" y="117.36000000000001" type="curve" smooth="yes"/>
      <point x="257.695" y="117.36000000000001"/>
      <point x="228.29500000000002" y="132.805"/>
      <point x="228.29500000000002" y="201.76" type="curve" smooth="yes"/>
      <point x="228.29500000000002" y="303.72499999999997" type="line"/>
      <point x="347.7" y="392.36" type="line"/>
      <point x="347.7" y="505.45" type="line"/>
      <point x="228.29500000000002" y="416.815" type="line"/>
      <point x="228.29500000000002" y="740.0" type="line"/>
      <point x="74.92" y="740.0" type="line"/>
      <point x="74.92" y="332.165" type="line"/>
      <point x="10.154999999999998" y="283.91" type="line"/>
      <point x="10.154999999999998" y="170.95499999999998" type="line"/>
      <point x="75.69" y="219.45999999999998" type="line"/>
      <point x="76.46000000000001" y="161.27999999999997" type="line" smooth="yes"/>
      <point x="83.00500000000001" y="29.795000000000005"/>
      <point x="141.475" y="-10.0"/>
    </contour>
  </outline>
</glyph>
<glyph name="Eng" format="2">
  <advance width="900.125"/>
  <unicode hex="014A"/>
  <outline>
    <contour>
      <point x="83.07499999999999" y="0.0" type="line"/>
      <point x="228.74999999999997" y="0.0" type="line"/>
      <point x="228.74999999999997" y="480.85" type="line"/>
      <point x="668.0749999999999" y="4.4750000000000005" type="line"/>
      <point x="668.0749999999999" y="-4.4750000000000005" type="line" smooth="yes"/>
      <point x="666.2749999999999" y="-65.6"/>
      <point x="611.825" y="-91.65"/>
      <point x="531.15" y="-91.65" type="curve" smooth="yes"/>
      <point x="493.4249999999999" y="-91.65"/>
      <point x="448.55" y="-85.95"/>
      <point x="405.1499999999999" y="-76.67499999999998" type="curve"/>
      <point x="382.12499999999994" y="-187.75" type="line"/>
      <point x="432.4" y="-199.45"/>
      <point x="490.04999999999995" y="-207.625"/>
      <point x="548.2" y="-207.625" type="curve" smooth="yes"/>
      <point x="707.0" y="-207.625"/>
      <point x="817.05" y="-146.85000000000002"/>
      <point x="817.05" y="-11.1" type="curve" smooth="yes"/>
      <point x="817.05" y="700.0" type="line"/>
      <point x="671.925" y="700.0" type="line"/>
      <point x="671.925" y="207.32500000000002" type="line"/>
      <point x="226.52500000000003" y="703.15" type="line"/>
      <point x="83.07499999999999" y="703.15" type="line"/>
    </contour>
  </outline>
</glyph>
<glyph name="eng" format="2">
  <advance width="728.755"/>
  <unicode hex="014B"/>
  <outline>
    <contour>
      <point x="660.16" y="29.0" type="curve"/>
      <point x="660.16" y="371.73999999999995" type="line" smooth="yes"/>
      <point x="660.16" y="477.14000000000004"/>
      <point x="594.91" y="551.0"/>
      <point x="457.905" y="551.0" type="curve" smooth="yes"/>
      <point x="364.715" y="551.0"/>
      <point x="297.255" y="523.28"/>
      <point x="207.725" y="477.795" type="curve"/>
      <point x="207.725" y="541.0" type="line"/>
      <point x="68.925" y="541.0" type="line"/>
      <point x="68.925" y="0.0" type="line"/>
      <point x="222.465" y="0.0" type="line"/>
      <point x="222.465" y="385.02" type="line"/>
      <point x="285.44" y="413.02000000000004"/>
      <point x="334.12" y="432.49"/>
      <point x="396.23999999999995" y="432.49" type="curve" smooth="yes"/>
      <point x="469.74" y="432.49"/>
      <point x="506.62" y="394.7"/>
      <point x="506.62" y="320.26" type="curve" smooth="yes"/>
      <point x="506.62" y="28.29" type="line" smooth="yes"/>
      <point x="506.62" y="-38.63999999999999"/>
      <point x="487.03999999999996" y="-71.49"/>
      <point x="449.515" y="-85.88999999999999" type="curve" smooth="yes"/>
      <point x="440.19000000000005" y="-88.45499999999998"/>
      <point x="428.8299999999999" y="-89.63499999999999"/>
      <point x="417.68" y="-90.365" type="curve"/>
      <point x="413.41" y="-209.48499999999999" type="line"/>
      <point x="435.48499999999996" y="-210.68499999999997"/>
      <point x="456.98499999999996" y="-209.47"/>
      <point x="477.90999999999997" y="-206.77" type="curve" smooth="yes"/>
      <point x="589.985" y="-190.75"/>
      <point x="660.16" y="-106.005"/>
    </contour>
  </outline>
</glyph>
<glyph name="OE" format="2">
  <advance width="1375.7399999999998"/>
  <unicode hex="0152"/>
  <outline>
    <contour>
      <point x="1339.07" y="0.0" type="line"/>
      <point x="1339.07" y="128.59" type="line"/>
      <point x="829.2199999999999" y="128.59" type="line"/>
      <point x="829.2199999999999" y="300.69" type="line"/>
      <point x="1287.4299999999998" y="300.69" type="line"/>
      <point x="1287.4299999999998" y="424.53" type="line"/>
      <point x="829.2199999999999" y="424.53" type="line"/>
      <point x="829.2199999999999" y="571.71" type="line"/>
      <point x="1315.5600000000002" y="571.71" type="line"/>
      <point x="1315.5600000000002" y="700.0" type="line"/>
      <point x="820.9399999999998" y="700.0" type="line"/>
      <point x="707.68" y="704.57"/>
      <point x="598.01" y="709.1"/>
      <point x="475.00999999999993" y="709.1" type="curve" smooth="yes"/>
      <point x="201.70999999999995" y="709.1"/>
      <point x="48.23999999999999" y="597.8799999999999"/>
      <point x="48.23999999999999" y="355.03999999999996" type="curve" smooth="yes"/>
      <point x="48.23999999999999" y="75.38"/>
      <point x="219.50999999999996" y="-9.55"/>
      <point x="494.94" y="-9.55" type="curve" smooth="yes"/>
      <point x="619.7600000000001" y="-9.55"/>
      <point x="718.03" y="-5.64"/>
      <point x="829.1899999999998" y="0.0" type="curve"/>
    </contour>
    <contour>
      <point x="668.0699999999998" y="110.13000000000001" type="line"/>
      <point x="629.37" y="108.13000000000001"/>
      <point x="558.02" y="104.33000000000001"/>
      <point x="481.37000000000006" y="104.33000000000001" type="curve" smooth="yes"/>
      <point x="342.78999999999996" y="104.33000000000001"/>
      <point x="213.70000000000002" y="152.48000000000002"/>
      <point x="213.70000000000002" y="352.91" type="curve" smooth="yes"/>
      <point x="213.70000000000002" y="542.82"/>
      <point x="343.01" y="595.54"/>
      <point x="468.96" y="595.54" type="curve" smooth="yes"/>
      <point x="521.8499999999999" y="595.54"/>
      <point x="625.76" y="590.32"/>
      <point x="668.0699999999998" y="588.77" type="curve"/>
    </contour>
  </outline>
</glyph>
